<svg width="48" height="64" viewBox="0 0 48 64" fill="none" xmlns="http://www.w3.org/2000/svg">
<path d="M41.2402 16.9C39.1402 7.66 31.0802 3.5 24.0002 3.5C24.0002 3.5 24.0002 3.5 23.9802 3.5C16.9202 3.5 8.84019 7.64 6.74019 16.88C4.40019 27.2 10.7202 35.94 16.4402 41.44C18.5602 43.48 21.2802 44.5 24.0002 44.5C26.7202 44.5 29.4402 43.48 31.5402 41.44C37.2602 35.94 43.5802 27.22 41.2402 16.9ZM24.0002 26.92C20.5202 26.92 17.7002 24.1 17.7002 20.62C17.7002 17.14 20.5202 14.32 24.0002 14.32C27.4802 14.32 30.3002 17.14 30.3002 20.62C30.3002 24.1 27.4802 26.92 24.0002 26.92Z" fill="#417F56"/>
<circle cx="24" cy="60" r="4" fill="#417F56"/>
</svg>
