<?xml version="1.0" encoding="UTF-8" standalone="no"?>
<!DOCTYPE svg PUBLIC "-//W3C//DTD SVG 1.1//EN" "http://www.w3.org/Graphics/SVG/1.1/DTD/svg11.dtd">
<svg xmlns="http://www.w3.org/2000/svg" version="1.1" viewBox="0.00 0.00 1671.00 1254.00">
<g stroke-width="2.00" fill="none" stroke-linecap="butt">
<path stroke="#c5453c" vector-effect="non-scaling-stroke" d="
  M 804.73 224.92
  L 761.30 250.44"
/>
<path stroke="#cc655a" vector-effect="non-scaling-stroke" d="
  M 761.30 250.44
  Q 724.04 272.39 686.83 294.38
  C 683.12 296.57 678.39 298.73 675.34 300.60
  Q 670.00 303.87 665.90 309.87"
/>
<path stroke="#c5453c" vector-effect="non-scaling-stroke" d="
  M 665.90 309.87
  Q 662.62 315.13 661.22 323.51
  Q 660.46 328.10 660.68 332.01
  Q 661.01 337.89 661.01 338.01
  Q 661.03 347.78 661.02 357.54"
/>
<path stroke="#c2342d" vector-effect="non-scaling-stroke" d="
  M 661.02 357.54
  L 660.92 394.46"
/>
<path stroke="#be211b" vector-effect="non-scaling-stroke" d="
  M 660.92 394.46
  Q 661.00 484.44 660.96 574.41
  C 660.96 579.58 660.47 584.61 660.14 589.80
  Q 660.06 590.97 660.33 592.05
  A 0.63 0.63 0.0 0 0 661.26 592.45
  L 707.93 565.81
  A 1.90 1.90 0.0 0 0 708.83 563.71
  Q 703.04 539.85 704.30 515.87
  Q 706.37 476.24 731.20 447.36
  C 746.31 429.80 767.84 416.95 789.87 409.69
  Q 791.76 409.07 793.78 408.69
  A 1.69 1.68 84.5 0 0 795.15 407.02
  L 794.95 376.45"
/>
<path stroke="#c2342d" vector-effect="non-scaling-stroke" d="
  M 794.95 376.45
  L 795.03 318.53"
/>
<path stroke="#c5453c" vector-effect="non-scaling-stroke" d="
  M 795.03 318.53
  C 795.06 311.04 794.84 303.52 796.97 296.50
  C 799.29 288.87 805.74 282.44 814.08 281.55"
/>
<path stroke="#c2342d" vector-effect="non-scaling-stroke" d="
  M 814.08 281.55
  Q 822.89 281.72 830.52 286.73
  Q 838.60 292.05 847.31 296.86"
/>
<path stroke="#be211b" vector-effect="non-scaling-stroke" d="
  M 847.31 296.86
  Q 916.08 336.19 984.95 375.86
  Q 985.53 376.19 986.05 375.90
  A 0.96 0.95 75.5 0 0 986.52 375.09
  Q 986.74 365.44 986.20 358.34
  C 985.56 349.99 985.83 342.06 985.68 333.99
  C 985.48 322.49 981.57 305.93 969.93 300.20
  C 967.24 298.88 964.61 297.61 962.02 296.07
  Q 910.87 265.77 859.74 235.44
  Q 852.34 231.04 845.23 227.02"
/>
<path stroke="#c2342d" vector-effect="non-scaling-stroke" d="
  M 845.23 227.02
  Q 840.46 224.17 835.86 221.42
  Q 830.99 218.51 827.45 217.86
  Q 820.99 216.69 815.19 218.92
  Q 811.27 220.43 804.73 224.92"
/>
<path stroke="#d63648" vector-effect="non-scaling-stroke" d="
  M 845.23 227.02
  Q 847.18 234.74 847.61 237.75
  Q 848.57 244.63 849.47 251.52
  Q 850.11 256.45 849.82 261.09
  Q 849.45 266.94 849.66 275.40
  Q 849.67 275.77 849.82 276.11
  Q 850.01 276.54 849.76 276.96
  A 0.85 0.78 -33.6 0 0 849.65 277.40
  Q 849.71 285.69 848.52 293.01
  Q 848.21 294.90 847.31 296.86"
/>
<path stroke="#dd5a69" vector-effect="non-scaling-stroke" d="
  M 814.08 281.55
  Q 816.57 281.17 815.90 279.51
  Q 815.32 278.07 815.53 276.89
  Q 815.90 274.83 815.90 274.80
  Q 815.92 270.77 815.49 266.64
  Q 815.40 265.75 815.52 264.90
  Q 815.64 264.01 815.46 263.08
  Q 815.21 261.79 815.16 260.41
  Q 814.76 250.76 812.44 241.20
  Q 810.81 234.54 808.96 227.92
  Q 808.82 227.41 808.49 226.99
  Q 808.01 226.38 808.45 225.84
  Q 808.92 225.26 808.17 225.20
  L 804.73 224.92"
/>
<path stroke="#dd5a69" vector-effect="non-scaling-stroke" d="
  M 795.03 318.53
  Q 794.51 318.51 794.58 319.34
  Q 794.62 319.89 794.11 320.09
  Q 793.76 320.22 793.83 320.61
  Q 793.95 321.26 793.39 321.60
  Q 792.04 322.41 791.74 324.09
  A 1.12 1.11 -11.9 0 1 791.24 324.85
  Q 790.02 325.64 789.48 326.97
  Q 788.93 328.32 788.02 329.51
  Q 782.23 337.13 776.49 341.92
  Q 776.40 341.99 773.68 344.70
  Q 771.77 346.60 769.33 347.59
  A 1.13 1.12 88.9 0 0 768.68 348.27
  Q 768.52 348.75 768.10 349.07
  Q 759.79 355.30 750.06 359.84
  Q 746.13 361.68 741.34 363.30
  Q 737.26 364.67 732.99 366.06
  Q 732.88 366.09 732.87 366.22
  Q 732.86 366.38 732.70 366.52
  Q 732.62 366.58 732.51 366.60
  Q 729.80 366.99 727.06 368.04
  Q 725.23 368.75 723.38 368.64
  Q 721.52 368.52 719.61 368.94
  Q 717.76 369.35 715.89 369.40
  Q 712.51 369.49 709.15 369.62
  Q 705.87 369.75 702.57 369.31
  Q 695.31 368.34 687.71 367.43
  Q 683.58 366.93 679.99 365.81
  Q 675.88 364.53 672.05 363.55
  Q 672.01 363.54 671.99 363.49
  L 671.88 363.17
  Q 671.80 362.97 671.59 362.90
  Q 669.83 362.39 668.18 362.07
  C 666.36 361.71 665.13 359.97 663.46 359.91
  Q 662.80 359.89 662.29 360.11
  Q 661.80 360.32 661.66 359.81
  L 661.02 357.54"
/>
<path stroke="#e78b96" vector-effect="non-scaling-stroke" d="
  M 665.90 309.87
  Q 670.41 312.30 674.60 315.08
  Q 678.86 317.90 682.30 319.42
  Q 686.97 321.48 690.67 322.66
  Q 702.46 326.40 718.19 324.19
  Q 721.19 323.77 724.53 322.53
  Q 727.61 321.38 730.49 320.07
  Q 733.94 318.49 737.49 316.33
  Q 740.66 314.39 743.42 311.98
  Q 753.83 302.91 758.98 291.77
  Q 761.88 285.51 763.17 277.67
  Q 763.61 275.03 763.67 272.29
  C 763.72 269.65 763.86 266.87 763.86 264.12
  Q 763.86 262.54 764.25 260.99
  Q 764.37 260.51 764.23 260.04
  Q 763.46 257.55 762.98 255.11
  Q 762.88 254.59 762.55 254.17
  Q 761.61 253.00 762.55 251.92
  Q 762.91 251.50 762.42 251.25
  Q 761.79 250.94 761.30 250.44"
/>
<path stroke="#d63648" vector-effect="non-scaling-stroke" d="
  M 794.95 376.45
  Q 794.54 376.82 794.58 377.67
  Q 794.62 378.47 793.93 378.06
  Q 793.79 377.97 793.67 377.83
  Q 793.10 377.18 792.27 377.42
  Q 791.23 377.71 790.36 378.57
  C 788.69 380.22 786.62 381.35 784.84 382.91
  Q 783.10 384.43 781.16 385.48
  Q 776.81 387.81 772.71 390.09
  C 770.76 391.18 768.61 391.82 766.64 392.85
  Q 764.48 393.99 762.32 394.87
  Q 758.73 396.34 754.90 398.00
  C 750.52 399.90 746.17 401.12 741.66 402.40
  Q 739.99 402.87 738.35 403.01
  Q 736.74 403.14 735.18 403.47
  Q 728.88 404.78 722.03 405.53
  Q 721.53 405.59 721.17 405.94
  Q 720.66 406.45 719.97 406.40
  Q 719.27 406.34 718.85 406.40
  Q 714.69 406.98 710.37 406.74
  Q 709.99 406.72 709.68 406.94
  Q 709.50 407.06 709.30 407.11
  Q 708.88 407.22 708.54 406.95
  Q 707.69 406.25 706.83 406.89
  Q 706.45 407.17 705.97 407.17
  Q 690.94 407.26 674.07 403.27
  Q 671.71 402.71 669.49 401.49
  Q 667.23 400.25 664.37 399.74
  Q 663.97 399.67 663.59 399.78
  Q 662.37 400.17 661.57 399.62
  Q 661.07 399.27 661.05 398.67
  L 660.92 394.46"
/>
<path stroke="#be211b" vector-effect="non-scaling-stroke" d="
  M 944.82 546.94
  Q 944.03 554.36 942.22 562.15
  A 2.29 2.27 21.6 0 0 943.31 564.65
  Q 985.70 589.05 1027.39 613.07
  Q 1036.49 618.32 1041.53 625.91
  C 1046.11 632.83 1046.11 641.54 1040.50 647.81
  C 1036.93 651.82 1032.97 654.52 1028.07 656.87
  Q 1024.35 658.66 1020.50 660.88
  Q 949.63 701.54 875.12 744.10
  A 0.46 0.46 0.0 0 0 875.13 744.91
  Q 892.83 754.44 911.36 764.90
  C 916.76 767.96 923.29 770.28 929.31 771.54
  Q 941.52 774.09 950.95 768.06
  Q 953.73 766.28 956.73 764.60
  Q 1021.20 728.55 1082.38 694.88
  Q 1090.36 690.49 1092.75 687.70
  Q 1097.47 682.17 1097.71 673.87
  Q 1097.96 665.32 1097.50 657.73
  C 1096.71 644.41 1096.98 631.32 1096.97 618.11
  C 1096.97 615.37 1096.28 612.66 1096.28 609.90
  Q 1096.29 595.57 1096.24 580.90
  C 1096.23 578.68 1095.83 576.50 1095.80 574.31
  C 1095.62 563.68 1096.15 551.38 1095.40 540.11
  C 1094.95 533.29 1094.72 526.24 1095.31 519.35
  C 1096.13 509.70 1092.00 499.75 1084.38 493.21
  Q 1078.93 488.53 1073.18 485.83
  Q 1069.63 484.16 1066.67 482.45
  Q 965.34 423.90 848.28 356.01
  Q 847.91 355.79 847.47 355.79
  A 0.55 0.55 0.0 0 0 846.93 356.34
  Q 846.97 382.68 846.93 408.37
  Q 846.93 408.76 846.90 409.14
  Q 846.79 410.80 848.41 411.27
  Q 873.24 418.48 893.99 432.44
  Q 905.69 440.31 914.05 449.01
  Q 940.33 476.36 944.87 514.22
  Q 946.19 525.22 945.88 532.78
  Q 945.59 539.67 944.82 546.94"
/>
<path stroke="#be211b" vector-effect="non-scaling-stroke" d="
  M 552.79 556.69
  Q 552.64 558.74 552.62 560.53
  Q 552.51 572.95 551.97 584.77
  C 551.63 592.34 551.92 599.67 551.59 606.96
  Q 551.23 614.95 551.22 623.43
  C 551.21 632.03 550.39 640.38 550.53 648.57
  Q 550.70 658.97 549.86 668.49
  Q 548.47 684.43 561.72 691.73
  Q 583.56 703.76 608.69 717.99
  Q 651.48 742.20 689.19 763.70
  Q 691.83 765.20 695.15 767.41
  C 706.94 775.26 722.00 773.26 733.63 765.67
  Q 737.65 763.05 741.53 760.85
  Q 836.70 706.86 960.85 636.91
  A 0.85 0.85 0.0 0 0 961.13 635.68
  Q 960.82 635.24 960.21 634.88
  Q 936.60 621.07 915.64 608.83
  A 2.23 2.23 0.0 0 0 913.01 609.11
  C 889.83 630.28 860.06 647.85 828.00 649.42
  C 815.45 650.03 803.41 649.19 791.25 645.67
  Q 759.74 636.54 735.31 613.11
  A 1.90 1.89 -37.9 0 0 733.06 612.83
  Q 695.25 634.40 657.16 655.91
  C 651.34 659.19 645.50 662.88 639.49 664.88
  Q 630.61 667.84 623.18 665.76
  C 612.96 662.91 608.96 650.99 610.05 641.49
  Q 610.50 637.47 610.49 633.56
  Q 610.43 620.36 610.90 608.00
  C 611.56 590.22 611.13 572.16 611.32 554.42
  C 611.37 550.63 611.83 547.05 611.83 543.17
  Q 611.84 524.84 611.85 506.50
  Q 611.86 498.26 612.35 486.54
  Q 612.81 475.43 612.54 464.37
  Q 612.53 464.12 612.60 463.87
  Q 612.70 463.47 612.39 463.19
  A 0.66 0.66 0.0 0 0 611.60 463.12
  Q 593.96 473.60 577.90 482.97
  C 571.85 486.50 566.57 490.60 561.84 495.66
  C 555.84 502.08 552.58 509.57 553.53 518.74
  C 554.21 525.25 553.06 531.93 553.22 538.51
  Q 553.45 547.89 552.79 556.69"
/>
<path stroke="#ffba2c" vector-effect="non-scaling-stroke" d="
  M 893.14 528.48
  A 70.26 70.26 0.0 0 0 822.88 458.22
  A 70.26 70.26 0.0 0 0 752.62 528.48
  A 70.26 70.26 0.0 0 0 822.88 598.74
  A 70.26 70.26 0.0 0 0 893.14 528.48"
/>
</g>
<path fill="#aa1f00" d="
  M 724.91 556.49
  Q 726.94 565.29 728.96 572.93
  A 0.93 0.92 67.9 0 1 728.53 573.97
  L 643.28 622.50
  Q 642.89 622.72 642.89 622.27
  Q 642.81 603.55 642.94 586.75
  C 642.95 585.52 643.48 584.31 643.48 582.98
  Q 643.49 459.22 643.49 335.51
  Q 643.49 333.99 643.17 332.50
  C 642.67 330.16 643.55 328.07 643.61 325.72
  C 643.65 324.14 643.50 322.66 643.83 321.09
  Q 645.99 310.81 648.52 305.76
  Q 653.17 296.49 660.69 290.03
  Q 664.96 286.36 670.55 283.50
  Q 675.78 280.82 680.86 277.83
  Q 738.55 243.78 796.29 209.80
  C 801.51 206.73 807.02 202.44 813.14 201.48
  C 814.98 201.19 816.74 200.23 818.56 200.24
  Q 822.72 200.27 827.10 200.21
  Q 829.23 200.18 831.35 200.85
  C 833.30 201.47 835.22 201.79 837.16 202.57
  C 842.40 204.66 846.67 207.80 851.49 210.65
  Q 909.37 244.86 969.84 280.51
  Q 973.45 282.64 977.03 284.38
  C 990.12 290.71 998.51 305.01 1001.36 319.16
  Q 1002.23 323.48 1002.78 328.15
  C 1003.82 336.91 1003.19 346.14 1003.32 354.88
  C 1003.34 356.20 1003.84 357.38 1003.83 358.77
  Q 1003.74 374.92 1003.83 390.78
  Q 1003.84 392.63 1004.19 394.64
  Q 1004.45 396.13 1004.46 397.50
  Q 1004.49 401.77 1004.56 405.90
  Q 1004.57 406.72 1003.86 406.32
  Q 976.04 390.58 949.11 375.11
  Q 889.66 340.97 829.73 306.70
  Q 826.66 304.95 823.91 303.16
  C 821.68 301.70 817.64 298.65 814.97 299.33
  Q 814.48 299.45 814.28 299.91
  Q 812.47 304.13 812.47 308.68
  Q 812.53 364.43 812.49 421.45
  A 0.78 0.78 0.0 0 1 811.73 422.23
  Q 810.77 422.24 809.83 422.43
  Q 781.39 427.99 758.36 445.35
  Q 754.27 448.44 750.70 452.15
  C 747.69 455.28 744.42 458.22 741.71 461.68
  Q 726.83 480.70 722.92 504.42
  Q 722.29 508.27 721.88 512.25
  C 721.31 517.85 721.46 523.34 721.47 528.92
  Q 721.49 533.07 722.03 537.87
  Q 722.58 542.78 723.19 547.21
  Q 723.82 551.76 724.91 556.49
  Z
  M 804.73 224.92
  L 761.30 250.44
  Q 724.04 272.39 686.83 294.38
  C 683.12 296.57 678.39 298.73 675.34 300.60
  Q 670.00 303.87 665.90 309.87
  Q 662.62 315.13 661.22 323.51
  Q 660.46 328.10 660.68 332.01
  Q 661.01 337.89 661.01 338.01
  Q 661.03 347.78 661.02 357.54
  L 660.92 394.46
  Q 661.00 484.44 660.96 574.41
  C 660.96 579.58 660.47 584.61 660.14 589.80
  Q 660.06 590.97 660.33 592.05
  A 0.63 0.63 0.0 0 0 661.26 592.45
  L 707.93 565.81
  A 1.90 1.90 0.0 0 0 708.83 563.71
  Q 703.04 539.85 704.30 515.87
  Q 706.37 476.24 731.20 447.36
  C 746.31 429.80 767.84 416.95 789.87 409.69
  Q 791.76 409.07 793.78 408.69
  A 1.69 1.68 84.5 0 0 795.15 407.02
  L 794.95 376.45
  L 795.03 318.53
  C 795.06 311.04 794.84 303.52 796.97 296.50
  C 799.29 288.87 805.74 282.44 814.08 281.55
  Q 822.89 281.72 830.52 286.73
  Q 838.60 292.05 847.31 296.86
  Q 916.08 336.19 984.95 375.86
  Q 985.53 376.19 986.05 375.90
  A 0.96 0.95 75.5 0 0 986.52 375.09
  Q 986.74 365.44 986.20 358.34
  C 985.56 349.99 985.83 342.06 985.68 333.99
  C 985.48 322.49 981.57 305.93 969.93 300.20
  C 967.24 298.88 964.61 297.61 962.02 296.07
  Q 910.87 265.77 859.74 235.44
  Q 852.34 231.04 845.23 227.02
  Q 840.46 224.17 835.86 221.42
  Q 830.99 218.51 827.45 217.86
  Q 820.99 216.69 815.19 218.92
  Q 811.27 220.43 804.73 224.92
  Z"
/>
<path fill="#d9495a" d="
  M 845.23 227.02
  Q 847.18 234.74 847.61 237.75
  Q 848.57 244.63 849.47 251.52
  Q 850.11 256.45 849.82 261.09
  Q 849.45 266.94 849.66 275.40
  Q 849.67 275.77 849.82 276.11
  Q 850.01 276.54 849.76 276.96
  A 0.85 0.78 -33.6 0 0 849.65 277.40
  Q 849.71 285.69 848.52 293.01
  Q 848.21 294.90 847.31 296.86
  Q 838.60 292.05 830.52 286.73
  Q 822.89 281.72 814.08 281.55
  Q 816.57 281.17 815.90 279.51
  Q 815.32 278.07 815.53 276.89
  Q 815.90 274.83 815.90 274.80
  Q 815.92 270.77 815.49 266.64
  Q 815.40 265.75 815.52 264.90
  Q 815.64 264.01 815.46 263.08
  Q 815.21 261.79 815.16 260.41
  Q 814.76 250.76 812.44 241.20
  Q 810.81 234.54 808.96 227.92
  Q 808.82 227.41 808.49 226.99
  Q 808.01 226.38 808.45 225.84
  Q 808.92 225.26 808.17 225.20
  L 804.73 224.92
  Q 811.27 220.43 815.19 218.92
  Q 820.99 216.69 827.45 217.86
  Q 830.99 218.51 835.86 221.42
  Q 840.46 224.17 845.23 227.02
  Z"
/>
<path fill="#e06b78" d="
  M 804.73 224.92
  L 808.17 225.20
  Q 808.92 225.26 808.45 225.84
  Q 808.01 226.38 808.49 226.99
  Q 808.82 227.41 808.96 227.92
  Q 810.81 234.54 812.44 241.20
  Q 814.76 250.76 815.16 260.41
  Q 815.21 261.79 815.46 263.08
  Q 815.64 264.01 815.52 264.90
  Q 815.40 265.75 815.49 266.64
  Q 815.92 270.77 815.90 274.80
  Q 815.90 274.83 815.53 276.89
  Q 815.32 278.07 815.90 279.51
  Q 816.57 281.17 814.08 281.55
  C 805.74 282.44 799.29 288.87 796.97 296.50
  C 794.84 303.52 795.06 311.04 795.03 318.53
  Q 794.51 318.51 794.58 319.34
  Q 794.62 319.89 794.11 320.09
  Q 793.76 320.22 793.83 320.61
  Q 793.95 321.26 793.39 321.60
  Q 792.04 322.41 791.74 324.09
  A 1.12 1.11 -11.9 0 1 791.24 324.85
  Q 790.02 325.64 789.48 326.97
  Q 788.93 328.32 788.02 329.51
  Q 782.23 337.13 776.49 341.92
  Q 776.40 341.99 773.68 344.70
  Q 771.77 346.60 769.33 347.59
  A 1.13 1.12 88.9 0 0 768.68 348.27
  Q 768.52 348.75 768.10 349.07
  Q 759.79 355.30 750.06 359.84
  Q 746.13 361.68 741.34 363.30
  Q 737.26 364.67 732.99 366.06
  Q 732.88 366.09 732.87 366.22
  Q 732.86 366.38 732.70 366.52
  Q 732.62 366.58 732.51 366.60
  Q 729.80 366.99 727.06 368.04
  Q 725.23 368.75 723.38 368.64
  Q 721.52 368.52 719.61 368.94
  Q 717.76 369.35 715.89 369.40
  Q 712.51 369.49 709.15 369.62
  Q 705.87 369.75 702.57 369.31
  Q 695.31 368.34 687.71 367.43
  Q 683.58 366.93 679.99 365.81
  Q 675.88 364.53 672.05 363.55
  Q 672.01 363.54 671.99 363.49
  L 671.88 363.17
  Q 671.80 362.97 671.59 362.90
  Q 669.83 362.39 668.18 362.07
  C 666.36 361.71 665.13 359.97 663.46 359.91
  Q 662.80 359.89 662.29 360.11
  Q 661.80 360.32 661.66 359.81
  L 661.02 357.54
  Q 661.03 347.78 661.01 338.01
  Q 661.01 337.89 660.68 332.01
  Q 660.46 328.10 661.22 323.51
  Q 662.62 315.13 665.90 309.87
  Q 670.41 312.30 674.60 315.08
  Q 678.86 317.90 682.30 319.42
  Q 686.97 321.48 690.67 322.66
  Q 702.46 326.40 718.19 324.19
  Q 721.19 323.77 724.53 322.53
  Q 727.61 321.38 730.49 320.07
  Q 733.94 318.49 737.49 316.33
  Q 740.66 314.39 743.42 311.98
  Q 753.83 302.91 758.98 291.77
  Q 761.88 285.51 763.17 277.67
  Q 763.61 275.03 763.67 272.29
  C 763.72 269.65 763.86 266.87 763.86 264.12
  Q 763.86 262.54 764.25 260.99
  Q 764.37 260.51 764.23 260.04
  Q 763.46 257.55 762.98 255.11
  Q 762.88 254.59 762.55 254.17
  Q 761.61 253.00 762.55 251.92
  Q 762.91 251.50 762.42 251.25
  Q 761.79 250.94 761.30 250.44
  L 804.73 224.92
  Z"
/>
<path fill="#d22236" d="
  M 845.23 227.02
  Q 852.34 231.04 859.74 235.44
  Q 910.87 265.77 962.02 296.07
  C 964.61 297.61 967.24 298.88 969.93 300.20
  C 981.57 305.93 985.48 322.49 985.68 333.99
  C 985.83 342.06 985.56 349.99 986.20 358.34
  Q 986.74 365.44 986.52 375.09
  A 0.96 0.95 75.5 0 1 986.05 375.90
  Q 985.53 376.19 984.95 375.86
  Q 916.08 336.19 847.31 296.86
  Q 848.21 294.90 848.52 293.01
  Q 849.71 285.69 849.65 277.40
  A 0.85 0.78 -33.6 0 1 849.76 276.96
  Q 850.01 276.54 849.82 276.11
  Q 849.67 275.77 849.66 275.40
  Q 849.45 266.94 849.82 261.09
  Q 850.11 256.45 849.47 251.52
  Q 848.57 244.63 847.61 237.75
  Q 847.18 234.74 845.23 227.02
  Z"
/>
<path fill="#edabb3" d="
  M 761.30 250.44
  Q 761.79 250.94 762.42 251.25
  Q 762.91 251.50 762.55 251.92
  Q 761.61 253.00 762.55 254.17
  Q 762.88 254.59 762.98 255.11
  Q 763.46 257.55 764.23 260.04
  Q 764.37 260.51 764.25 260.99
  Q 763.86 262.54 763.86 264.12
  C 763.86 266.87 763.72 269.65 763.67 272.29
  Q 763.61 275.03 763.17 277.67
  Q 761.88 285.51 758.98 291.77
  Q 753.83 302.91 743.42 311.98
  Q 740.66 314.39 737.49 316.33
  Q 733.94 318.49 730.49 320.07
  Q 727.61 321.38 724.53 322.53
  Q 721.19 323.77 718.19 324.19
  Q 702.46 326.40 690.67 322.66
  Q 686.97 321.48 682.30 319.42
  Q 678.86 317.90 674.60 315.08
  Q 670.41 312.30 665.90 309.87
  Q 670.00 303.87 675.34 300.60
  C 678.39 298.73 683.12 296.57 686.83 294.38
  Q 724.04 272.39 761.30 250.44
  Z"
/>
<path fill="#d9495a" d="
  M 795.03 318.53
  L 794.95 376.45
  Q 794.54 376.82 794.58 377.67
  Q 794.62 378.47 793.93 378.06
  Q 793.79 377.97 793.67 377.83
  Q 793.10 377.18 792.27 377.42
  Q 791.23 377.71 790.36 378.57
  C 788.69 380.22 786.62 381.35 784.84 382.91
  Q 783.10 384.43 781.16 385.48
  Q 776.81 387.81 772.71 390.09
  C 770.76 391.18 768.61 391.82 766.64 392.85
  Q 764.48 393.99 762.32 394.87
  Q 758.73 396.34 754.90 398.00
  C 750.52 399.90 746.17 401.12 741.66 402.40
  Q 739.99 402.87 738.35 403.01
  Q 736.74 403.14 735.18 403.47
  Q 728.88 404.78 722.03 405.53
  Q 721.53 405.59 721.17 405.94
  Q 720.66 406.45 719.97 406.40
  Q 719.27 406.34 718.85 406.40
  Q 714.69 406.98 710.37 406.74
  Q 709.99 406.72 709.68 406.94
  Q 709.50 407.06 709.30 407.11
  Q 708.88 407.22 708.54 406.95
  Q 707.69 406.25 706.83 406.89
  Q 706.45 407.17 705.97 407.17
  Q 690.94 407.26 674.07 403.27
  Q 671.71 402.71 669.49 401.49
  Q 667.23 400.25 664.37 399.74
  Q 663.97 399.67 663.59 399.78
  Q 662.37 400.17 661.57 399.62
  Q 661.07 399.27 661.05 398.67
  L 660.92 394.46
  L 661.02 357.54
  L 661.66 359.81
  Q 661.80 360.32 662.29 360.11
  Q 662.80 359.89 663.46 359.91
  C 665.13 359.97 666.36 361.71 668.18 362.07
  Q 669.83 362.39 671.59 362.90
  Q 671.80 362.97 671.88 363.17
  L 671.99 363.49
  Q 672.01 363.54 672.05 363.55
  Q 675.88 364.53 679.99 365.81
  Q 683.58 366.93 687.71 367.43
  Q 695.31 368.34 702.57 369.31
  Q 705.87 369.75 709.15 369.62
  Q 712.51 369.49 715.89 369.40
  Q 717.76 369.35 719.61 368.94
  Q 721.52 368.52 723.38 368.64
  Q 725.23 368.75 727.06 368.04
  Q 729.80 366.99 732.51 366.60
  Q 732.62 366.58 732.70 366.52
  Q 732.86 366.38 732.87 366.22
  Q 732.88 366.09 732.99 366.06
  Q 737.26 364.67 741.34 363.30
  Q 746.13 361.68 750.06 359.84
  Q 759.79 355.30 768.10 349.07
  Q 768.52 348.75 768.68 348.27
  A 1.13 1.12 88.9 0 1 769.33 347.59
  Q 771.77 346.60 773.68 344.70
  Q 776.40 341.99 776.49 341.92
  Q 782.23 337.13 788.02 329.51
  Q 788.93 328.32 789.48 326.97
  Q 790.02 325.64 791.24 324.85
  A 1.12 1.11 -11.9 0 0 791.74 324.09
  Q 792.04 322.41 793.39 321.60
  Q 793.95 321.26 793.83 320.61
  Q 793.76 320.22 794.11 320.09
  Q 794.62 319.89 794.58 319.34
  Q 794.51 318.51 795.03 318.53
  Z"
/>
<path fill="#aa1f00" d="
  M 1027.03 635.12
  Q 1023.44 630.79 1018.95 628.20
  Q 970.03 599.93 921.74 572.17
  Q 921.19 571.85 921.39 571.25
  C 923.19 565.97 924.96 560.63 926.04 555.09
  Q 927.32 548.50 927.81 542.94
  Q 927.99 540.89 928.26 538.77
  Q 928.52 536.70 928.55 534.67
  C 928.62 530.59 928.90 526.06 928.26 522.10
  Q 928.01 520.53 927.89 518.93
  Q 927.36 511.45 925.09 502.61
  C 919.04 479.04 904.47 460.08 884.59 446.79
  C 868.31 435.90 849.76 429.36 830.70 423.96
  Q 829.48 423.61 829.48 422.34
  L 829.43 325.77
  Q 829.43 325.10 830.01 325.43
  Q 950.63 395.30 1064.50 461.21
  Q 1073.36 466.34 1082.42 471.11
  C 1097.07 478.82 1109.30 492.10 1112.02 508.73
  C 1112.67 512.68 1113.46 516.86 1112.70 520.86
  Q 1112.20 523.50 1112.27 526.20
  Q 1112.40 531.77 1112.50 537.25
  C 1112.51 538.20 1112.97 539.02 1112.98 539.94
  Q 1113.00 556.34 1112.99 573.41
  C 1112.99 576.02 1113.78 578.96 1113.78 581.91
  Q 1113.74 597.93 1113.77 613.24
  C 1113.77 614.62 1114.36 615.80 1114.36 617.21
  Q 1114.30 633.80 1114.35 651.22
  C 1114.35 652.45 1114.87 653.37 1114.89 654.56
  Q 1115.05 666.83 1114.86 676.72
  Q 1114.80 680.26 1113.16 685.78
  C 1110.26 695.61 1102.70 703.44 1093.78 708.34
  Q 1028.36 744.25 967.36 778.33
  Q 963.63 780.42 959.59 783.14
  Q 954.64 786.49 947.61 788.30
  C 945.48 788.85 943.48 788.84 941.37 789.31
  C 938.77 789.88 936.05 789.85 933.42 789.62
  Q 924.28 788.81 915.12 785.51
  Q 907.98 782.93 899.27 778.05
  Q 868.28 760.70 840.00 745.12
  Q 839.66 744.93 839.89 744.61
  Q 840.21 744.17 840.81 743.82
  Q 924.15 696.14 1007.46 648.43
  Q 1007.57 648.36 1012.78 645.27
  Q 1017.62 642.40 1022.09 640.45
  Q 1024.54 639.38 1026.81 637.49
  Q 1028.10 636.42 1027.03 635.12
  Z
  M 944.82 546.94
  Q 944.03 554.36 942.22 562.15
  A 2.29 2.27 21.6 0 0 943.31 564.65
  Q 985.70 589.05 1027.39 613.07
  Q 1036.49 618.32 1041.53 625.91
  C 1046.11 632.83 1046.11 641.54 1040.50 647.81
  C 1036.93 651.82 1032.97 654.52 1028.07 656.87
  Q 1024.35 658.66 1020.50 660.88
  Q 949.63 701.54 875.12 744.10
  A 0.46 0.46 0.0 0 0 875.13 744.91
  Q 892.83 754.44 911.36 764.90
  C 916.76 767.96 923.29 770.28 929.31 771.54
  Q 941.52 774.09 950.95 768.06
  Q 953.73 766.28 956.73 764.60
  Q 1021.20 728.55 1082.38 694.88
  Q 1090.36 690.49 1092.75 687.70
  Q 1097.47 682.17 1097.71 673.87
  Q 1097.96 665.32 1097.50 657.73
  C 1096.71 644.41 1096.98 631.32 1096.97 618.11
  C 1096.97 615.37 1096.28 612.66 1096.28 609.90
  Q 1096.29 595.57 1096.24 580.90
  C 1096.23 578.68 1095.83 576.50 1095.80 574.31
  C 1095.62 563.68 1096.15 551.38 1095.40 540.11
  C 1094.95 533.29 1094.72 526.24 1095.31 519.35
  C 1096.13 509.70 1092.00 499.75 1084.38 493.21
  Q 1078.93 488.53 1073.18 485.83
  Q 1069.63 484.16 1066.67 482.45
  Q 965.34 423.90 848.28 356.01
  Q 847.91 355.79 847.47 355.79
  A 0.55 0.55 0.0 0 0 846.93 356.34
  Q 846.97 382.68 846.93 408.37
  Q 846.93 408.76 846.90 409.14
  Q 846.79 410.80 848.41 411.27
  Q 873.24 418.48 893.99 432.44
  Q 905.69 440.31 914.05 449.01
  Q 940.33 476.36 944.87 514.22
  Q 946.19 525.22 945.88 532.78
  Q 945.59 539.67 944.82 546.94
  Z"
/>
<path fill="#d22236" d="
  M 944.82 546.94
  Q 945.59 539.67 945.88 532.78
  Q 946.19 525.22 944.87 514.22
  Q 940.33 476.36 914.05 449.01
  Q 905.69 440.31 893.99 432.44
  Q 873.24 418.48 848.41 411.27
  Q 846.79 410.80 846.90 409.14
  Q 846.93 408.76 846.93 408.37
  Q 846.97 382.68 846.93 356.34
  A 0.55 0.55 0.0 0 1 847.47 355.79
  Q 847.91 355.79 848.28 356.01
  Q 965.34 423.90 1066.67 482.45
  Q 1069.63 484.16 1073.18 485.83
  Q 1078.93 488.53 1084.38 493.21
  C 1092.00 499.75 1096.13 509.70 1095.31 519.35
  C 1094.72 526.24 1094.95 533.29 1095.40 540.11
  C 1096.15 551.38 1095.62 563.68 1095.80 574.31
  C 1095.83 576.50 1096.23 578.68 1096.24 580.90
  Q 1096.29 595.57 1096.28 609.90
  C 1096.28 612.66 1096.97 615.37 1096.97 618.11
  C 1096.98 631.32 1096.71 644.41 1097.50 657.73
  Q 1097.96 665.32 1097.71 673.87
  Q 1097.47 682.17 1092.75 687.70
  Q 1090.36 690.49 1082.38 694.88
  Q 1021.20 728.55 956.73 764.60
  Q 953.73 766.28 950.95 768.06
  Q 941.52 774.09 929.31 771.54
  C 923.29 770.28 916.76 767.96 911.36 764.90
  Q 892.83 754.44 875.13 744.91
  A 0.46 0.46 0.0 0 1 875.12 744.10
  Q 949.63 701.54 1020.50 660.88
  Q 1024.35 658.66 1028.07 656.87
  C 1032.97 654.52 1036.93 651.82 1040.50 647.81
  C 1046.11 641.54 1046.11 632.83 1041.53 625.91
  Q 1036.49 618.32 1027.39 613.07
  Q 985.70 589.05 943.31 564.65
  A 2.29 2.27 21.6 0 1 942.22 562.15
  Q 944.03 554.36 944.82 546.94
  Z"
/>
<path fill="#d22236" d="
  M 794.95 376.45
  L 795.15 407.02
  A 1.69 1.68 84.5 0 1 793.78 408.69
  Q 791.76 409.07 789.87 409.69
  C 767.84 416.95 746.31 429.80 731.20 447.36
  Q 706.37 476.24 704.30 515.87
  Q 703.04 539.85 708.83 563.71
  A 1.90 1.90 0.0 0 1 707.93 565.81
  L 661.26 592.45
  A 0.63 0.63 0.0 0 1 660.33 592.05
  Q 660.06 590.97 660.14 589.80
  C 660.47 584.61 660.96 579.58 660.96 574.41
  Q 661.00 484.44 660.92 394.46
  L 661.05 398.67
  Q 661.07 399.27 661.57 399.62
  Q 662.37 400.17 663.59 399.78
  Q 663.97 399.67 664.37 399.74
  Q 667.23 400.25 669.49 401.49
  Q 671.71 402.71 674.07 403.27
  Q 690.94 407.26 705.97 407.17
  Q 706.45 407.17 706.83 406.89
  Q 707.69 406.25 708.54 406.95
  Q 708.88 407.22 709.30 407.11
  Q 709.50 407.06 709.68 406.94
  Q 709.99 406.72 710.37 406.74
  Q 714.69 406.98 718.85 406.40
  Q 719.27 406.34 719.97 406.40
  Q 720.66 406.45 721.17 405.94
  Q 721.53 405.59 722.03 405.53
  Q 728.88 404.78 735.18 403.47
  Q 736.74 403.14 738.35 403.01
  Q 739.99 402.87 741.66 402.40
  C 746.17 401.12 750.52 399.90 754.90 398.00
  Q 758.73 396.34 762.32 394.87
  Q 764.48 393.99 766.64 392.85
  C 768.61 391.82 770.76 391.18 772.71 390.09
  Q 776.81 387.81 781.16 385.48
  Q 783.10 384.43 784.84 382.91
  C 786.62 381.35 788.69 380.22 790.36 378.57
  Q 791.23 377.71 792.27 377.42
  Q 793.10 377.18 793.67 377.83
  Q 793.79 377.97 793.93 378.06
  Q 794.62 378.47 794.58 377.67
  Q 794.54 376.82 794.95 376.45
  Z"
/>
<path fill="#aa1f00" d="
  M 629.36 649.53
  C 630.98 648.89 632.45 649.15 634.13 648.43
  Q 638.75 646.44 642.72 644.20
  Q 690.79 616.98 736.70 590.87
  Q 737.48 590.43 738.12 591.05
  C 740.53 593.36 742.29 596.06 744.61 598.35
  C 761.99 615.51 784.57 628.43 808.17 631.45
  Q 812.42 631.99 817.81 632.01
  Q 822.98 632.04 828.25 632.00
  C 830.31 631.99 832.11 631.35 834.19 631.46
  Q 834.75 631.49 835.25 631.24
  C 836.65 630.54 838.21 630.73 839.73 630.41
  C 861.52 625.76 881.16 614.22 898.12 599.26
  Q 905.28 592.94 911.72 586.71
  A 0.27 0.27 0.0 0 1 912.05 586.67
  L 996.31 635.96
  Q 996.92 636.31 996.31 636.66
  Q 877.16 703.93 754.49 773.24
  C 746.49 777.75 738.88 783.54 730.18 786.57
  Q 706.39 794.85 686.30 782.20
  Q 681.96 779.47 677.24 776.77
  Q 618.11 742.94 559.45 710.27
  Q 547.24 703.47 543.70 699.74
  Q 535.46 691.08 533.20 680.60
  Q 532.39 676.85 532.44 673.51
  Q 532.49 669.73 532.45 666.10
  C 532.42 664.28 533.16 662.73 533.16 660.95
  Q 533.16 649.69 533.18 638.86
  C 533.18 637.78 533.74 636.80 533.74 635.72
  Q 533.71 624.19 533.80 612.90
  C 533.81 610.78 534.45 608.73 534.46 606.64
  Q 534.51 596.73 534.52 586.76
  Q 534.52 584.98 534.89 582.83
  Q 535.09 581.68 535.09 580.54
  Q 535.10 569.15 535.15 558.23
  C 535.16 556.94 535.77 555.85 535.75 554.51
  Q 535.64 546.30 535.79 537.22
  Q 535.85 533.06 536.28 528.64
  Q 536.68 524.43 536.46 519.84
  C 536.34 517.34 535.28 515.14 535.92 512.60
  C 536.50 510.27 536.30 508.07 536.94 505.85
  Q 539.71 496.22 545.08 488.91
  C 551.99 479.52 561.16 472.68 571.28 466.77
  Q 590.17 455.73 609.57 444.25
  C 613.12 442.15 616.37 439.98 620.13 437.96
  Q 624.96 435.36 629.80 432.05
  A 0.44 0.44 0.0 0 1 630.48 432.32
  Q 630.85 434.14 630.06 435.56
  Q 629.81 436.02 629.81 436.54
  Q 629.78 464.50 629.79 491.50
  C 629.79 492.32 629.26 493.46 629.26 494.51
  Q 629.27 521.85 629.25 547.73
  C 629.24 549.18 628.75 550.56 628.75 551.99
  Q 628.67 578.28 628.65 604.59
  C 628.64 606.99 627.86 609.16 627.85 611.45
  Q 627.82 624.18 627.81 637.43
  C 627.81 641.65 626.14 644.97 628.38 649.17
  A 0.78 0.78 0.0 0 0 629.36 649.53
  Z
  M 552.79 556.69
  Q 552.64 558.74 552.62 560.53
  Q 552.51 572.95 551.97 584.77
  C 551.63 592.34 551.92 599.67 551.59 606.96
  Q 551.23 614.95 551.22 623.43
  C 551.21 632.03 550.39 640.38 550.53 648.57
  Q 550.70 658.97 549.86 668.49
  Q 548.47 684.43 561.72 691.73
  Q 583.56 703.76 608.69 717.99
  Q 651.48 742.20 689.19 763.70
  Q 691.83 765.20 695.15 767.41
  C 706.94 775.26 722.00 773.26 733.63 765.67
  Q 737.65 763.05 741.53 760.85
  Q 836.70 706.86 960.85 636.91
  A 0.85 0.85 0.0 0 0 961.13 635.68
  Q 960.82 635.24 960.21 634.88
  Q 936.60 621.07 915.64 608.83
  A 2.23 2.23 0.0 0 0 913.01 609.11
  C 889.83 630.28 860.06 647.85 828.00 649.42
  C 815.45 650.03 803.41 649.19 791.25 645.67
  Q 759.74 636.54 735.31 613.11
  A 1.90 1.89 -37.9 0 0 733.06 612.83
  Q 695.25 634.40 657.16 655.91
  C 651.34 659.19 645.50 662.88 639.49 664.88
  Q 630.61 667.84 623.18 665.76
  C 612.96 662.91 608.96 650.99 610.05 641.49
  Q 610.50 637.47 610.49 633.56
  Q 610.43 620.36 610.90 608.00
  C 611.56 590.22 611.13 572.16 611.32 554.42
  C 611.37 550.63 611.83 547.05 611.83 543.17
  Q 611.84 524.84 611.85 506.50
  Q 611.86 498.26 612.35 486.54
  Q 612.81 475.43 612.54 464.37
  Q 612.53 464.12 612.60 463.87
  Q 612.70 463.47 612.39 463.19
  A 0.66 0.66 0.0 0 0 611.60 463.12
  Q 593.96 473.60 577.90 482.97
  C 571.85 486.50 566.57 490.60 561.84 495.66
  C 555.84 502.08 552.58 509.57 553.53 518.74
  C 554.21 525.25 553.06 531.93 553.22 538.51
  Q 553.45 547.89 552.79 556.69
  Z"
/>
<path fill="#ff9f00" d="
  M 913.31 528.47
  A 90.44 90.44 0.0 0 1 822.87 618.91
  A 90.44 90.44 0.0 0 1 732.43 528.47
  A 90.44 90.44 0.0 0 1 822.87 438.03
  A 90.44 90.44 0.0 0 1 913.31 528.47
  Z
  M 893.14 528.48
  A 70.26 70.26 0.0 0 0 822.88 458.22
  A 70.26 70.26 0.0 0 0 752.62 528.48
  A 70.26 70.26 0.0 0 0 822.88 598.74
  A 70.26 70.26 0.0 0 0 893.14 528.48
  Z"
/>
<circle fill="#ffd557" cx="822.88" cy="528.48" r="70.26"/>
<path fill="#d22236" d="
  M 552.79 556.69
  Q 553.45 547.89 553.22 538.51
  C 553.06 531.93 554.21 525.25 553.53 518.74
  C 552.58 509.57 555.84 502.08 561.84 495.66
  C 566.57 490.60 571.85 486.50 577.90 482.97
  Q 593.96 473.60 611.60 463.12
  A 0.66 0.66 0.0 0 1 612.39 463.19
  Q 612.70 463.47 612.60 463.87
  Q 612.53 464.12 612.54 464.37
  Q 612.81 475.43 612.35 486.54
  Q 611.86 498.26 611.85 506.50
  Q 611.84 524.84 611.83 543.17
  C 611.83 547.05 611.37 550.63 611.32 554.42
  C 611.13 572.16 611.56 590.22 610.90 608.00
  Q 610.43 620.36 610.49 633.56
  Q 610.50 637.47 610.05 641.49
  C 608.96 650.99 612.96 662.91 623.18 665.76
  Q 630.61 667.84 639.49 664.88
  C 645.50 662.88 651.34 659.19 657.16 655.91
  Q 695.25 634.40 733.06 612.83
  A 1.90 1.89 -37.9 0 1 735.31 613.11
  Q 759.74 636.54 791.25 645.67
  C 803.41 649.19 815.45 650.03 828.00 649.42
  C 860.06 647.85 889.83 630.28 913.01 609.11
  A 2.23 2.23 0.0 0 1 915.64 608.83
  Q 936.60 621.07 960.21 634.88
  Q 960.82 635.24 961.13 635.68
  A 0.85 0.85 0.0 0 1 960.85 636.91
  Q 836.70 706.86 741.53 760.85
  Q 737.65 763.05 733.63 765.67
  C 722.00 773.26 706.94 775.26 695.15 767.41
  Q 691.83 765.20 689.19 763.70
  Q 651.48 742.20 608.69 717.99
  Q 583.56 703.76 561.72 691.73
  Q 548.47 684.43 549.86 668.49
  Q 550.70 658.97 550.53 648.57
  C 550.39 640.38 551.21 632.03 551.22 623.43
  Q 551.23 614.95 551.59 606.96
  C 551.92 599.67 551.63 592.34 551.97 584.77
  Q 552.51 572.95 552.62 560.53
  Q 552.64 558.74 552.79 556.69
  Z"
/>
<path fill="#615d5c" d="
  M 595.26 925.53
  Q 605.70 925.43 616.51 925.55
  C 624.12 925.64 630.72 924.59 633.80 917.76
  Q 635.09 914.90 635.08 911.17
  Q 634.97 875.14 635.05 840.88
  Q 635.06 836.88 635.81 832.74
  C 637.36 824.10 644.39 817.70 652.65 815.67
  Q 659.33 814.02 666.89 814.33
  Q 667.33 814.35 667.33 814.79
  Q 667.44 862.83 667.31 911.59
  C 667.29 916.84 669.44 921.11 674.12 923.72
  Q 677.47 925.58 685.16 925.59
  Q 691.95 925.59 697.66 925.35
  C 703.52 925.10 704.50 919.79 704.51 915.12
  Q 704.54 905.77 704.40 896.24
  Q 704.30 889.07 705.87 884.51
  Q 709.51 873.97 719.75 868.62
  C 723.18 866.83 727.95 865.53 731.96 865.52
  Q 756.02 865.49 776.68 865.56
  Q 788.46 865.59 796.54 873.75
  C 802.16 879.43 804.90 885.91 804.88 894.13
  Q 804.84 908.18 804.85 921.13
  Q 804.85 924.56 803.59 928.07
  Q 798.76 941.50 785.23 946.17
  Q 780.54 947.79 773.34 947.81
  Q 760.19 947.86 750.69 947.62
  Q 744.66 947.46 738.39 944.87
  C 735.53 943.69 733.46 941.42 730.95 939.72
  A 1.07 1.06 37.5 0 0 729.56 939.89
  Q 722.77 947.56 711.99 947.64
  Q 691.91 947.77 671.80 947.73
  C 669.35 947.73 667.03 947.27 664.64 946.84
  Q 657.27 945.52 651.61 940.57
  A 1.69 1.68 46.1 0 0 649.46 940.52
  C 642.29 946.25 635.17 947.81 626.01 947.80
  Q 612.46 947.78 603.84 947.64
  Q 594.41 947.47 584.67 940.40
  Q 584.26 940.11 583.80 940.31
  C 582.12 941.04 580.88 942.39 579.29 943.29
  Q 571.44 947.73 562.75 947.72
  Q 510.59 947.68 449.97 947.74
  C 446.69 947.75 442.15 946.88 439.18 945.47
  Q 426.78 939.58 422.90 927.77
  Q 421.40 923.18 421.42 916.59
  Q 421.52 892.10 421.48 866.14
  Q 421.48 865.49 422.13 865.47
  C 433.86 865.06 447.42 869.76 451.85 881.29
  Q 453.25 884.96 453.18 890.37
  Q 453.07 898.52 453.12 907.69
  Q 453.13 909.53 453.46 911.31
  C 453.77 912.97 453.69 914.60 454.25 916.21
  Q 456.28 922.01 461.76 924.26
  Q 464.62 925.44 471.97 925.46
  Q 531.77 925.64 551.26 925.45
  Q 559.96 925.37 563.79 917.98
  Q 565.13 915.39 565.06 911.41
  Q 564.81 898.07 566.03 885.13
  C 567.17 872.95 578.67 865.77 590.10 865.55
  Q 593.26 865.49 596.66 865.50
  Q 597.30 865.50 597.30 866.15
  Q 597.21 887.05 597.34 906.74
  C 597.39 912.99 596.37 918.59 594.50 924.50
  Q 594.17 925.54 595.26 925.53
  Z
  M 766.31 925.52
  C 770.09 925.53 773.93 923.62 773.89 919.22
  Q 773.79 905.98 773.87 891.74
  C 773.89 888.20 771.02 886.35 767.76 886.37
  Q 753.55 886.46 741.00 886.44
  C 737.24 886.43 735.96 888.47 735.19 891.78
  Q 734.78 893.52 734.77 895.18
  Q 734.74 910.77 734.76 925.19
  Q 734.76 925.51 735.08 925.51
  Q 751.27 925.48 766.31 925.52
  Z"
/>
<path fill="#615d5c" d="
  M 1025.50 939.76
  C 1019.09 945.84 1010.75 947.83 1001.84 947.80
  Q 951.54 947.60 900.57 947.80
  Q 891.21 947.83 886.04 946.11
  C 874.67 942.33 866.83 931.71 866.83 919.68
  Q 866.81 893.30 866.81 866.03
  Q 866.81 865.55 867.28 865.53
  C 882.17 864.76 898.78 873.00 898.58 890.31
  Q 898.47 899.60 898.46 908.41
  C 898.46 915.61 900.50 921.99 907.44 924.47
  Q 910.40 925.53 913.73 925.52
  Q 955.24 925.46 993.65 925.56
  C 1002.00 925.58 1009.34 922.53 1010.44 913.17
  C 1010.63 911.59 1011.01 910.11 1011.01 908.50
  Q 1010.98 871.29 1011.07 834.19
  Q 1011.08 829.64 1014.21 825.24
  C 1020.56 816.36 1031.73 813.55 1042.37 814.36
  A 0.34 0.34 0.0 0 1 1042.68 814.70
  Q 1042.75 857.77 1042.66 909.43
  C 1042.65 919.30 1046.93 925.27 1057.78 925.45
  Q 1067.85 925.62 1077.41 925.43
  C 1083.39 925.32 1085.16 920.94 1085.17 915.80
  Q 1085.20 902.32 1085.18 887.22
  Q 1085.18 881.94 1087.92 877.01
  Q 1090.02 873.23 1094.55 870.24
  Q 1101.28 865.80 1109.35 865.54
  Q 1112.75 865.44 1116.14 865.52
  Q 1116.79 865.54 1116.79 866.19
  Q 1116.74 892.27 1116.85 918.63
  Q 1116.87 923.72 1115.63 927.56
  Q 1113.97 932.69 1111.20 935.99
  C 1108.50 939.23 1105.18 942.65 1101.24 944.54
  Q 1094.67 947.70 1088.01 947.72
  Q 1067.23 947.80 1046.48 947.70
  Q 1044.55 947.69 1042.53 947.33
  C 1036.11 946.18 1031.12 944.65 1026.41 939.78
  Q 1025.96 939.32 1025.50 939.76
  Z"
/>
<path fill="#615d5c" d="
  M 1216.40 923.15
  Q 1217.83 918.82 1217.87 914.78
  Q 1218.00 902.80 1217.79 890.34
  Q 1217.68 883.62 1219.05 880.15
  C 1223.67 868.42 1236.92 864.29 1248.77 865.74
  Q 1249.47 865.82 1249.47 866.53
  Q 1249.64 895.83 1249.45 919.51
  Q 1249.41 924.74 1246.76 931.08
  C 1243.75 938.29 1236.52 944.26 1228.88 946.50
  Q 1223.96 947.95 1216.17 947.83
  Q 1196.22 947.52 1175.15 947.84
  Q 1168.10 947.94 1163.12 946.33
  C 1153.75 943.31 1146.57 935.59 1144.04 925.91
  Q 1142.98 921.85 1143.00 916.15
  Q 1143.17 868.44 1143.06 814.85
  Q 1143.06 814.27 1143.63 814.26
  C 1156.16 813.90 1167.90 816.86 1173.70 829.09
  C 1174.67 831.14 1175.32 836.74 1175.33 839.71
  Q 1175.52 877.70 1175.35 912.43
  C 1175.33 917.57 1179.06 923.16 1184.10 924.35
  C 1186.07 924.81 1187.92 925.47 1189.98 925.48
  Q 1200.27 925.53 1210.50 925.46
  Q 1211.79 925.45 1215.73 923.86
  Q 1216.23 923.66 1216.40 923.15
  Z"
/>
<rect fill="#615d5c" x="-14.52" y="-14.47" transform="translate(1079.14,841.31) rotate(-44.9)" width="29.04" height="28.94" rx="3.99"/>
<path fill="#615d5c" d="
  M 509.09 849.13
  Q 510.60 850.68 512.15 849.18
  Q 518.61 842.93 524.46 836.95
  Q 525.43 835.96 526.80 835.31
  A 1.10 1.07 44.3 0 1 527.71 835.31
  Q 530.06 836.41 531.80 838.12
  Q 538.35 844.58 545.19 851.63
  A 3.63 3.63 0.0 0 1 545.16 856.72
  L 529.95 871.94
  A 3.81 3.80 44.9 0 1 524.56 871.94
  L 511.55 858.92
  A 1.12 1.12 0.0 0 0 509.95 858.92
  L 496.92 871.95
  A 3.80 3.80 0.0 0 1 491.54 871.95
  Q 483.91 864.29 476.72 857.24
  Q 473.80 854.38 476.80 851.17
  Q 483.35 844.14 489.97 837.95
  C 492.08 835.97 494.43 834.33 497.03 836.93
  Q 503.27 843.14 509.09 849.13
  Z"
/>
<path fill="#615d5c" d="
  M 960.23 852.79
  C 962.80 852.88 965.52 852.17 967.86 853.48
  C 971.96 855.78 971.98 859.33 970.55 863.27
  Q 967.71 871.06 964.77 874.93
  Q 962.05 878.51 955.84 878.84
  Q 950.15 879.14 943.85 879.02
  Q 943.29 879.01 943.54 878.51
  L 949.89 865.83
  A 0.70 0.69 13.4 0 0 949.27 864.83
  C 945.32 864.80 940.96 865.98 938.63 861.85
  Q 937.21 859.34 938.16 856.39
  Q 939.90 850.99 942.72 845.81
  C 945.27 841.11 949.37 838.97 954.85 839.18
  Q 960.64 839.40 965.59 839.19
  A 0.23 0.23 0.0 0 1 965.80 839.52
  L 959.61 851.74
  A 0.72 0.72 0.0 0 0 960.23 852.79
  Z"
/>
<rect fill="#615d5c" x="-14.47" y="-14.30" transform="translate(1197.20,976.15) rotate(-44.9)" width="28.94" height="28.60" rx="3.43"/>
<path fill="#615d5c" d="
  M 529.28 1013.90
  C 530.51 1013.32 531.09 1011.97 532.29 1011.26
  Q 534.18 1010.15 535.99 1009.91
  Q 547.78 1008.38 558.25 1009.20
  Q 562.15 1009.51 566.64 1011.36
  Q 572.03 1013.57 573.48 1020.61
  C 574.84 1027.29 575.16 1036.48 573.18 1043.34
  C 571.12 1050.45 564.25 1053.42 557.30 1053.47
  Q 542.56 1053.58 528.57 1053.47
  C 518.59 1053.38 511.70 1047.58 511.71 1037.32
  Q 511.76 1008.66 511.75 982.62
  Q 511.75 982.14 512.23 982.10
  Q 516.06 981.73 519.38 982.73
  C 523.52 983.99 527.63 987.69 527.98 992.28
  C 528.11 993.89 528.57 995.27 528.57 996.93
  Q 528.55 1005.29 528.59 1013.46
  Q 528.60 1014.21 529.28 1013.90
  Z
  M 555.36 1041.60
  Q 557.39 1041.02 557.43 1039.01
  Q 557.57 1031.92 557.54 1024.30
  Q 557.53 1020.53 553.75 1020.52
  L 529.15 1020.51
  Q 528.57 1020.51 528.56 1021.10
  L 528.56 1039.22
  A 2.75 2.75 0.0 0 0 531.28 1041.97
  Q 542.12 1042.10 552.13 1042.06
  Q 553.80 1042.05 555.36 1041.60
  Z"
/>
<path fill="#615d5c" d="
  M 741.40 1025.28
  C 745.88 1025.10 750.68 1026.01 754.89 1023.99
  C 761.28 1020.93 764.12 1015.73 767.23 1009.49
  Q 767.46 1009.03 767.97 1009.03
  L 781.31 1009.04
  A 0.43 0.42 5.5 0 1 781.73 1009.54
  Q 779.81 1019.62 770.73 1026.00
  A 0.85 0.85 0.0 0 0 770.84 1027.46
  C 778.62 1031.31 781.68 1037.90 781.29 1046.16
  Q 781.13 1049.53 781.33 1052.84
  A 0.65 0.64 88.7 0 1 780.69 1053.52
  L 765.31 1053.51
  A 0.33 0.33 0.0 0 1 764.98 1053.16
  Q 765.35 1046.11 764.94 1040.17
  A 3.68 3.68 0.0 0 0 761.28 1036.75
  L 741.31 1036.71
  Q 740.82 1036.70 740.82 1037.19
  L 740.83 1052.97
  Q 740.83 1053.52 740.28 1053.52
  L 724.74 1053.51
  Q 723.97 1053.51 723.97 1052.74
  L 723.99 982.69
  Q 723.99 982.11 724.56 982.06
  Q 730.97 981.52 736.37 984.96
  C 739.39 986.90 740.72 991.10 740.75 994.40
  Q 740.87 1007.04 740.78 1024.68
  Q 740.78 1025.30 741.40 1025.28
  Z"
/>
<path fill="#615d5c" d="
  M 1001.52 982.09
  C 1007.35 981.59 1013.91 983.63 1016.10 989.17
  Q 1017.00 991.47 1017.04 994.86
  Q 1017.38 1021.72 1017.06 1052.51
  Q 1017.06 1052.88 1016.69 1052.87
  L 1000.82 1052.84
  Q 1000.26 1052.84 1000.25 1052.27
  C 1000.13 1045.86 1000.74 1039.56 1000.76 1033.32
  Q 1000.83 1008.89 1000.97 982.69
  Q 1000.97 982.14 1001.52 982.09
  Z"
/>
<path fill="#615d5c" d="
  M 1031.91 982.02
  C 1038.95 981.73 1045.37 984.61 1046.65 992.12
  Q 1047.60 997.68 1047.51 1004.78
  Q 1047.24 1028.56 1047.43 1052.01
  Q 1047.44 1052.82 1046.62 1052.82
  L 1032.76 1052.78
  Q 1030.52 1052.77 1030.52 1050.53
  Q 1030.52 1027.62 1030.37 1005.25
  Q 1030.31 994.47 1031.36 982.55
  Q 1031.40 982.04 1031.91 982.02
  Z"
/>
<path fill="#615d5c" d="
  M 1152.49 1021.14
  L 1152.52 1040.19
  A 0.95 0.95 0.0 0 0 1153.11 1041.07
  Q 1156.24 1042.34 1159.26 1042.05
  Q 1159.97 1041.98 1159.97 1042.69
  L 1159.97 1052.81
  Q 1159.97 1053.39 1159.39 1053.44
  C 1146.84 1054.52 1135.26 1051.33 1135.65 1036.20
  Q 1135.85 1028.50 1135.68 1021.10
  A 0.62 0.61 -0.5 0 0 1135.06 1020.50
  L 1128.75 1020.51
  Q 1128.25 1020.51 1128.25 1020.00
  L 1128.24 1009.62
  A 0.63 0.62 0.5 0 1 1128.88 1009.00
  L 1135.08 1009.08
  Q 1135.74 1009.09 1135.74 1008.43
  L 1135.72 994.70
  Q 1135.72 994.07 1136.35 994.13
  Q 1140.42 994.56 1143.83 995.55
  Q 1149.00 997.06 1151.15 1002.04
  C 1152.01 1004.04 1152.21 1006.53 1152.67 1008.68
  Q 1152.77 1009.16 1153.26 1009.15
  L 1159.21 1008.96
  A 0.76 0.75 -0.7 0 1 1159.99 1009.71
  L 1159.99 1019.87
  Q 1159.99 1020.49 1159.38 1020.49
  L 1153.11 1020.52
  Q 1152.49 1020.53 1152.49 1021.14
  Z"
/>
<path fill="#615d5c" d="
  M 629.72 1048.41
  Q 628.69 1049.44 627.68 1050.49
  C 625.54 1052.73 619.94 1053.40 617.33 1053.46
  Q 605.52 1053.75 597.86 1053.31
  C 590.78 1052.90 583.98 1048.64 583.37 1041.01
  C 582.82 1034.25 581.83 1026.89 583.27 1020.25
  C 584.92 1012.66 592.08 1009.35 599.37 1009.18
  Q 613.46 1008.84 628.50 1009.08
  C 635.54 1009.19 643.73 1013.11 644.52 1021.18
  C 644.69 1022.93 645.15 1024.50 645.15 1026.29
  Q 645.18 1039.36 645.16 1052.90
  Q 645.16 1053.53 644.52 1053.55
  Q 639.79 1053.64 634.77 1051.60
  C 633.11 1050.93 632.20 1049.75 631.08 1048.47
  A 0.94 0.94 0.0 0 0 629.72 1048.41
  Z
  M 628.31 1041.66
  Q 628.92 1040.26 628.95 1038.74
  Q 629.11 1031.99 628.90 1026.28
  C 628.81 1023.75 627.98 1020.47 624.68 1020.49
  Q 613.61 1020.53 603.14 1020.51
  A 3.95 3.94 -0.2 0 0 599.18 1024.49
  L 599.33 1038.72
  A 3.38 3.38 0.0 0 0 602.72 1042.07
  L 627.71 1042.05
  Q 628.14 1042.05 628.31 1041.66
  Z"
/>
<path fill="#615d5c" d="
  M 671.43 1021.17
  L 671.42 1052.42
  A 0.44 0.44 0.0 0 1 670.98 1052.86
  L 655.70 1052.90
  A 0.45 0.45 0.0 0 1 655.25 1052.45
  L 655.25 1009.70
  A 0.77 0.77 0.0 0 1 656.20 1008.95
  C 661.00 1010.14 664.34 1010.43 668.20 1013.96
  A 1.58 1.57 -50.7 0 0 670.54 1013.72
  Q 671.93 1011.77 673.88 1010.89
  C 676.95 1009.51 680.85 1009.10 684.31 1009.05
  Q 691.66 1008.96 698.24 1009.14
  C 705.76 1009.35 713.26 1014.48 713.25 1022.71
  Q 713.24 1037.28 713.23 1052.64
  A 0.25 0.25 0.0 0 1 712.98 1052.89
  L 697.54 1052.82
  A 0.53 0.53 0.0 0 1 697.01 1052.29
  L 697.01 1023.52
  A 3.00 2.99 -90.0 0 0 694.02 1020.52
  L 672.08 1020.51
  Q 671.43 1020.51 671.43 1021.17
  Z"
/>
<path fill="#615d5c" d="
  M 839.87 1021.07
  L 839.89 1052.49
  A 0.38 0.38 0.0 0 1 839.51 1052.87
  L 824.31 1052.90
  Q 823.72 1052.90 823.72 1052.31
  L 823.73 1010.29
  Q 823.73 1009.58 824.44 1009.65
  Q 826.49 1009.85 828.54 1009.70
  C 831.93 1009.45 834.76 1011.26 836.81 1013.79
  A 1.62 1.61 -43.3 0 0 839.26 1013.86
  Q 843.11 1009.63 849.21 1009.17
  Q 855.40 1008.72 860.02 1009.28
  Q 862.35 1009.57 864.57 1009.66
  C 867.70 1009.79 870.40 1011.15 872.63 1013.17
  A 2.64 2.64 0.0 0 0 876.21 1013.15
  Q 880.05 1009.57 885.48 1009.23
  Q 892.86 1008.77 899.61 1009.21
  C 908.24 1009.77 915.46 1014.98 915.36 1024.20
  Q 915.19 1038.52 915.32 1052.30
  Q 915.32 1052.83 914.79 1052.83
  L 899.75 1052.87
  A 0.55 0.54 -0.0 0 1 899.20 1052.33
  Q 899.23 1039.75 899.19 1028.29
  C 899.18 1026.29 898.87 1024.34 898.40 1022.42
  A 2.47 2.47 0.0 0 0 896.00 1020.54
  L 878.17 1020.50
  Q 877.59 1020.50 877.59 1021.08
  L 877.57 1052.98
  Q 877.57 1053.53 877.02 1053.53
  L 862.24 1053.50
  Q 861.49 1053.50 861.49 1052.74
  L 861.46 1024.49
  A 3.97 3.97 0.0 0 0 857.49 1020.52
  L 840.43 1020.51
  Q 839.87 1020.51 839.87 1021.07
  Z"
/>
<path fill="#615d5c" d="
  M 942.97 1032.27
  L 943.01 1038.70
  A 3.34 3.33 0.2 0 0 946.32 1042.02
  Q 959.98 1042.17 973.46 1042.04
  C 980.58 1041.97 987.19 1045.36 988.21 1052.74
  A 0.68 0.67 -3.7 0 1 987.54 1053.50
  Q 964.48 1053.52 945.02 1053.48
  Q 939.54 1053.46 934.01 1051.28
  C 928.71 1049.19 926.52 1043.64 926.75 1037.92
  Q 927.02 1031.21 926.76 1024.81
  C 926.32 1013.61 934.26 1009.17 944.33 1009.07
  Q 961.95 1008.89 974.11 1009.21
  C 983.72 1009.45 989.63 1015.46 989.94 1024.79
  C 990.09 1029.34 986.62 1034.74 981.48 1034.75
  Q 964.77 1034.77 951.39 1034.66
  Q 947.17 1034.62 944.33 1031.72
  Q 942.96 1030.32 942.97 1032.27
  Z
  M 944.22 1028.02
  L 972.04 1027.88
  A 1.27 1.27 0.0 0 0 973.30 1026.60
  L 973.29 1023.93
  A 3.50 3.50 0.0 0 0 969.77 1020.45
  L 946.41 1020.57
  A 3.50 3.50 0.0 0 0 942.93 1024.09
  L 942.94 1026.76
  A 1.27 1.27 0.0 0 0 944.22 1028.02
  Z"
/>
<path fill="#615d5c" d="
  M 1106.29 1048.99
  C 1102.94 1052.37 1097.65 1053.44 1092.86 1053.49
  Q 1083.67 1053.58 1076.13 1053.44
  C 1066.71 1053.27 1059.33 1047.79 1059.43 1038.05
  Q 1059.52 1029.16 1059.57 1022.10
  C 1059.63 1014.22 1068.25 1009.30 1075.53 1009.17
  Q 1089.29 1008.92 1103.81 1009.08
  C 1105.93 1009.10 1107.98 1009.44 1110.01 1009.95
  Q 1121.50 1012.89 1121.50 1025.57
  Q 1121.51 1039.73 1121.51 1052.92
  Q 1121.51 1053.49 1120.94 1053.52
  Q 1113.45 1053.86 1107.65 1048.93
  A 0.99 0.99 0.0 0 0 1106.29 1048.99
  Z
  M 1105.38 1041.23
  Q 1105.46 1032.29 1105.24 1025.52
  Q 1105.08 1020.45 1100.66 1020.48
  Q 1089.98 1020.54 1079.38 1020.49
  A 3.65 3.65 0.0 0 0 1075.72 1024.14
  L 1075.72 1038.38
  A 3.66 3.66 0.0 0 0 1079.38 1042.04
  L 1104.52 1042.08
  Q 1105.37 1042.08 1105.38 1041.23
  Z"
/>
</svg>
