<?xml version="1.0" encoding="UTF-8" standalone="no"?>
<svg xmlns="http://www.w3.org/2000/svg" version="1.1" viewBox="0.00 0.00 1080.00 1080.00">
  <g stroke-width="2.00" fill="none" stroke-linecap="butt">
    <path stroke="#656566" vector-effect="non-scaling-stroke" d="   M 571.60 187.98   Q 578.25 179.40 589.25 167.00   Q 598.97 156.04 608.27 141.31   Q 613.19 133.52 615.85 125.38   C 617.85 119.27 618.50 110.74 614.66 105.18   C 610.56 99.22 604.47 96.57 597.54 94.42   Q 584.44 90.36 571.82 94.37   C 563.53 97.00 554.00 102.30 551.70 110.81   C 550.34 115.89 550.33 121.48 551.01 126.70   Q 552.94 141.66 557.31 156.56   Q 562.16 173.13 566.81 190.67   Q 566.96 191.21 567.42 191.52   Q 568.09 191.97 568.03 192.38"></path>
    <path stroke="#656566" vector-effect="non-scaling-stroke" d="   M 502.01 192.77   L 503.16 191.25   Q 503.45 190.87 503.55 190.41   Q 504.59 185.79 506.35 179.94   Q 507.84 174.99 509.17 170.49   Q 513.20 156.81 515.91 144.52   Q 517.02 139.49 517.80 134.43   C 519.17 125.57 519.52 119.79 518.18 111.61   Q 517.37 106.68 514.58 103.34   Q 510.89 98.90 506.38 97.09   Q 485.55 88.70 465.34 96.88   Q 460.16 98.98 455.95 104.32   C 451.36 110.16 451.88 119.56 454.10 126.36   Q 455.43 130.41 457.33 134.19   C 463.43 146.28 471.98 157.50 481.12 167.80   Q 490.64 178.52 499.41 189.91"></path>
    <path stroke="#656566" vector-effect="non-scaling-stroke" d="   M 407.07 197.21   Q 407.50 196.47 408.08 195.79   Q 408.69 195.07 408.92 194.32   Q 414.09 177.34 417.40 159.27   C 419.14 149.77 420.23 138.35 417.05 129.24   C 412.07 114.93 400.34 109.80 386.00 110.24   Q 380.96 110.40 374.04 112.10   Q 358.67 115.88 349.44 126.48   C 342.15 134.86 342.47 146.17 349.95 154.23   Q 355.91 160.65 366.08 166.87   Q 374.70 172.13 383.33 177.62   Q 393.89 184.35 402.47 192.28   Q 403.30 193.04 404.68 195.03"></path>
    <path stroke="#656566" vector-effect="non-scaling-stroke" d="   M 666.31 194.11   Q 673.69 185.49 683.72 179.25   Q 696.23 171.47 708.74 163.73   Q 715.94 159.27 720.91 154.18   Q 729.29 145.59 724.65 134.07   C 723.92 132.25 723.40 130.55 722.32 128.94   Q 715.90 119.40 705.38 115.10   Q 689.47 108.61 672.22 112.09   Q 654.56 115.65 651.27 133.61   Q 651.16 134.20 651.08 134.78   Q 650.13 141.69 650.99 149.92   C 652.51 164.47 656.51 178.56 660.99 192.52   C 661.37 193.71 661.28 195.13 662.25 196.01   Q 662.68 196.40 662.13 196.57   Q 661.93 196.64 661.55 196.60"></path>
    <path stroke="#c7a387" vector-effect="non-scaling-stroke" d="   M 443.91 134.27   Q 439.13 125.62 436.45 116.06   Q 436.29 115.46 435.73 115.73   Q 434.72 116.21 434.89 117.40   Q 434.97 117.99 434.62 118.47   Q 433.89 119.48 433.86 120.23   Q 433.19 135.65 431.20 151.57   Q 431.13 152.11 431.07 152.65   Q 430.61 156.79 430.20 161.04   C 429.70 166.30 428.66 171.44 427.88 176.70   Q 427.31 180.55 426.59 183.96   Q 425.36 189.86 424.09 195.75   Q 423.39 198.96 420.14 207.92"></path>
    <path stroke="#a38976" vector-effect="non-scaling-stroke" d="   M 496.21 204.39   L 498.18 208.04   Q 498.42 208.49 498.29 208.99   Q 497.26 213.02 496.64 214.87   Q 488.15 240.14 476.55 264.38"></path>
    <path stroke="#c7a387" vector-effect="non-scaling-stroke" d="   M 649.29 208.37   Q 648.70 207.72 649.03 206.67   Q 649.18 206.19 649.06 205.69   Q 648.74 204.39 648.14 203.18   Q 647.59 202.06 647.23 200.81   Q 640.44 176.75 638.32 156.27   Q 638.15 154.60 637.87 152.89   Q 637.60 151.19 637.49 149.62   Q 637.21 145.22 636.66 140.76   C 636.33 138.04 636.48 135.45 636.08 132.77   C 635.33 127.66 635.38 122.36 635.30 117.24   A 0.96 0.96 0.0 0 0 633.79 116.47   Q 632.36 117.46 631.92 119.10   Q 629.61 127.60 625.08 135.06"></path>
    <path stroke="#baaea4" vector-effect="non-scaling-stroke" d="   M 557.20 359.94   L 557.13 359.55   A 0.44 0.44 0.0 0 1 557.59 359.03   Q 558.43 359.09 558.23 358.75"></path>
    <path stroke="#656566" vector-effect="non-scaling-stroke" d="   M 558.23 358.75   C 559.87 357.88 559.65 356.17 560.28 354.51   Q 573.66 319.46 588.81 288.34   C 589.62 286.66 590.69 285.34 589.71 283.40   Q 580.31 264.87 572.73 246.75   C 572.36 245.87 572.34 244.93 571.85 244.10   Q 571.40 243.35 571.06 242.51   Q 566.94 232.41 563.50 222.79   Q 546.10 174.05 536.08 122.55   Q 535.83 121.24 534.72 120.44   A 0.53 0.53 0.0 0 0 533.88 120.95   Q 534.05 122.05 533.85 123.07   Q 529.76 144.66 522.01 173.72   Q 519.32 183.85 516.46 193.05   Q 510.65 211.81 505.63 225.78   Q 499.75 242.13 494.36 253.99   Q 489.59 264.50 480.55 281.83   Q 479.33 284.16 479.99 285.44   Q 493.21 311.14 501.71 332.79   Q 506.55 345.12 511.21 358.16   A 1.18 1.18 0.0 0 0 513.30 358.41   C 514.25 356.96 515.11 355.49 516.48 354.34   C 523.21 348.69 530.95 348.22 539.37 348.95"></path>
    <path stroke="#baaea4" vector-effect="non-scaling-stroke" d="   M 539.37 348.95   Q 533.35 348.33 529.05 349.93"></path>
    <path stroke="#8a7f78" vector-effect="non-scaling-stroke" d="   M 558.23 358.75   Q 557.41 359.06 557.13 358.63   Q 554.43 354.59 550.56 352.44   Q 545.22 349.47 539.37 348.95"></path>
    <path stroke="#656566" vector-effect="non-scaling-stroke" d="   M 425.23 233.02   Q 418.58 226.64 412.14 220.13   Q 404.20 212.10 398.57 207.10   Q 382.51 192.84 362.78 180.27   Q 345.17 169.04 329.05 163.21   Q 318.42 159.37 305.78 155.99   Q 295.09 153.14 283.94 151.58   A 0.42 0.41 -73.6 0 0 283.51 151.82   Q 283.18 152.51 283.57 153.24   Q 283.89 153.85 284.47 154.19   Q 287.72 156.06 290.99 158.53   Q 309.42 172.41 323.69 190.55   Q 351.19 225.48 367.25 266.96   Q 372.61 280.80 375.92 295.27   Q 379.33 310.20 381.57 325.34   Q 381.57 325.37 383.79 344.58   Q 386.57 368.53 393.81 391.57   Q 394.24 392.93 396.32 398.37   Q 397.60 401.73 398.51 405.28"></path>
    <path stroke="#656566" vector-effect="non-scaling-stroke" d="   M 427.28 235.24   Q 432.37 241.99 437.82 248.34   Q 444.49 256.10 448.46 261.32   C 453.61 268.11 459.14 274.83 463.93 282.14   C 477.19 302.41 486.81 325.32 493.59 348.51   Q 493.72 348.97 494.04 349.32   Q 494.79 350.17 494.59 351.39   A 0.99 0.99 0.0 0 1 493.25 352.15   Q 484.41 348.64 475.43 347.77   C 462.24 346.49 448.30 352.29 441.19 363.66   Q 439.83 365.84 438.14 367.86   A 1.36 1.35 -51.2 0 1 436.27 368.07   Q 424.13 358.70 410.07 350.13   Q 408.53 349.19 406.93 348.34   A 1.90 1.89 17.2 0 0 404.16 349.80   Q 402.52 364.09 401.61 379.25   Q 400.89 391.32 403.03 407.68"></path>
    <path stroke="#656566" vector-effect="non-scaling-stroke" d="   M 403.74 409.91   Q 401.50 411.00 402.03 413.24"></path>
    <path stroke="#656566" vector-effect="non-scaling-stroke" d="   M 670.18 409.70   Q 670.07 409.58 670.02 409.42   Q 669.98 409.27 670.05 409.10   C 672.08 404.30 674.27 399.27 675.75 394.19   Q 681.71 373.73 683.84 359.14   Q 686.90 338.17 689.65 319.74   Q 692.48 300.80 698.72 281.42   Q 704.65 263.02 711.86 247.07   Q 724.80 218.42 744.41 193.38   C 756.32 178.18 771.05 163.69 786.93 152.95   Q 787.60 152.50 787.41 151.74   A 0.75 0.75 0.0 0 0 786.56 151.17   Q 776.58 152.74 767.03 154.96   Q 734.80 162.45 706.39 180.15   C 700.43 183.86 693.38 188.48 687.25 193.35   Q 684.74 195.35 681.80 197.52   Q 679.19 199.45 671.94 205.83   C 664.33 212.53 655.42 221.44 650.06 227.32   Q 634.76 244.09 618.97 264.52   Q 589.83 302.24 576.62 347.08   C 576.18 348.59 575.09 350.06 575.20 351.58   Q 575.32 353.18 576.81 352.59   C 585.44 349.16 596.36 346.69 605.27 348.34   Q 617.04 350.52 625.05 359.28   Q 628.44 363.00 631.30 367.43   A 1.73 1.73 0.0 0 0 633.83 367.86   Q 647.17 357.47 663.29 348.28   A 1.54 1.53 66.1 0 1 665.51 349.14   Q 666.04 350.73 666.22 352.45   Q 667.32 363.03 668.13 372.62   Q 668.52 377.19 668.54 381.86   C 668.58 387.95 668.90 394.09 668.06 400.16   Q 667.43 404.74 667.34 408.76   A 1.92 1.91 62.2 0 1 667.03 409.77   Q 666.25 410.99 666.84 412.47   Q 667.37 413.79 666.82 414.12"></path>
    <path stroke="#656566" vector-effect="non-scaling-stroke" d="   M 666.86 400.96   L 666.90 400.29"></path>
    <path stroke="#656566" vector-effect="non-scaling-stroke" d="   M 669.79 410.96   Q 669.77 410.79 669.71 410.66   Q 669.54 410.34 669.28 410.59   Q 667.99 411.84 668.84 412.05"></path>
    <path stroke="#c7a387" vector-effect="non-scaling-stroke" d="   M 803.38 237.08   Q 808.02 248.66 809.81 260.56   Q 810.89 267.69 810.88 280.35   Q 810.84 456.46 810.90 632.26   C 810.90 633.77 811.11 635.15 811.11 636.75   Q 811.16 688.76 811.07 728.97   A 1.87 1.87 0.0 0 1 809.20 730.84   L 543.57 730.80   A 1.00 0.99 90.0 0 1 542.58 729.80   Q 542.83 660.70 542.48 591.72   C 542.32 559.25 542.33 527.26 543.04 493.90   C 543.07 492.71 543.60 491.58 543.57 490.43   C 543.44 484.75 544.53 478.96 544.46 473.40   Q 544.41 469.86 545.00 466.20   C 545.49 463.09 545.49 460.40 545.99 457.44   Q 546.51 454.29 546.63 450.57   C 546.69 448.91 547.46 447.04 547.65 445.17   Q 550.34 417.95 557.24 391.48   C 557.70 389.74 558.77 387.05 559.40 384.75   Q 560.30 381.46 564.99 370.35   Q 565.24 369.75 565.69 369.23   Q 565.99 368.87 566.12 368.42   Q 566.30 367.73 566.24 367.00"></path>
    <path stroke="#c7a387" vector-effect="non-scaling-stroke" d="   M 567.83 364.02   L 569.18 362.23   A 0.80 0.80 0.0 0 1 569.99 361.93   Q 571.07 362.18 572.23 363.33"></path>
    <path stroke="#c7a387" vector-effect="non-scaling-stroke" d="   M 574.15 365.63   Q 574.35 367.11 576.24 368.00"></path>
    <path stroke="#c7a387" vector-effect="non-scaling-stroke" d="   M 577.08 369.54   L 584.27 380.79"></path>
    <path stroke="#c7a387" vector-effect="non-scaling-stroke" d="   M 584.92 381.04   Q 584.79 380.94 584.65 380.96   Q 584.50 380.97 584.50 381.12   Q 584.47 381.98 585.26 382.66"></path>
    <path stroke="#c7a387" vector-effect="non-scaling-stroke" d="   M 585.30 382.37   Q 586.27 385.78 588.11 388.32   Q 588.41 388.72 588.52 389.21   Q 588.73 390.14 589.27 390.50"></path>
    <path stroke="#c7a387" vector-effect="non-scaling-stroke" d="   M 589.45 390.58   Q 589.63 393.18 590.36 392.54"></path>
    <path stroke="#c7a387" vector-effect="non-scaling-stroke" d="   M 590.69 392.94   Q 590.21 393.61 590.61 394.56   Q 592.80 399.79 593.72 403.54   Q 593.77 403.77 593.94 403.94   Q 594.28 404.26 594.36 404.72   C 594.91 407.86 596.04 410.82 596.41 413.96   Q 596.65 415.92 597.11 417.97   Q 597.95 421.73 597.93 425.73   Q 597.92 429.15 601.23 429.06   Q 602.61 429.02 603.35 427.96   Q 605.62 424.72 606.89 420.45"></path>
    <path stroke="#c7a387" vector-effect="non-scaling-stroke" d="   M 612.64 410.16   Q 614.13 409.65 613.89 408.33"></path>
    <path stroke="#c7a387" vector-effect="non-scaling-stroke" d="   M 652.34 370.80   Q 653.02 372.29 653.07 373.75   Q 653.65 392.03 653.22 407.84   Q 653.09 412.61 652.36 417.51   Q 651.56 422.85 651.18 427.82   C 650.91 431.24 649.90 434.61 649.39 438.08   C 648.90 441.41 647.91 444.82 647.05 448.09   Q 645.08 455.62 642.33 463.01   Q 641.22 465.97 639.39 469.93   Q 637.82 473.31 636.33 476.78"></path>
    <path stroke="#c7a387" vector-effect="non-scaling-stroke" d="   M 599.04 517.38   Q 593.86 519.46 589.02 521.86   Q 583.97 524.36 580.20 525.49   Q 575.70 526.85 570.94 527.87   C 569.37 528.20 566.88 528.73 566.73 530.49   Q 565.84 540.48 567.26 558.90"></path>
    <path stroke="#c7a387" vector-effect="non-scaling-stroke" d="   M 566.93 617.55   L 566.85 704.98   A 1.60 1.60 0.0 0 0 568.45 706.58   L 784.69 706.58   A 2.13 2.13 0.0 0 0 786.82 704.46   Q 786.86 671.73 786.94 634.00   C 786.96 625.64 787.34 616.69 787.25 608.01   Q 787.17 599.69 787.17 591.97   Q 787.24 445.86 787.20 299.76   Q 787.20 293.38 786.24 282.04   C 785.82 277.08 785.95 272.00 785.77 266.84   Q 785.69 264.51 785.08 262.27   Q 784.48 260.01 783.94 257.68   Q 783.14 254.24 781.95 250.94   Q 780.52 246.97 779.13 243.11   Q 778.31 240.82 776.31 239.32"></path>
    <path stroke="#c7a387" vector-effect="non-scaling-stroke" d="   M 770.46 232.05   Q 769.31 229.51 766.72 228.19"></path>
    <path stroke="#c7a387" vector-effect="non-scaling-stroke" d="   M 746.73 217.13   Q 747.21 217.19 747.47 217.09   Q 748.01 216.88 747.46 216.68   Q 745.78 216.08 745.11 214.23"></path>
    <path stroke="#735a4a" vector-effect="non-scaling-stroke" d="   M 325.15 213.45   Q 325.06 213.88 325.13 214.19"></path>
    <path stroke="#c7a387" vector-effect="non-scaling-stroke" d="   M 316.04 219.21   Q 311.94 219.76 309.89 222.74"></path>
    <path stroke="#c7a387" vector-effect="non-scaling-stroke" d="   M 293.45 239.25   Q 285.24 251.29 284.25 265.00   Q 283.92 269.51 283.64 272.50   Q 283.19 277.28 283.13 280.01   Q 282.91 290.02 282.91 307.50   Q 282.91 308.34 283.39 308.65"></path>
    <path stroke="#c7a387" vector-effect="non-scaling-stroke" d="   M 283.18 473.45   L 283.09 704.17   A 2.38 2.38 0.0 0 0 285.48 706.56   L 501.32 706.48   Q 503.13 706.48 503.13 704.67   L 503.17 531.60   A 3.33 3.32 -82.4 0 0 500.73 528.39   Q 495.63 526.98 490.95 525.90   C 489.23 525.50 488.35 524.22 486.42 524.34   Q 485.89 524.37 485.40 524.15   L 469.01 516.46"></path>
    <path stroke="#c7a387" vector-effect="non-scaling-stroke" d="   M 426.42 461.14   Q 426.48 459.02 425.61 456.97   Q 424.59 454.54 424.26 453.06   Q 423.66 450.39 422.95 448.07   Q 420.65 440.57 418.93 427.93   Q 417.26 415.63 416.28 399.41   Q 415.99 394.63 415.99 389.08   Q 415.98 383.89 415.95 378.74"></path>
    <path stroke="#c7a387" vector-effect="non-scaling-stroke" d="   M 464.99 424.20   Q 465.28 427.49 467.73 428.78   C 469.84 429.89 471.71 428.55 471.79 426.25   Q 472.04 419.19 473.83 410.70   Q 473.88 410.43 474.11 410.27   Q 474.25 410.17 474.27 410.01   Q 474.84 405.54 476.40 401.94   Q 477.10 400.34 477.47 398.50   Q 477.86 396.55 478.61 394.97   Q 479.18 393.79 479.72 392.66   Q 481.12 389.70 482.11 386.42"></path>
    <path stroke="#c7a387" vector-effect="non-scaling-stroke" d="   M 483.70 383.34   Q 484.58 382.61 485.10 381.54   Q 485.55 380.63 486.22 379.65   Q 486.96 378.58 486.95 377.43"></path>
    <path stroke="#c7a387" vector-effect="non-scaling-stroke" d="   M 505.49 370.61   Q 509.78 382.95 512.04 390.96   Q 513.54 396.26 516.07 406.84   C 516.60 409.05 516.74 411.27 517.32 413.50   Q 518.00 416.09 518.36 418.52   Q 519.05 423.11 519.81 427.89   Q 519.82 428.01 519.94 428.03   Q 520.03 428.04 520.06 428.10   Q 520.14 428.26 520.14 428.44   Q 520.22 432.52 520.68 434.33   Q 521.60 437.94 521.60 441.50   Q 521.60 441.79 521.82 441.98   Q 522.17 442.29 522.18 442.76   Q 522.26 446.40 522.86 449.85   Q 523.44 453.26 523.50 456.57   Q 523.54 459.03 523.92 461.60   Q 524.28 464.00 524.49 466.66   Q 524.99 473.08 525.37 479.25   Q 525.92 487.88 526.30 495.74   C 526.48 499.41 527.17 503.25 527.17 506.91   Q 527.10 618.24 527.12 729.60   A 1.12 1.12 0.0 0 1 526.00 730.72   L 260.54 730.72   Q 258.78 730.72 258.79 728.96   Q 258.97 711.85 258.97 694.69   Q 258.97 484.29 258.92 273.54   C 258.92 268.02 259.32 262.71 260.18 257.28   Q 260.45 255.55 261.04 253.78   C 261.63 252.02 261.59 250.34 262.61 248.81   Q 262.88 248.39 262.93 247.90   Q 263.00 247.11 263.28 246.33   Q 267.52 234.68 273.97 223.38"></path>
  </g>
  <path fill="#959492" d="   M 571.60 187.98   Q 578.25 179.40 589.25 167.00   Q 598.97 156.04 608.27 141.31   Q 613.19 133.52 615.85 125.38   C 617.85 119.27 618.50 110.74 614.66 105.18   C 610.56 99.22 604.47 96.57 597.54 94.42   Q 584.44 90.36 571.82 94.37   C 563.53 97.00 554.00 102.30 551.70 110.81   C 550.34 115.89 550.33 121.48 551.01 126.70   Q 552.94 141.66 557.31 156.56   Q 562.16 173.13 566.81 190.67   Q 566.96 191.21 567.42 191.52   Q 568.09 191.97 568.03 192.38   Q 567.90 192.97 567.61 192.99   A 1.38 1.33 80.4 0 1 566.26 191.99   Q 563.95 183.61 561.94 175.65   C 561.67 174.57 561.01 173.83 560.79 172.75   Q 560.22 169.87 559.33 166.99   Q 557.31 160.43 555.57 153.73   C 555.45 153.27 555.16 153.03 555.07 152.63   Q 554.37 149.53 553.70 146.42   C 553.40 145.05 552.62 144.04 552.72 142.58   Q 552.76 142.02 552.52 141.51   Q 551.67 139.70 551.75 137.38   Q 551.77 136.83 551.49 136.35   C 550.48 134.59 551.26 132.54 550.34 131.15   Q 550.05 130.71 550.02 130.20   Q 549.39 119.02 550.01 113.42   Q 550.24 111.35 551.79 108.41   Q 552.98 106.13 554.62 104.23   Q 560.91 96.94 570.27 93.91   Q 573.26 92.95 576.59 92.03   A 34.19 21.27 23.6 0 1 583.78 90.98   Q 585.49 90.92 587.23 90.98   A 1.38 1.33 66.6 0 1 588.09 91.34   Q 588.49 91.70 589.02 91.68   Q 590.86 91.61 592.50 92.13   Q 594.02 92.62 595.57 92.95   Q 602.75 94.48 609.23 98.90   C 622.48 107.91 618.99 122.77 612.77 134.73   Q 605.42 148.87 591.52 165.28   Q 578.94 180.12 571.60 187.98   Z"></path>
  <path fill="#959492" d="   M 502.01 192.77   L 503.16 191.25   Q 503.45 190.87 503.55 190.41   Q 504.59 185.79 506.35 179.94   Q 507.84 174.99 509.17 170.49   Q 513.20 156.81 515.91 144.52   Q 517.02 139.49 517.80 134.43   C 519.17 125.57 519.52 119.79 518.18 111.61   Q 517.37 106.68 514.58 103.34   Q 510.89 98.90 506.38 97.09   Q 485.55 88.70 465.34 96.88   Q 460.16 98.98 455.95 104.32   C 451.36 110.16 451.88 119.56 454.10 126.36   Q 455.43 130.41 457.33 134.19   C 463.43 146.28 471.98 157.50 481.12 167.80   Q 490.64 178.52 499.41 189.91   Q 488.89 178.05 478.63 166.11   Q 468.19 153.96 460.60 141.44   Q 456.01 133.87 453.19 125.86   Q 450.55 118.38 451.99 111.76   Q 453.54 104.65 459.00 100.10   Q 465.93 94.31 475.18 92.86   Q 476.30 92.68 477.33 92.34   Q 478.62 91.91 479.89 91.88   Q 486.02 91.75 492.07 91.88   Q 492.51 91.89 492.87 92.11   Q 493.04 92.21 493.19 92.33   A 1.45 1.45 0.0 0 0 494.05 92.68   Q 500.44 93.00 507.16 96.57   Q 515.78 101.16 518.67 109.66   Q 519.22 111.28 519.31 112.93   C 519.38 114.38 519.95 115.30 520.03 116.83   C 520.59 128.01 518.50 139.19 514.96 152.55   Q 509.90 171.65 503.90 190.29   Q 503.46 191.66 502.91 193.11   A 0.42 0.41 -57.2 0 1 502.24 193.26   Q 502.08 193.11 502.01 192.77   Z"></path>
  <path fill="#35363a" d="   M 571.60 187.98   L 568.03 192.38   Q 568.09 191.97 567.42 191.52   Q 566.96 191.21 566.81 190.67   Q 562.16 173.13 557.31 156.56   Q 552.94 141.66 551.01 126.70   C 550.33 121.48 550.34 115.89 551.70 110.81   C 554.00 102.30 563.53 97.00 571.82 94.37   Q 584.44 90.36 597.54 94.42   C 604.47 96.57 610.56 99.22 614.66 105.18   C 618.50 110.74 617.85 119.27 615.85 125.38   Q 613.19 133.52 608.27 141.31   Q 598.97 156.04 589.25 167.00   Q 578.25 179.40 571.60 187.98   Z"></path>
  <path fill="#35363a" d="   M 502.01 192.77   Q 500.18 191.60 499.41 189.91   Q 490.64 178.52 481.12 167.80   C 471.98 157.50 463.43 146.28 457.33 134.19   Q 455.43 130.41 454.10 126.36   C 451.88 119.56 451.36 110.16 455.95 104.32   Q 460.16 98.98 465.34 96.88   Q 485.55 88.70 506.38 97.09   Q 510.89 98.90 514.58 103.34   Q 517.37 106.68 518.18 111.61   C 519.52 119.79 519.17 125.57 517.80 134.43   Q 517.02 139.49 515.91 144.52   Q 513.20 156.81 509.17 170.49   Q 507.84 174.99 506.35 179.94   Q 504.59 185.79 503.55 190.41   Q 503.45 190.87 503.16 191.25   L 502.01 192.77   Z"></path>
  <path fill="#959492" d="   M 407.07 197.21   Q 407.50 196.47 408.08 195.79   Q 408.69 195.07 408.92 194.32   Q 414.09 177.34 417.40 159.27   C 419.14 149.77 420.23 138.35 417.05 129.24   C 412.07 114.93 400.34 109.80 386.00 110.24   Q 380.96 110.40 374.04 112.10   Q 358.67 115.88 349.44 126.48   C 342.15 134.86 342.47 146.17 349.95 154.23   Q 355.91 160.65 366.08 166.87   Q 374.70 172.13 383.33 177.62   Q 393.89 184.35 402.47 192.28   Q 403.30 193.04 404.68 195.03   C 392.65 183.67 380.31 176.31 366.53 167.94   C 358.71 163.19 350.84 157.39 345.74 149.69   Q 344.89 148.41 344.39 146.61   Q 343.93 144.96 343.40 143.35   Q 342.92 141.93 342.89 140.70   Q 342.86 139.24 342.93 137.80   A 1.48 1.47 -23.0 0 1 343.29 136.92   Q 343.87 136.26 343.85 135.33   Q 343.84 134.74 344.07 134.20   C 349.27 121.47 363.50 113.07 376.54 110.51   A 0.62 0.62 0.0 0 0 376.92 110.26   Q 377.12 109.97 377.45 109.94   Q 379.74 109.73 382.10 109.71   Q 383.73 109.69 385.26 109.23   Q 387.51 108.55 389.69 109.16   Q 391.21 109.59 392.63 109.66   C 394.83 109.77 396.90 109.57 398.89 110.61   C 400.23 111.31 401.63 111.63 403.01 112.32   Q 413.66 117.61 417.66 128.79   C 418.89 132.22 420.09 136.02 420.10 139.74   C 420.11 143.41 420.22 147.06 419.69 150.72   Q 416.35 173.90 409.46 194.83   Q 409.15 195.77 408.84 196.73   Q 408.55 197.63 407.07 197.21   Z"></path>
  <path fill="#959492" d="   M 666.31 194.11   Q 673.69 185.49 683.72 179.25   Q 696.23 171.47 708.74 163.73   Q 715.94 159.27 720.91 154.18   Q 729.29 145.59 724.65 134.07   C 723.92 132.25 723.40 130.55 722.32 128.94   Q 715.90 119.40 705.38 115.10   Q 689.47 108.61 672.22 112.09   Q 654.56 115.65 651.27 133.61   Q 651.16 134.20 651.08 134.78   Q 650.13 141.69 650.99 149.92   C 652.51 164.47 656.51 178.56 660.99 192.52   C 661.37 193.71 661.28 195.13 662.25 196.01   Q 662.68 196.40 662.13 196.57   Q 661.93 196.64 661.55 196.60   Q 656.92 181.78 655.23 176.01   Q 652.44 166.49 650.68 155.12   C 650.56 154.34 650.03 153.93 650.00 153.25   Q 649.63 143.98 649.97 134.74   Q 649.99 134.24 650.33 133.87   Q 650.87 133.30 650.80 132.36   Q 650.76 131.79 651.08 131.31   C 651.84 130.16 651.79 128.84 652.32 127.54   C 655.58 119.47 662.49 113.02 671.17 111.31   Q 672.86 110.97 674.53 110.39   Q 676.06 109.85 677.58 109.83   Q 684.59 109.72 691.14 109.90   Q 691.53 109.91 691.87 110.13   Q 692.00 110.21 692.12 110.33   Q 692.44 110.63 692.88 110.68   Q 699.72 111.55 707.20 115.16   C 715.11 118.98 722.55 125.71 725.51 133.90   Q 726.23 135.89 727.00 137.74   Q 727.60 139.18 727.33 143.01   C 726.63 152.79 714.17 161.33 706.51 165.98   Q 696.82 171.85 686.70 178.18   Q 675.68 185.06 666.31 194.11   Z"></path>
  <path fill="#35363a" d="   M 407.07 197.21   L 404.68 195.03   Q 403.30 193.04 402.47 192.28   Q 393.89 184.35 383.33 177.62   Q 374.70 172.13 366.08 166.87   Q 355.91 160.65 349.95 154.23   C 342.47 146.17 342.15 134.86 349.44 126.48   Q 358.67 115.88 374.04 112.10   Q 380.96 110.40 386.00 110.24   C 400.34 109.80 412.07 114.93 417.05 129.24   C 420.23 138.35 419.14 149.77 417.40 159.27   Q 414.09 177.34 408.92 194.32   Q 408.69 195.07 408.08 195.79   Q 407.50 196.47 407.07 197.21   Z"></path>
  <path fill="#35363a" d="   M 666.31 194.11   Q 665.17 196.26 663.49 197.42   Q 662.57 198.06 661.55 196.60   Q 661.93 196.64 662.13 196.57   Q 662.68 196.40 662.25 196.01   C 661.28 195.13 661.37 193.71 660.99 192.52   C 656.51 178.56 652.51 164.47 650.99 149.92   Q 650.13 141.69 651.08 134.78   Q 651.16 134.20 651.27 133.61   Q 654.56 115.65 672.22 112.09   Q 689.47 108.61 705.38 115.10   Q 715.90 119.40 722.32 128.94   C 723.40 130.55 723.92 132.25 724.65 134.07   Q 729.29 145.59 720.91 154.18   Q 715.94 159.27 708.74 163.73   Q 696.23 171.47 683.72 179.25   Q 673.69 185.49 666.31 194.11   Z"></path>
  <path fill="#dec7b5" d="   M 443.91 134.27   Q 439.13 125.62 436.45 116.06   Q 436.29 115.46 435.73 115.73   Q 434.72 116.21 434.89 117.40   Q 434.97 117.99 434.62 118.47   Q 433.89 119.48 433.86 120.23   Q 433.19 135.65 431.20 151.57   Q 431.13 152.11 431.07 152.65   Q 430.61 156.79 430.20 161.04   C 429.70 166.30 428.66 171.44 427.88 176.70   Q 427.31 180.55 426.59 183.96   Q 425.36 189.86 424.09 195.75   Q 423.39 198.96 420.14 207.92   Q 419.78 205.94 420.68 203.72   Q 421.52 201.67 421.93 200.13   C 422.65 197.49 423.84 196.13 423.95 192.77   Q 424.01 190.97 424.52 189.37   Q 424.89 188.18 425.31 186.99   C 426.07 184.81 425.77 182.55 426.29 180.37   Q 426.82 178.16 427.14 176.05   Q 428.56 166.79 429.69 156.99   Q 430.41 150.68 431.22 144.35   Q 431.73 140.36 431.86 137.08   Q 431.99 133.53 432.02 129.75   Q 432.02 129.22 432.37 128.76   Q 432.71 128.30 432.73 127.74   L 432.97 120.95   Q 432.99 120.34 433.38 119.86   Q 433.67 119.50 433.67 119.08   Q 433.72 116.30 433.89 112.24   A 0.40 0.40 0.0 0 1 434.29 111.86   L 435.51 111.88   Q 436.02 111.88 436.08 112.39   Q 436.36 114.88 437.79 117.29   Q 438.05 117.73 438.06 118.23   Q 438.11 120.11 438.92 121.73   Q 439.70 123.28 440.26 124.91   Q 441.88 129.60 443.91 134.27   Z"></path>
  <path fill="#dec7b5" d="   M 649.29 208.37   Q 648.70 207.72 649.03 206.67   Q 649.18 206.19 649.06 205.69   Q 648.74 204.39 648.14 203.18   Q 647.59 202.06 647.23 200.81   Q 640.44 176.75 638.32 156.27   Q 638.15 154.60 637.87 152.89   Q 637.60 151.19 637.49 149.62   Q 637.21 145.22 636.66 140.76   C 636.33 138.04 636.48 135.45 636.08 132.77   C 635.33 127.66 635.38 122.36 635.30 117.24   A 0.96 0.96 0.0 0 0 633.79 116.47   Q 632.36 117.46 631.92 119.10   Q 629.61 127.60 625.08 135.06   L 631.55 119.50   Q 631.74 119.06 631.73 118.57   Q 631.66 115.09 633.93 112.18   Q 634.33 111.67 634.83 112.08   C 635.48 112.63 636.12 113.18 636.11 114.11   Q 636.04 121.41 636.32 129.12   Q 636.33 129.54 636.60 129.86   Q 636.75 130.02 636.87 130.21   Q 637.02 130.45 637.03 130.73   Q 637.11 134.60 637.28 138.63   C 637.32 139.47 637.75 140.05 637.84 140.89   C 638.20 144.49 638.04 147.87 638.67 151.66   C 639.62 157.44 640.07 163.30 641.03 169.05   Q 642.73 179.36 644.95 189.50   Q 646.04 194.44 647.71 199.17   Q 647.74 199.25 648.31 201.25   Q 648.76 202.85 650.04 205.49   Q 650.93 207.33 649.29 208.37   Z"></path>
  <path fill="#b07e59" d="   M 443.91 134.27   Q 453.15 153.49 465.76 169.74   Q 479.55 187.51 496.21 204.39   L 498.18 208.04   Q 498.42 208.49 498.29 208.99   Q 497.26 213.02 496.64 214.87   Q 488.15 240.14 476.55 264.38   L 472.98 271.14   A 0.53 0.52 -48.1 0 1 472.08 271.19   Q 458.77 250.94 442.60 232.90   Q 431.27 220.26 420.14 207.92   Q 423.39 198.96 424.09 195.75   Q 425.36 189.86 426.59 183.96   Q 427.31 180.55 427.88 176.70   C 428.66 171.44 429.70 166.30 430.20 161.04   Q 430.61 156.79 431.07 152.65   Q 431.13 152.11 431.20 151.57   Q 433.19 135.65 433.86 120.23   Q 433.89 119.48 434.62 118.47   Q 434.97 117.99 434.89 117.40   Q 434.72 116.21 435.73 115.73   Q 436.29 115.46 436.45 116.06   Q 439.13 125.62 443.91 134.27   Z"></path>
  <path fill="#b07e59" d="   M 649.29 208.37   Q 637.11 221.66 625.59 235.57   C 625.22 236.01 625.15 236.69 624.71 237.07   Q 621.60 239.79 619.38 243.01   C 618.47 244.33 617.27 245.29 616.51 246.64   Q 616.04 247.47 615.42 248.19   Q 606.24 258.79 598.24 270.56   Q 597.65 271.42 596.86 270.76   C 595.24 269.42 594.90 267.84 594.01 266.09   Q 587.97 254.18 581.41 240.98   Q 580.81 239.77 580.41 238.47   Q 580.00 237.13 579.16 235.92   Q 578.87 235.51 578.82 235.01   Q 578.74 234.02 578.31 233.17   Q 576.93 230.49 575.57 227.57   Q 574.84 226.00 574.61 224.27   Q 574.42 222.77 573.36 221.08   Q 572.65 219.95 572.67 218.22   Q 572.68 217.70 572.39 217.27   Q 571.72 216.29 571.78 215.04   Q 571.80 214.45 571.33 214.10   Q 571.05 213.88 571.00 213.54   Q 570.61 210.79 570.71 207.80   Q 570.73 207.23 571.13 206.84   Q 585.98 192.23 600.88 173.14   Q 615.34 154.61 625.08 135.06   Q 629.61 127.60 631.92 119.10   Q 632.36 117.46 633.79 116.47   A 0.96 0.96 0.0 0 1 635.30 117.24   C 635.38 122.36 635.33 127.66 636.08 132.77   C 636.48 135.45 636.33 138.04 636.66 140.76   Q 637.21 145.22 637.49 149.62   Q 637.60 151.19 637.87 152.89   Q 638.15 154.60 638.32 156.27   Q 640.44 176.75 647.23 200.81   Q 647.59 202.06 648.14 203.18   Q 648.74 204.39 649.06 205.69   Q 649.18 206.19 649.03 206.67   Q 648.70 207.72 649.29 208.37   Z"></path>
  <path fill="#959492" d="   M 557.20 359.94   L 557.13 359.55   A 0.44 0.44 0.0 0 1 557.59 359.03   Q 558.43 359.09 558.23 358.75   C 559.87 357.88 559.65 356.17 560.28 354.51   Q 573.66 319.46 588.81 288.34   C 589.62 286.66 590.69 285.34 589.71 283.40   Q 580.31 264.87 572.73 246.75   C 572.36 245.87 572.34 244.93 571.85 244.10   Q 571.40 243.35 571.06 242.51   Q 566.94 232.41 563.50 222.79   Q 546.10 174.05 536.08 122.55   Q 535.83 121.24 534.72 120.44   A 0.53 0.53 0.0 0 0 533.88 120.95   Q 534.05 122.05 533.85 123.07   Q 529.76 144.66 522.01 173.72   Q 519.32 183.85 516.46 193.05   Q 510.65 211.81 505.63 225.78   Q 499.75 242.13 494.36 253.99   Q 489.59 264.50 480.55 281.83   Q 479.33 284.16 479.99 285.44   Q 493.21 311.14 501.71 332.79   Q 506.55 345.12 511.21 358.16   A 1.18 1.18 0.0 0 0 513.30 358.41   C 514.25 356.96 515.11 355.49 516.48 354.34   C 523.21 348.69 530.95 348.22 539.37 348.95   Q 533.35 348.33 529.05 349.93   Q 518.89 350.72 512.93 359.55   Q 512.32 360.46 511.63 359.61   C 510.90 358.71 510.15 357.67 509.77 356.57   Q 496.80 319.92 479.68 286.56   Q 478.48 284.23 479.72 282.00   Q 487.07 268.73 492.57 255.67   Q 492.82 255.06 493.08 254.54   Q 495.50 249.68 496.62 246.71   Q 497.22 245.12 497.89 243.68   Q 498.57 242.22 499.08 240.66   Q 499.50 239.39 500.08 238.18   Q 500.65 237.00 501.11 235.73   Q 502.58 231.70 504.15 227.71   Q 505.79 223.53 507.11 219.68   Q 521.26 178.39 529.77 137.19   Q 529.93 136.43 530.15 135.74   Q 531.29 132.33 531.66 129.40   Q 531.97 126.90 532.73 124.59   Q 533.59 121.94 533.83 119.53   Q 533.87 119.09 534.27 118.91   Q 534.78 118.68 535.38 118.76   Q 535.89 118.84 536.03 119.33   Q 536.55 121.19 537.08 123.14   C 537.32 124.02 537.10 125.28 537.71 125.98   A 1.61 1.58 -66.2 0 1 538.11 127.04   Q 538.07 130.25 539.21 133.39   Q 540.05 135.72 540.28 138.11   Q 540.54 140.84 541.67 143.79   Q 542.19 145.15 542.25 146.60   Q 542.37 149.63 543.84 152.25   Q 544.12 152.74 544.12 153.30   Q 544.11 157.19 545.85 160.32   Q 546.09 160.75 546.10 161.24   Q 546.17 164.47 547.24 166.88   Q 548.08 168.77 548.32 170.69   Q 548.61 172.90 549.45 175.17   Q 550.08 176.84 550.30 178.43   Q 550.55 180.24 551.26 181.75   Q 552.11 183.57 552.32 185.40   Q 552.59 187.57 553.60 189.62   C 554.20 190.82 554.11 191.62 554.47 192.84   Q 555.98 198.00 557.60 202.61   C 558.26 204.47 558.56 206.35 559.40 208.13   C 560.44 210.33 560.39 212.62 561.63 214.72   Q 562.09 215.52 562.27 216.47   Q 562.46 217.51 562.86 218.60   Q 565.16 224.89 567.23 231.12   Q 567.35 231.50 567.65 231.75   Q 568.00 232.05 568.08 232.48   Q 568.44 234.30 569.31 236.09   Q 570.13 237.78 570.66 239.50   Q 571.11 240.99 571.95 242.49   Q 572.78 243.98 573.28 245.59   Q 574.18 248.53 575.42 251.21   Q 576.43 253.39 577.33 255.48   Q 583.50 269.82 590.95 284.09   Q 591.37 284.89 590.97 285.71   Q 575.65 317.18 562.69 350.66   Q 562.09 352.20 561.34 353.70   Q 560.12 356.15 560.09 358.53   Q 560.08 359.35 559.29 359.13   Q 558.87 359.01 558.43 359.44   A 0.98 0.87 86.4 0 0 558.29 359.62   Q 557.90 360.31 557.20 359.94   Z"></path>
  <path fill="#35363a" d="   M 558.23 358.75   Q 557.41 359.06 557.13 358.63   Q 554.43 354.59 550.56 352.44   Q 545.22 349.47 539.37 348.95   C 530.95 348.22 523.21 348.69 516.48 354.34   C 515.11 355.49 514.25 356.96 513.30 358.41   A 1.18 1.18 0.0 0 1 511.21 358.16   Q 506.55 345.12 501.71 332.79   Q 493.21 311.14 479.99 285.44   Q 479.33 284.16 480.55 281.83   Q 489.59 264.50 494.36 253.99   Q 499.75 242.13 505.63 225.78   Q 510.65 211.81 516.46 193.05   Q 519.32 183.85 522.01 173.72   Q 529.76 144.66 533.85 123.07   Q 534.05 122.05 533.88 120.95   A 0.53 0.53 0.0 0 1 534.72 120.44   Q 535.83 121.24 536.08 122.55   Q 546.10 174.05 563.50 222.79   Q 566.94 232.41 571.06 242.51   Q 571.40 243.35 571.85 244.10   C 572.34 244.93 572.36 245.87 572.73 246.75   Q 580.31 264.87 589.71 283.40   C 590.69 285.34 589.62 286.66 588.81 288.34   Q 573.66 319.46 560.28 354.51   C 559.65 356.17 559.87 357.88 558.23 358.75   Z"></path>
  <path fill="#959492" d="   M 425.23 233.02   Q 418.58 226.64 412.14 220.13   Q 404.20 212.10 398.57 207.10   Q 382.51 192.84 362.78 180.27   Q 345.17 169.04 329.05 163.21   Q 318.42 159.37 305.78 155.99   Q 295.09 153.14 283.94 151.58   A 0.42 0.41 -73.6 0 0 283.51 151.82   Q 283.18 152.51 283.57 153.24   Q 283.89 153.85 284.47 154.19   Q 287.72 156.06 290.99 158.53   Q 309.42 172.41 323.69 190.55   Q 351.19 225.48 367.25 266.96   Q 372.61 280.80 375.92 295.27   Q 379.33 310.20 381.57 325.34   Q 381.57 325.37 383.79 344.58   Q 386.57 368.53 393.81 391.57   Q 394.24 392.93 396.32 398.37   Q 397.60 401.73 398.51 405.28   L 394.13 395.75   Q 393.93 395.31 393.86 394.82   C 393.64 393.23 393.12 391.05 392.14 389.79   Q 391.75 389.29 391.79 388.65   Q 391.83 387.97 391.49 387.37   Q 390.67 385.91 390.75 384.15   A 1.31 1.30 -66.6 0 0 390.36 383.15   Q 389.70 382.51 389.72 381.55   Q 389.73 380.99 389.49 380.47   Q 388.63 378.53 388.69 376.33   Q 388.71 375.76 388.34 375.33   Q 387.68 374.57 387.73 373.54   Q 387.75 372.96 387.50 372.44   Q 386.66 370.69 386.78 368.60   Q 386.82 368.02 386.52 367.53   C 385.50 365.87 385.90 363.94 385.28 362.04   C 384.58 359.88 385.09 357.89 384.07 355.69   C 383.58 354.64 383.86 352.91 383.46 351.67   C 382.55 348.85 382.82 345.19 382.71 342.20   Q 382.69 341.66 382.35 341.24   Q 381.99 340.78 381.96 340.20   Q 381.83 337.75 381.73 335.08   Q 381.71 334.62 381.42 334.26   L 381.22 334.00   Q 381.02 333.75 381.00 333.43   Q 380.88 330.51 380.81 327.51   Q 380.77 326.00 380.28 324.86   Q 379.59 323.27 379.81 321.09   Q 379.87 320.52 379.40 320.21   Q 379.01 319.95 378.99 319.47   L 378.73 313.23   Q 378.71 312.74 378.43 312.34   Q 377.62 311.16 377.83 309.55   Q 377.94 308.70 377.35 308.10   Q 377.00 307.76 376.97 307.27   L 376.69 302.20   Q 376.66 301.66 376.31 301.25   Q 375.73 300.57 375.83 299.72   Q 375.90 299.15 375.61 298.64   C 374.33 296.41 375.07 293.95 374.04 291.39   C 372.89 288.51 372.83 285.50 371.61 282.78   C 370.80 280.99 370.63 279.11 370.00 277.24   Q 359.99 247.36 342.41 218.25   Q 329.23 196.41 310.70 176.78   Q 298.19 163.52 282.39 153.38   Q 281.32 152.69 280.86 151.55   A 0.68 0.67 78.2 0 1 281.46 150.62   Q 285.44 150.51 288.32 151.10   Q 291.47 151.75 294.59 152.28   Q 298.55 152.95 302.73 154.07   Q 321.51 159.07 333.51 164.06   C 360.47 175.27 385.62 193.51 407.49 214.51   Q 417.47 224.09 425.23 233.02   Z"></path>
  <path fill="#959492" d="   M 670.18 409.70   Q 670.07 409.58 670.02 409.42   Q 669.98 409.27 670.05 409.10   C 672.08 404.30 674.27 399.27 675.75 394.19   Q 681.71 373.73 683.84 359.14   Q 686.90 338.17 689.65 319.74   Q 692.48 300.80 698.72 281.42   Q 704.65 263.02 711.86 247.07   Q 724.80 218.42 744.41 193.38   C 756.32 178.18 771.05 163.69 786.93 152.95   Q 787.60 152.50 787.41 151.74   A 0.75 0.75 0.0 0 0 786.56 151.17   Q 776.58 152.74 767.03 154.96   Q 734.80 162.45 706.39 180.15   C 700.43 183.86 693.38 188.48 687.25 193.35   Q 684.74 195.35 681.80 197.52   Q 679.19 199.45 671.94 205.83   C 664.33 212.53 655.42 221.44 650.06 227.32   Q 634.76 244.09 618.97 264.52   Q 589.83 302.24 576.62 347.08   C 576.18 348.59 575.09 350.06 575.20 351.58   Q 575.32 353.18 576.81 352.59   C 585.44 349.16 596.36 346.69 605.27 348.34   Q 617.04 350.52 625.05 359.28   Q 628.44 363.00 631.30 367.43   A 1.73 1.73 0.0 0 0 633.83 367.86   Q 647.17 357.47 663.29 348.28   A 1.54 1.53 66.1 0 1 665.51 349.14   Q 666.04 350.73 666.22 352.45   Q 667.32 363.03 668.13 372.62   Q 668.52 377.19 668.54 381.86   C 668.58 387.95 668.90 394.09 668.06 400.16   Q 667.43 404.74 667.34 408.76   A 1.92 1.91 62.2 0 1 667.03 409.77   Q 666.25 410.99 666.84 412.47   Q 667.37 413.79 666.82 414.12   L 666.33 414.23   Q 665.81 414.34 665.85 413.81   L 666.86 400.96   L 666.90 400.29   Q 666.86 399.38 667.47 398.73   Q 667.80 398.38 667.80 397.90   L 667.76 378.05   Q 667.75 377.49 667.35 377.10   Q 667.17 376.92 667.04 376.69   Q 666.94 376.49 666.93 376.26   Q 666.83 370.29 666.59 364.10   Q 666.52 362.27 666.07 360.47   C 665.66 358.83 666.00 357.18 665.40 355.57   Q 664.61 353.43 664.87 350.87   Q 664.94 350.22 664.29 350.10   Q 662.37 349.75 660.74 350.65   Q 647.57 357.96 634.19 368.29   Q 632.15 369.87 630.79 367.67   C 625.63 359.40 618.64 352.99 609.40 350.41   Q 601.77 348.29 591.69 349.34   Q 591.28 349.39 591.02 349.71   Q 590.93 349.81 590.83 349.89   Q 590.75 349.96 590.65 349.96   Q 586.74 350.17 585.76 350.50   Q 581.37 352.00 576.98 353.13   Q 576.46 353.26 576.18 353.71   Q 575.86 354.23 575.28 354.07   Q 574.82 353.94 574.75 353.46   Q 574.49 351.62 574.81 350.50   Q 586.14 310.07 609.84 276.10   Q 634.46 240.80 663.83 212.42   Q 667.00 209.36 678.09 199.87   Q 709.52 172.96 748.05 159.33   Q 750.30 158.53 752.66 157.73   Q 754.84 156.98 757.04 156.56   C 759.06 156.17 760.76 155.16 762.73 154.85   Q 766.38 154.27 769.91 153.21   Q 771.27 152.81 772.74 152.67   Q 775.76 152.39 778.68 151.56   C 781.82 150.66 785.19 150.52 788.40 150.61   Q 789.35 150.63 789.03 151.53   Q 788.65 152.59 787.56 153.31   C 777.26 160.18 768.73 167.47 760.53 175.89   C 733.76 203.39 714.96 236.67 702.27 273.48   C 701.47 275.78 701.19 278.10 700.16 280.20   C 699.26 282.04 699.36 283.81 698.49 285.59   Q 697.67 287.26 697.59 287.87   Q 697.05 291.94 695.52 295.77   Q 695.08 296.86 695.10 298.23   Q 695.12 299.42 694.63 300.62   Q 692.99 304.60 693.02 309.24   A 1.24 1.20 69.6 0 1 692.62 310.15   C 692.31 310.42 692.13 310.90 692.19 311.31   Q 692.34 312.44 691.69 313.31   Q 691.38 313.73 691.34 314.24   Q 691.16 316.53 691.13 318.53   Q 691.11 319.72 690.46 321.83   Q 689.99 323.35 690.13 325.23   Q 690.17 325.78 689.74 326.14   Q 689.34 326.47 689.32 326.98   L 689.03 334.24   A 1.59 1.56 -25.4 0 1 688.70 335.14   Q 688.56 335.33 688.43 335.52   Q 688.29 335.74 688.29 336.01   Q 688.28 338.26 688.02 340.47   Q 687.97 340.85 687.68 341.14   Q 687.33 341.49 687.30 341.99   L 687.02 348.20   Q 687.00 348.70 686.69 349.09   Q 686.17 349.76 686.23 350.24   Q 686.53 352.67 685.73 354.87   Q 685.23 356.25 685.19 357.23   Q 685.14 358.46 685.09 359.72   Q 685.03 361.22 684.54 362.62   Q 684.01 364.10 684.16 365.70   A 1.71 1.71 0.0 0 1 683.84 366.84   Q 682.93 368.07 683.12 369.68   Q 683.19 370.26 682.94 370.79   C 682.18 372.39 682.48 373.79 681.75 375.28   Q 681.00 376.82 681.09 378.82   Q 681.13 379.52 680.70 380.08   Q 680.08 380.90 680.16 381.96   A 1.65 1.64 60.3 0 1 679.88 383.00   C 679.04 384.24 679.19 385.81 678.72 387.28   C 676.90 393.02 675.22 398.95 672.66 404.35   Q 671.39 407.01 670.18 409.70   Z"></path>
  <path fill="#35363a" d="   M 670.18 409.70   Q 670.27 410.39 669.79 410.96   Q 669.77 410.79 669.71 410.66   Q 669.54 410.34 669.28 410.59   Q 667.99 411.84 668.84 412.05   L 668.17 413.73   Q 667.98 414.19 667.49 414.21   Q 667.16 414.22 666.82 414.12   Q 667.37 413.79 666.84 412.47   Q 666.25 410.99 667.03 409.77   A 1.92 1.91 62.2 0 0 667.34 408.76   Q 667.43 404.74 668.06 400.16   C 668.90 394.09 668.58 387.95 668.54 381.86   Q 668.52 377.19 668.13 372.62   Q 667.32 363.03 666.22 352.45   Q 666.04 350.73 665.51 349.14   A 1.54 1.53 66.1 0 0 663.29 348.28   Q 647.17 357.47 633.83 367.86   A 1.73 1.73 0.0 0 1 631.30 367.43   Q 628.44 363.00 625.05 359.28   Q 617.04 350.52 605.27 348.34   C 596.36 346.69 585.44 349.16 576.81 352.59   Q 575.32 353.18 575.20 351.58   C 575.09 350.06 576.18 348.59 576.62 347.08   Q 589.83 302.24 618.97 264.52   Q 634.76 244.09 650.06 227.32   C 655.42 221.44 664.33 212.53 671.94 205.83   Q 679.19 199.45 681.80 197.52   Q 684.74 195.35 687.25 193.35   C 693.38 188.48 700.43 183.86 706.39 180.15   Q 734.80 162.45 767.03 154.96   Q 776.58 152.74 786.56 151.17   A 0.75 0.75 0.0 0 1 787.41 151.74   Q 787.60 152.50 786.93 152.95   C 771.05 163.69 756.32 178.18 744.41 193.38   Q 724.80 218.42 711.86 247.07   Q 704.65 263.02 698.72 281.42   Q 692.48 300.80 689.65 319.74   Q 686.90 338.17 683.84 359.14   Q 681.71 373.73 675.75 394.19   C 674.27 399.27 672.08 404.30 670.05 409.10   Q 669.98 409.27 670.02 409.42   Q 670.07 409.58 670.18 409.70   Z"></path>
  <path fill="#35363a" d="   M 425.23 233.02   Q 426.54 233.94 427.28 235.24   Q 432.37 241.99 437.82 248.34   Q 444.49 256.10 448.46 261.32   C 453.61 268.11 459.14 274.83 463.93 282.14   C 477.19 302.41 486.81 325.32 493.59 348.51   Q 493.72 348.97 494.04 349.32   Q 494.79 350.17 494.59 351.39   A 0.99 0.99 0.0 0 1 493.25 352.15   Q 484.41 348.64 475.43 347.77   C 462.24 346.49 448.30 352.29 441.19 363.66   Q 439.83 365.84 438.14 367.86   A 1.36 1.35 -51.2 0 1 436.27 368.07   Q 424.13 358.70 410.07 350.13   Q 408.53 349.19 406.93 348.34   A 1.90 1.89 17.2 0 0 404.16 349.80   Q 402.52 364.09 401.61 379.25   Q 400.89 391.32 403.03 407.68   Q 403.49 408.28 403.74 409.91   Q 401.50 411.00 402.03 413.24   Q 401.68 411.34 400.41 410.18   A 1.86 1.77 13.0 0 1 399.89 409.39   L 398.51 405.28   Q 397.60 401.73 396.32 398.37   Q 394.24 392.93 393.81 391.57   Q 386.57 368.53 383.79 344.58   Q 381.57 325.37 381.57 325.34   Q 379.33 310.20 375.92 295.27   Q 372.61 280.80 367.25 266.96   Q 351.19 225.48 323.69 190.55   Q 309.42 172.41 290.99 158.53   Q 287.72 156.06 284.47 154.19   Q 283.89 153.85 283.57 153.24   Q 283.18 152.51 283.51 151.82   A 0.42 0.41 -73.6 0 1 283.94 151.58   Q 295.09 153.14 305.78 155.99   Q 318.42 159.37 329.05 163.21   Q 345.17 169.04 362.78 180.27   Q 382.51 192.84 398.57 207.10   Q 404.20 212.10 412.14 220.13   Q 418.58 226.64 425.23 233.02   Z"></path>
  <path fill="#b07e59" d="   M 803.38 237.08   Q 808.02 248.66 809.81 260.56   Q 810.89 267.69 810.88 280.35   Q 810.84 456.46 810.90 632.26   C 810.90 633.77 811.11 635.15 811.11 636.75   Q 811.16 688.76 811.07 728.97   A 1.87 1.87 0.0 0 1 809.20 730.84   L 543.57 730.80   A 1.00 0.99 90.0 0 1 542.58 729.80   Q 542.83 660.70 542.48 591.72   C 542.32 559.25 542.33 527.26 543.04 493.90   C 543.07 492.71 543.60 491.58 543.57 490.43   C 543.44 484.75 544.53 478.96 544.46 473.40   Q 544.41 469.86 545.00 466.20   C 545.49 463.09 545.49 460.40 545.99 457.44   Q 546.51 454.29 546.63 450.57   C 546.69 448.91 547.46 447.04 547.65 445.17   Q 550.34 417.95 557.24 391.48   C 557.70 389.74 558.77 387.05 559.40 384.75   Q 560.30 381.46 564.99 370.35   Q 565.24 369.75 565.69 369.23   Q 565.99 368.87 566.12 368.42   Q 566.30 367.73 566.24 367.00   Q 566.79 365.32 567.83 364.02   L 569.18 362.23   A 0.80 0.80 0.0 0 1 569.99 361.93   Q 571.07 362.18 572.23 363.33   Q 573.43 364.39 574.15 365.63   Q 574.35 367.11 576.24 368.00   L 577.08 369.54   L 584.27 380.79   Q 584.60 380.73 584.92 381.04   Q 584.79 380.94 584.65 380.96   Q 584.50 380.97 584.50 381.12   Q 584.47 381.98 585.26 382.66   Q 585.28 382.52 585.30 382.37   Q 586.27 385.78 588.11 388.32   Q 588.41 388.72 588.52 389.21   Q 588.73 390.14 589.27 390.50   Q 589.65 390.95 589.45 390.58   Q 589.63 393.18 590.36 392.54   L 590.69 392.94   Q 590.21 393.61 590.61 394.56   Q 592.80 399.79 593.72 403.54   Q 593.77 403.77 593.94 403.94   Q 594.28 404.26 594.36 404.72   C 594.91 407.86 596.04 410.82 596.41 413.96   Q 596.65 415.92 597.11 417.97   Q 597.95 421.73 597.93 425.73   Q 597.92 429.15 601.23 429.06   Q 602.61 429.02 603.35 427.96   Q 605.62 424.72 606.89 420.45   L 612.64 410.16   Q 614.13 409.65 613.89 408.33   Q 618.11 402.31 623.28 396.53   C 623.66 396.10 623.71 395.64 624.15 395.18   C 630.20 388.80 636.35 382.20 643.19 376.72   Q 646.69 373.91 650.15 371.12   Q 650.57 370.78 651.10 370.69   Q 651.85 370.56 652.34 370.80   Q 653.02 372.29 653.07 373.75   Q 653.65 392.03 653.22 407.84   Q 653.09 412.61 652.36 417.51   Q 651.56 422.85 651.18 427.82   C 650.91 431.24 649.90 434.61 649.39 438.08   C 648.90 441.41 647.91 444.82 647.05 448.09   Q 645.08 455.62 642.33 463.01   Q 641.22 465.97 639.39 469.93   Q 637.82 473.31 636.33 476.78   Q 635.58 478.94 634.18 481.21   Q 623.92 497.86 609.96 509.70   Q 605.56 513.43 599.04 517.38   Q 593.86 519.46 589.02 521.86   Q 583.97 524.36 580.20 525.49   Q 575.70 526.85 570.94 527.87   C 569.37 528.20 566.88 528.73 566.73 530.49   Q 565.84 540.48 567.26 558.90   L 567.25 563.72   Q 567.25 564.22 567.48 564.65   Q 568.75 566.99 567.49 569.33   Q 567.26 569.77 567.25 570.27   L 566.93 617.55   L 566.85 704.98   A 1.60 1.60 0.0 0 0 568.45 706.58   L 784.69 706.58   A 2.13 2.13 0.0 0 0 786.82 704.46   Q 786.86 671.73 786.94 634.00   C 786.96 625.64 787.34 616.69 787.25 608.01   Q 787.17 599.69 787.17 591.97   Q 787.24 445.86 787.20 299.76   Q 787.20 293.38 786.24 282.04   C 785.82 277.08 785.95 272.00 785.77 266.84   Q 785.69 264.51 785.08 262.27   Q 784.48 260.01 783.94 257.68   Q 783.14 254.24 781.95 250.94   Q 780.52 246.97 779.13 243.11   Q 778.31 240.82 776.31 239.32   L 770.46 232.05   Q 769.31 229.51 766.72 228.19   Q 758.75 221.79 749.20 217.55   Q 748.38 217.18 746.73 217.13   Q 747.21 217.19 747.47 217.09   Q 748.01 216.88 747.46 216.68   Q 745.78 216.08 745.11 214.23   Q 750.97 204.76 756.40 194.88   Q 757.55 192.77 760.41 193.85   Q 766.63 196.19 772.23 199.83   Q 793.79 213.81 803.38 237.08   Z"></path>
  <path fill="#b07e59" d="   M 325.15 213.45   Q 325.06 213.88 325.13 214.19   Q 325.29 214.95 325.15 215.45   Q 325.03 215.92 324.31 216.18   Q 320.03 217.70 316.04 219.21   Q 311.94 219.76 309.89 222.74   Q 302.67 228.06 301.16 229.90   Q 297.39 234.49 293.45 239.25   Q 285.24 251.29 284.25 265.00   Q 283.92 269.51 283.64 272.50   Q 283.19 277.28 283.13 280.01   Q 282.91 290.02 282.91 307.50   Q 282.91 308.34 283.39 308.65   L 283.18 473.45   L 283.09 704.17   A 2.38 2.38 0.0 0 0 285.48 706.56   L 501.32 706.48   Q 503.13 706.48 503.13 704.67   L 503.17 531.60   A 3.33 3.32 -82.4 0 0 500.73 528.39   Q 495.63 526.98 490.95 525.90   C 489.23 525.50 488.35 524.22 486.42 524.34   Q 485.89 524.37 485.40 524.15   L 469.01 516.46   Q 461.70 512.41 455.37 506.38   C 450.64 501.87 446.01 497.15 442.26 491.89   Q 432.07 477.61 426.42 461.14   Q 426.48 459.02 425.61 456.97   Q 424.59 454.54 424.26 453.06   Q 423.66 450.39 422.95 448.07   Q 420.65 440.57 418.93 427.93   Q 417.26 415.63 416.28 399.41   Q 415.99 394.63 415.99 389.08   Q 415.98 383.89 415.95 378.74   L 415.78 372.00   A 1.46 1.46 0.0 0 1 417.99 370.71   Q 425.10 374.96 431.16 380.37   Q 441.67 389.77 447.11 396.58   Q 448.54 398.37 450.05 400.17   Q 452.01 402.49 452.92 403.82   Q 458.56 412.09 460.12 414.63   Q 462.05 417.79 464.99 424.20   Q 465.28 427.49 467.73 428.78   C 469.84 429.89 471.71 428.55 471.79 426.25   Q 472.04 419.19 473.83 410.70   Q 473.88 410.43 474.11 410.27   Q 474.25 410.17 474.27 410.01   Q 474.84 405.54 476.40 401.94   Q 477.10 400.34 477.47 398.50   Q 477.86 396.55 478.61 394.97   Q 479.18 393.79 479.72 392.66   Q 481.12 389.70 482.11 386.42   Q 482.65 384.57 483.70 383.34   Q 484.58 382.61 485.10 381.54   Q 485.55 380.63 486.22 379.65   Q 486.96 378.58 486.95 377.43   L 498.72 361.11   A 0.86 0.86 0.0 0 1 500.17 361.19   L 505.49 370.61   Q 509.78 382.95 512.04 390.96   Q 513.54 396.26 516.07 406.84   C 516.60 409.05 516.74 411.27 517.32 413.50   Q 518.00 416.09 518.36 418.52   Q 519.05 423.11 519.81 427.89   Q 519.82 428.01 519.94 428.03   Q 520.03 428.04 520.06 428.10   Q 520.14 428.26 520.14 428.44   Q 520.22 432.52 520.68 434.33   Q 521.60 437.94 521.60 441.50   Q 521.60 441.79 521.82 441.98   Q 522.17 442.29 522.18 442.76   Q 522.26 446.40 522.86 449.85   Q 523.44 453.26 523.50 456.57   Q 523.54 459.03 523.92 461.60   Q 524.28 464.00 524.49 466.66   Q 524.99 473.08 525.37 479.25   Q 525.92 487.88 526.30 495.74   C 526.48 499.41 527.17 503.25 527.17 506.91   Q 527.10 618.24 527.12 729.60   A 1.12 1.12 0.0 0 1 526.00 730.72   L 260.54 730.72   Q 258.78 730.72 258.79 728.96   Q 258.97 711.85 258.97 694.69   Q 258.97 484.29 258.92 273.54   C 258.92 268.02 259.32 262.71 260.18 257.28   Q 260.45 255.55 261.04 253.78   C 261.63 252.02 261.59 250.34 262.61 248.81   Q 262.88 248.39 262.93 247.90   Q 263.00 247.11 263.28 246.33   Q 267.52 234.68 273.97 223.38   Q 281.79 211.05 294.24 202.20   Q 296.51 200.58 300.01 198.65   Q 302.97 197.01 305.94 195.36   Q 306.32 195.15 307.65 194.66   C 309.96 193.81 311.63 192.77 313.72 194.94   Q 314.18 195.42 314.15 196.08   C 314.06 197.88 315.57 198.26 316.09 199.72   Q 316.36 200.50 316.83 201.20   Q 320.93 207.28 322.03 209.22   Q 323.67 212.12 325.15 213.45   Z"></path>
  <path fill="#959492" d="   M 496.21 204.39   C 498.02 205.72 499.67 207.61 499.04 209.92   Q 496.87 217.78 493.90 225.18   Q 493.42 226.38 493.10 227.69   Q 492.81 228.93 492.18 230.14   Q 491.56 231.33 491.18 232.66   Q 490.86 233.78 490.26 234.91   Q 489.68 236.02 489.36 237.17   Q 488.87 238.89 487.97 240.48   Q 487.38 241.51 487.18 242.65   Q 486.99 243.71 486.38 244.62   Q 485.22 246.37 485.04 248.35   A 1.24 1.21 -15.5 0 1 484.52 249.24   C 483.13 250.21 483.35 251.70 482.69 253.12   Q 480.01 258.94 476.55 264.38   Q 488.15 240.14 496.64 214.87   Q 497.26 213.02 498.29 208.99   Q 498.42 208.49 498.18 208.04   L 496.21 204.39   Z"></path>
  <path fill="#35363a" d="   M 325.13 214.19   Q 325.06 213.88 325.15 213.45   L 325.13 214.19   Z"></path>
  <path fill="#dec7b5" d="   M 746.73 217.13   Q 744.12 215.77 745.11 214.23   Q 745.78 216.08 747.46 216.68   Q 748.01 216.88 747.47 217.09   Q 747.21 217.19 746.73 217.13   Z"></path>
  <path fill="#dec7b5" d="   M 316.04 219.21   L 309.89 222.74   Q 311.94 219.76 316.04 219.21   Z"></path>
  <path fill="#dec7b5" d="   M 273.97 223.38   Q 267.52 234.68 263.28 246.33   Q 263.00 247.11 262.93 247.90   Q 262.88 248.39 262.61 248.81   C 261.59 250.34 261.63 252.02 261.04 253.78   Q 260.45 255.55 260.18 257.28   C 259.32 262.71 258.92 268.02 258.92 273.54   Q 258.97 484.29 258.97 694.69   Q 258.97 711.85 258.79 728.96   Q 258.78 730.72 260.54 730.72   L 526.00 730.72   A 1.12 1.12 0.0 0 0 527.12 729.60   Q 527.10 618.24 527.17 506.91   C 527.17 503.25 526.48 499.41 526.30 495.74   Q 525.92 487.88 525.37 479.25   Q 524.99 473.08 524.49 466.66   Q 524.28 464.00 523.92 461.60   Q 523.54 459.03 523.50 456.57   Q 523.44 453.26 522.86 449.85   Q 522.26 446.40 522.18 442.76   Q 522.17 442.29 521.82 441.98   Q 521.60 441.79 521.60 441.50   Q 521.60 437.94 520.68 434.33   Q 520.22 432.52 520.14 428.44   Q 520.14 428.26 520.06 428.10   Q 520.03 428.04 519.94 428.03   Q 519.82 428.01 519.81 427.89   Q 519.05 423.11 518.36 418.52   Q 518.00 416.09 517.32 413.50   C 516.74 411.27 516.60 409.05 516.07 406.84   Q 513.54 396.26 512.04 390.96   Q 509.78 382.95 505.49 370.61   Q 513.60 389.62 518.28 414.25   Q 519.04 418.25 519.26 420.39   Q 519.42 422.00 519.84 423.33   Q 520.35 424.95 520.19 426.89   Q 520.14 427.50 520.62 427.89   Q 521.00 428.21 521.04 428.70   Q 521.22 431.24 521.31 433.83   Q 521.32 434.28 521.52 434.67   Q 521.62 434.88 521.75 435.07   Q 522.02 435.50 522.04 436.01   Q 522.10 438.56 522.30 441.16   Q 522.33 441.58 522.61 441.90   Q 522.96 442.31 523.00 442.85   C 523.12 444.59 522.88 448.76 523.77 450.16   Q 523.97 450.48 523.96 450.83   Q 523.89 453.91 524.28 456.76   C 525.53 465.95 525.83 474.79 526.74 483.97   C 527.24 489.09 527.09 493.98 527.34 499.04   Q 527.36 499.56 527.70 499.96   Q 528.08 500.43 528.08 501.04   Q 528.09 615.87 528.10 729.90   A 2.15 2.15 0.0 0 1 525.95 732.05   L 260.52 732.05   Q 259.97 732.05 259.69 731.57   Q 259.33 730.94 258.62 731.18   Q 257.83 731.45 257.83 730.61   Q 257.82 498.21 257.84 265.37   Q 257.84 264.53 258.36 263.85   Q 258.64 263.47 258.67 263.00   L 258.99 256.51   A 0.72 0.72 0.0 0 1 259.31 255.95   Q 259.52 255.82 259.66 255.61   A 1.24 1.21 59.3 0 0 259.86 254.79   Q 259.80 254.19 260.28 253.87   Q 260.72 253.56 260.69 253.03   Q 260.56 249.67 262.37 246.93   Q 262.64 246.52 262.65 246.03   Q 262.68 244.71 263.43 243.70   Q 263.70 243.34 263.72 242.90   Q 263.76 242.22 264.26 241.85   Q 264.66 241.55 264.70 241.06   C 264.74 240.60 264.73 240.08 264.93 239.66   Q 267.95 233.50 270.99 227.56   C 271.43 226.71 271.99 226.28 272.58 225.58   A 0.89 0.86 65.7 0 0 272.78 225.02   Q 272.78 224.14 273.97 223.38   Z"></path>
  <path fill="#dec7b5" d="   M 770.46 232.05   L 766.72 228.19   Q 769.31 229.51 770.46 232.05   Z"></path>
  <path fill="#959492" d="   M 427.28 235.24   Q 447.36 257.46 463.08 279.68   Q 468.64 287.55 474.21 298.14   Q 487.63 323.63 495.19 350.40   Q 495.49 351.46 495.30 352.50   Q 495.12 353.45 494.20 353.17   Q 489.56 351.79 485.12 350.58   C 483.35 350.10 481.38 350.35 479.70 349.70   Q 478.74 349.33 477.70 349.24   Q 468.01 348.41 460.28 350.44   Q 453.37 352.26 447.31 357.35   C 443.83 360.27 441.67 364.08 439.16 367.73   Q 437.76 369.77 435.87 368.32   Q 423.40 358.78 410.74 351.17   Q 408.39 349.75 405.76 349.98   A 0.76 0.75 83.5 0 0 405.08 350.84   C 405.44 353.59 404.28 355.90 404.19 358.62   C 404.03 362.90 403.27 367.05 403.21 371.47   Q 402.96 389.43 403.03 407.68   Q 400.89 391.32 401.61 379.25   Q 402.52 364.09 404.16 349.80   A 1.90 1.89 17.2 0 1 406.93 348.34   Q 408.53 349.19 410.07 350.13   Q 424.13 358.70 436.27 368.07   A 1.36 1.35 -51.2 0 0 438.14 367.86   Q 439.83 365.84 441.19 363.66   C 448.30 352.29 462.24 346.49 475.43 347.77   Q 484.41 348.64 493.25 352.15   A 0.99 0.99 0.0 0 0 494.59 351.39   Q 494.79 350.17 494.04 349.32   Q 493.72 348.97 493.59 348.51   C 486.81 325.32 477.19 302.41 463.93 282.14   C 459.14 274.83 453.61 268.11 448.46 261.32   Q 444.49 256.10 437.82 248.34   Q 432.37 241.99 427.28 235.24   Z"></path>
  <path fill="#dec7b5" d="   M 803.38 237.08   Q 806.73 243.83 808.55 250.90   Q 809.51 254.66 810.48 258.44   C 811.31 261.68 811.16 264.65 811.32 267.85   Q 811.35 268.37 811.66 268.78   Q 812.06 269.32 812.06 270.00   Q 812.01 499.77 812.14 728.45   A 3.60 3.59 -90.0 0 1 808.55 732.05   L 544.05 732.05   A 2.25 2.24 90.0 0 1 541.81 729.80   Q 541.82 621.82 541.76 513.43   C 541.76 506.08 542.02 498.83 542.00 491.52   Q 542.00 491.16 542.28 490.92   Q 542.71 490.54 542.72 489.97   Q 542.81 484.74 543.02 479.50   C 543.06 478.34 543.74 477.36 543.74 476.25   Q 543.70 466.68 545.08 458.27   Q 545.75 454.18 545.90 450.69   Q 546.00 448.44 546.46 446.25   C 546.93 444.03 546.79 441.98 547.38 439.72   C 548.08 437.01 547.80 434.28 548.31 431.46   Q 549.65 424.04 550.75 416.35   Q 550.98 414.75 551.50 413.35   C 552.01 411.93 551.77 410.48 552.26 408.98   C 552.85 407.15 552.86 405.39 553.49 403.48   Q 554.23 401.28 554.59 399.03   C 555.06 396.19 556.23 393.67 556.73 390.87   C 557.11 388.76 558.38 387.14 558.70 384.97   Q 558.92 383.48 559.72 382.13   Q 560.65 380.54 560.87 378.84   Q 560.94 378.28 561.30 377.86   Q 561.89 377.19 561.89 376.24   Q 561.90 375.76 562.12 375.32   L 566.24 367.00   Q 566.30 367.73 566.12 368.42   Q 565.99 368.87 565.69 369.23   Q 565.24 369.75 564.99 370.35   Q 560.30 381.46 559.40 384.75   C 558.77 387.05 557.70 389.74 557.24 391.48   Q 550.34 417.95 547.65 445.17   C 547.46 447.04 546.69 448.91 546.63 450.57   Q 546.51 454.29 545.99 457.44   C 545.49 460.40 545.49 463.09 545.00 466.20   Q 544.41 469.86 544.46 473.40   C 544.53 478.96 543.44 484.75 543.57 490.43   C 543.60 491.58 543.07 492.71 543.04 493.90   C 542.33 527.26 542.32 559.25 542.48 591.72   Q 542.83 660.70 542.58 729.80   A 1.00 0.99 -90.0 0 0 543.57 730.80   L 809.20 730.84   A 1.87 1.87 0.0 0 0 811.07 728.97   Q 811.16 688.76 811.11 636.75   C 811.11 635.15 810.90 633.77 810.90 632.26   Q 810.84 456.46 810.88 280.35   Q 810.89 267.69 809.81 260.56   Q 808.02 248.66 803.38 237.08   Z"></path>
  <path fill="#dec7b5" d="   M 293.45 239.25   L 288.89 249.73   Q 288.79 249.96 288.61 250.13   L 288.41 250.34   A 0.91 0.89 -26.8 0 0 288.16 251.07   Q 288.34 252.33 287.56 253.23   Q 287.12 253.72 287.20 254.37   Q 287.39 256.03 286.53 257.26   Q 286.21 257.72 286.21 258.29   Q 286.23 259.38 285.63 260.28   Q 285.31 260.77 285.30 261.35   L 284.97 276.37   Q 284.96 276.72 284.74 276.98   L 284.52 277.24   A 1.36 1.35 -25.1 0 0 284.22 278.06   L 283.39 308.65   Q 282.91 308.34 282.91 307.50   Q 282.91 290.02 283.13 280.01   Q 283.19 277.28 283.64 272.50   Q 283.92 269.51 284.25 265.00   Q 285.24 251.29 293.45 239.25   Z"></path>
  <path fill="#dec7b5" d="   M 566.93 617.55   L 567.23 650.97   Q 567.23 651.45 567.57 651.80   Q 568.07 652.33 568.07 653.05   Q 568.11 679.02 568.09 704.52   A 0.44 0.44 0.0 0 0 568.53 704.96   L 785.28 704.96   A 0.52 0.52 0.0 0 0 785.80 704.44   Q 786.06 492.38 785.85 300.50   Q 785.84 294.49 785.79 288.21   Q 785.78 287.71 785.53 287.27   C 785.19 286.69 784.95 286.21 784.96 285.51   Q 785.00 274.53 784.71 263.39   Q 784.69 262.72 784.34 262.16   Q 783.78 261.29 783.87 260.28   Q 783.91 259.70 783.54 259.25   C 783.17 258.81 782.94 258.46 782.94 257.85   Q 782.95 255.39 782.28 253.45   Q 780.02 246.98 776.31 239.32   Q 778.31 240.82 779.13 243.11   Q 780.52 246.97 781.95 250.94   Q 783.14 254.24 783.94 257.68   Q 784.48 260.01 785.08 262.27   Q 785.69 264.51 785.77 266.84   C 785.95 272.00 785.82 277.08 786.24 282.04   Q 787.20 293.38 787.20 299.76   Q 787.24 445.86 787.17 591.97   Q 787.17 599.69 787.25 608.01   C 787.34 616.69 786.96 625.64 786.94 634.00   Q 786.86 671.73 786.82 704.46   A 2.13 2.13 0.0 0 1 784.69 706.58   L 568.45 706.58   A 1.60 1.60 0.0 0 1 566.85 704.98   L 566.93 617.55   Z"></path>
  <path fill="#dec7b5" d="   M 539.37 348.95   Q 545.22 349.47 550.56 352.44   Q 554.43 354.59 557.13 358.63   Q 557.41 359.06 558.23 358.75   Q 558.43 359.09 557.59 359.03   A 0.44 0.44 0.0 0 0 557.13 359.55   L 557.20 359.94   Q 554.23 354.30 549.95 352.78   C 547.12 351.77 544.68 350.35 541.63 350.23   Q 535.49 350.00 529.05 349.93   Q 533.35 348.33 539.37 348.95   Z"></path>
  <path fill="#dec7b5" d="   M 572.23 363.33   Q 571.07 362.18 569.99 361.93   A 0.80 0.80 0.0 0 0 569.18 362.23   L 567.83 364.02   C 567.50 360.51 571.55 359.60 572.23 363.33   Z"></path>
  <path fill="#dec7b5" d="   M 574.15 365.63   Q 575.84 366.64 576.24 368.00   Q 574.35 367.11 574.15 365.63   Z"></path>
  <path fill="#dec7b5" d="   M 577.08 369.54   Q 578.85 370.56 579.40 372.26   Q 579.55 372.74 579.90 373.09   C 580.50 373.69 581.10 374.20 581.26 375.06   C 581.44 376.10 582.51 376.58 583.05 377.50   Q 583.95 379.07 584.27 380.79   L 577.08 369.54   Z"></path>
  <path fill="#dec7b5" d="   M 636.33 476.78   Q 637.82 473.31 639.39 469.93   Q 641.22 465.97 642.33 463.01   Q 645.08 455.62 647.05 448.09   C 647.91 444.82 648.90 441.41 649.39 438.08   C 649.90 434.61 650.91 431.24 651.18 427.82   Q 651.56 422.85 652.36 417.51   Q 653.09 412.61 653.22 407.84   Q 653.65 392.03 653.07 373.75   Q 653.02 372.29 652.34 370.80   Q 654.07 371.42 654.10 372.50   Q 654.47 386.96 654.05 414.60   C 654.04 415.62 653.73 415.79 653.30 416.58   Q 653.06 417.03 653.12 417.53   Q 653.35 419.67 652.85 421.50   C 651.82 425.23 652.53 428.87 651.50 432.61   Q 650.63 435.74 650.31 438.68   Q 650.04 441.12 649.24 443.35   Q 648.37 445.76 648.14 448.21   Q 648.00 449.67 647.29 450.85   Q 646.30 452.49 646.23 454.30   Q 646.18 455.37 645.57 456.21   Q 645.33 456.53 645.26 456.94   C 645.12 457.79 645.17 458.44 644.60 459.17   Q 644.04 459.89 644.09 460.88   Q 644.11 461.44 643.81 461.91   Q 642.86 463.37 642.03 466.24   Q 641.03 469.71 636.33 476.78   Z"></path>
  <path fill="#dec7b5" d="   M 483.70 383.34   L 486.95 377.43   Q 486.96 378.58 486.22 379.65   Q 485.55 380.63 485.10 381.54   Q 484.58 382.61 483.70 383.34   Z"></path>
  <path fill="#dec7b5" d="   M 415.95 378.74   Q 415.98 383.89 415.99 389.08   Q 415.99 394.63 416.28 399.41   Q 417.26 415.63 418.93 427.93   Q 420.65 440.57 422.95 448.07   Q 423.66 450.39 424.26 453.06   Q 424.59 454.54 425.61 456.97   Q 426.48 459.02 426.42 461.14   L 424.08 455.63   Q 423.89 455.16 423.90 454.65   Q 423.95 453.08 423.14 451.80   Q 422.84 451.32 422.88 450.76   Q 422.92 449.87 422.38 449.19   Q 422.06 448.78 421.99 448.26   Q 421.62 445.46 420.65 442.83   Q 419.98 441.05 419.88 439.54   C 419.78 437.94 419.77 436.53 419.30 434.98   Q 417.72 429.82 417.78 425.24   Q 417.80 423.50 417.29 421.94   Q 416.62 419.92 416.86 417.54   C 416.91 417.00 416.83 416.45 416.38 416.08   Q 416.00 415.78 415.99 415.30   Q 415.82 407.26 415.69 399.15   Q 415.68 398.73 415.49 398.36   Q 415.36 398.11 415.19 397.86   Q 414.99 397.55 414.98 397.18   Q 414.80 386.11 414.99 379.52   Q 415.02 378.75 415.95 378.74   Z"></path>
  <path fill="#dec7b5" d="   M 584.92 381.04   Q 585.22 381.66 585.26 382.66   Q 584.47 381.98 584.50 381.12   Q 584.50 380.97 584.65 380.96   Q 584.79 380.94 584.92 381.04   Z"></path>
  <path fill="#dec7b5" d="   M 589.27 390.50   Q 588.73 390.14 588.52 389.21   Q 588.41 388.72 588.11 388.32   Q 586.27 385.78 585.30 382.37   Q 586.98 385.48 588.66 387.94   C 589.22 388.77 589.27 389.55 589.27 390.50   Z"></path>
  <path fill="#dec7b5" d="   M 482.11 386.42   Q 481.12 389.70 479.72 392.66   Q 479.18 393.79 478.61 394.97   Q 477.86 396.55 477.47 398.50   Q 477.10 400.34 476.40 401.94   Q 474.84 405.54 474.27 410.01   Q 474.25 410.17 474.11 410.27   Q 473.88 410.43 473.83 410.70   Q 472.04 419.19 471.79 426.25   C 471.71 428.55 469.84 429.89 467.73 428.78   Q 465.28 427.49 464.99 424.20   C 466.28 425.18 466.04 426.41 466.90 427.23   Q 468.06 428.33 470.27 427.86   Q 470.80 427.75 470.83 427.22   C 470.94 425.25 470.40 421.12 471.60 419.57   A 1.09 1.07 -27.9 0 0 471.83 418.85   Q 471.72 417.12 472.49 415.70   Q 472.73 415.24 472.73 414.72   Q 472.72 411.11 473.92 408.13   Q 474.62 406.41 474.87 404.65   Q 475.15 402.68 476.43 400.86   A 1.55 1.52 60.7 0 0 476.71 399.83   Q 476.58 398.23 477.38 396.81   Q 478.38 395.03 478.88 393.16   Q 479.37 391.34 480.47 389.73   Q 480.77 389.29 480.75 388.76   Q 480.69 387.09 482.11 386.42   Z"></path>
  <path fill="#dec7b5" d="   M 590.36 392.54   Q 589.63 393.18 589.45 390.58   Q 590.27 391.20 590.36 392.54   Z"></path>
  <path fill="#dec7b5" d="   M 590.69 392.94   Q 592.46 397.32 594.02 401.74   Q 594.81 403.97 595.33 406.21   Q 595.88 408.55 596.66 410.81   C 597.27 412.56 597.18 414.33 597.29 416.16   Q 597.32 416.59 597.63 416.88   L 597.84 417.07   Q 598.00 417.22 598.02 417.44   L 598.28 421.04   Q 598.32 421.62 598.75 422.01   C 598.93 422.17 599.03 422.48 599.03 422.71   Q 599.03 425.01 599.16 427.13   Q 599.19 427.67 599.72 427.82   Q 602.68 428.68 603.84 425.82   Q 604.86 423.28 606.89 420.45   Q 605.62 424.72 603.35 427.96   Q 602.61 429.02 601.23 429.06   Q 597.92 429.15 597.93 425.73   Q 597.95 421.73 597.11 417.97   Q 596.65 415.92 596.41 413.96   C 596.04 410.82 594.91 407.86 594.36 404.72   Q 594.28 404.26 593.94 403.94   Q 593.77 403.77 593.72 403.54   Q 592.80 399.79 590.61 394.56   Q 590.21 393.61 590.69 392.94   Z"></path>
  <path fill="#35363a" d="   M 666.90 400.29   L 666.86 400.96   L 666.90 400.29   Z"></path>
  <path fill="#dec7b5" d="   M 613.89 408.33   Q 614.13 409.65 612.64 410.16   Q 613.02 409.17 613.89 408.33   Z"></path>
  <path fill="#959492" d="   M 403.74 409.91   Q 404.90 412.07 402.03 413.24   Q 401.50 411.00 403.74 409.91   Z"></path>
  <path fill="#959492" d="   M 669.79 410.96   L 668.84 412.05   Q 667.99 411.84 669.28 410.59   Q 669.54 410.34 669.71 410.66   Q 669.77 410.79 669.79 410.96   Z"></path>
  <path fill="#dec7b5" d="   M 283.18 473.45   Q 284.02 474.00 284.02 475.75   Q 284.07 590.11 284.16 704.41   A 0.55 0.55 0.0 0 0 284.71 704.96   L 501.33 704.94   A 0.53 0.53 0.0 0 0 501.86 704.41   L 501.86 531.28   A 2.10 2.10 0.0 0 0 499.62 529.19   Q 498.56 529.27 497.80 528.51   A 1.28 1.27 -26.1 0 0 496.71 528.14   Q 495.68 528.29 494.86 527.64   A 1.62 1.62 0.0 0 0 493.90 527.28   C 492.64 527.24 491.94 527.27 490.81 526.59   Q 488.61 525.25 486.01 525.03   Q 485.52 524.98 485.09 524.74   Q 483.97 524.11 481.29 523.18   Q 475.86 521.29 469.01 516.46   L 485.40 524.15   Q 485.89 524.37 486.42 524.34   C 488.35 524.22 489.23 525.50 490.95 525.90   Q 495.63 526.98 500.73 528.39   A 3.33 3.32 -82.4 0 1 503.17 531.60   L 503.13 704.67   Q 503.13 706.48 501.32 706.48   L 285.48 706.56   A 2.38 2.38 0.0 0 1 283.09 704.17   L 283.18 473.45   Z"></path>
  <path fill="#dec7b5" d="   M 599.04 517.38   Q 592.46 521.50 589.16 522.70   Q 586.30 523.74 584.67 524.83   Q 584.22 525.14 583.67 525.16   Q 582.54 525.21 581.66 525.92   Q 581.30 526.21 580.85 526.15   Q 579.83 526.01 579.09 526.71   Q 578.72 527.07 578.20 527.13   L 576.08 527.37   Q 575.53 527.43 575.06 527.74   Q 574.24 528.27 573.21 528.26   Q 572.73 528.25 572.32 528.51   Q 570.83 529.47 568.93 529.20   A 0.73 0.73 0.0 0 0 568.10 529.96   Q 568.70 544.21 567.26 558.90   Q 565.84 540.48 566.73 530.49   C 566.88 528.73 569.37 528.20 570.94 527.87   Q 575.70 526.85 580.20 525.49   Q 583.97 524.36 589.02 521.86   Q 593.86 519.46 599.04 517.38   Z"></path>
  <path fill="#35363a" d="   M 733.26 896.42   Q 733.95 895.16 734.68 894.01   Q 735.87 892.10 735.79 889.86   A 1.07 1.06 -78.0 0 1 737.32 888.86   Q 740.22 890.28 738.58 892.38   Q 738.32 892.72 738.29 893.14   L 738.08 896.04   Q 738.04 896.60 737.71 897.05   Q 737.03 897.94 737.19 899.06   A 1.27 1.23 64.0 0 1 736.85 900.10   Q 736.75 900.20 736.63 900.27   Q 736.24 900.48 736.26 900.93   Q 736.34 903.27 735.20 905.24   Q 734.55 906.37 734.19 907.69   Q 733.87 908.89 733.26 910.18   Q 732.80 911.13 732.03 911.83   Q 731.39 912.42 731.28 913.23   Q 731.21 913.73 730.86 914.08   L 724.93 919.96   A 1.04 1.02 22.1 0 1 724.20 920.26   L 721.66 920.26   Q 721.17 920.26 720.84 919.91   Q 719.78 918.78 718.36 918.21   Q 717.94 918.04 717.79 917.63   Q 717.30 916.27 716.19 915.32   Q 715.81 914.99 715.76 914.49   L 715.71 914.00   A 0.88 0.82 -70.9 0 0 715.50 913.52   Q 714.51 912.41 714.77 910.90   A 0.58 0.57 13.6 0 0 714.37 910.25   Q 713.82 910.08 713.82 909.50   Q 713.83 907.96 713.48 906.61   Q 712.94 904.56 712.92 903.84   Q 712.73 898.25 712.86 892.68   Q 712.88 891.98 712.17 891.95   Q 709.77 891.84 709.21 894.49   Q 709.13 894.90 708.78 895.14   Q 707.50 896.06 707.14 897.47   Q 707.07 897.75 706.86 897.96   Q 704.94 899.86 703.33 902.21   Q 701.92 904.26 699.28 906.27   Q 689.75 913.51 677.79 917.27   Q 675.49 917.99 673.25 918.73   C 671.88 919.18 670.19 919.05 669.19 919.88   A 1.36 1.33 -63.1 0 1 668.28 920.19   Q 666.94 920.13 665.84 920.82   Q 665.29 921.17 664.64 921.12   Q 662.32 920.96 660.45 921.72   Q 659.28 922.19 657.99 922.22   C 656.52 922.26 655.74 922.98 654.32 923.01   C 650.38 923.10 646.53 923.15 642.65 923.83   Q 640.00 924.29 637.32 923.83   Q 634.23 923.30 631.59 923.21   Q 628.69 923.13 625.77 922.99   A 1.34 1.30 -21.3 0 1 624.90 922.62   Q 624.29 922.01 623.41 922.21   Q 622.38 922.44 621.80 921.68   Q 621.50 921.29 621.00 921.31   Q 617.44 921.44 614.51 919.42   A 1.11 1.08 61.1 0 0 613.85 919.22   C 613.05 919.24 612.68 918.56 612.04 918.18   Q 608.15 915.85 605.05 911.66   A 1.19 1.18 32.4 0 1 604.84 910.73   Q 605.01 909.80 604.34 909.19   Q 603.90 908.78 603.88 908.18   Q 603.72 901.48 603.93 894.83   Q 603.95 894.25 604.40 893.85   Q 604.78 893.52 604.79 893.02   L 604.95 887.54   A 0.99 0.97 -18.4 0 1 605.34 886.78   Q 606.12 886.18 605.67 885.27   Q 605.40 884.71 606.00 884.89   Q 606.22 884.95 606.41 884.84   A 0.59 0.59 0.0 0 0 606.59 884.66   Q 607.30 883.55 608.69 883.91   Q 609.16 884.03 609.19 884.51   Q 609.28 885.76 609.32 887.04   Q 609.37 888.17 609.97 889.32   Q 610.57 890.47 611.16 891.61   Q 611.81 892.88 612.61 893.71   Q 616.31 897.53 621.47 898.88   Q 621.96 899.01 622.33 899.35   C 623.16 900.14 625.04 899.60 626.32 900.39   Q 626.76 900.66 627.28 900.67   L 637.42 901.03   Q 637.80 901.04 638.06 901.32   L 638.32 901.59   Q 638.49 901.76 638.72 901.76   Q 642.02 901.75 645.00 901.78   Q 645.56 901.78 645.99 901.35   Q 646.32 901.01 646.80 901.00   Q 653.76 900.96 660.82 900.69   Q 662.74 900.62 664.59 900.15   Q 666.47 899.66 668.52 899.80   Q 669.03 899.84 669.46 899.55   Q 671.14 898.44 673.56 898.71   Q 674.07 898.76 674.52 898.50   Q 675.95 897.65 677.69 897.87   Q 678.40 897.97 678.77 897.40   Q 679.08 896.93 679.64 896.88   L 681.89 896.67   Q 682.39 896.62 682.79 896.34   Q 683.67 895.70 684.85 895.79   Q 685.42 895.83 685.80 895.41   Q 686.58 894.57 687.81 894.69   Q 688.34 894.74 688.74 894.40   Q 689.60 893.67 690.76 893.80   Q 691.29 893.87 691.68 893.49   Q 691.82 893.36 691.87 893.18   A 0.55 0.55 0.0 0 1 692.50 892.79   Q 693.33 892.94 693.85 892.30   Q 694.19 891.87 694.74 891.84   Q 696.60 891.75 697.85 890.29   Q 698.24 889.84 698.82 889.85   Q 699.60 889.86 699.96 889.19   Q 700.17 888.78 700.63 888.79   Q 701.36 888.81 701.76 888.23   Q 702.05 887.82 702.55 887.72   Q 702.71 887.69 702.87 887.67   Q 703.18 887.63 703.43 887.43   Q 707.46 884.05 711.20 879.90   Q 711.56 879.50 711.65 878.98   Q 711.68 878.76 711.73 878.54   Q 711.83 878.03 712.30 877.79   Q 713.03 877.41 712.85 876.59   Q 712.75 876.09 713.17 875.81   Q 713.78 875.40 713.70 874.67   Q 713.45 872.26 714.58 870.54   Q 714.90 870.04 714.83 869.45   Q 714.64 867.84 715.45 866.66   Q 715.73 866.26 715.68 865.78   Q 715.39 862.65 716.55 860.56   Q 716.85 860.00 716.80 859.36   Q 716.68 857.81 717.44 856.65   Q 717.73 856.20 717.68 855.67   Q 717.41 853.15 718.53 851.50   Q 718.83 851.05 718.78 850.50   Q 718.62 848.96 719.42 847.75   A 1.68 1.66 -32.5 0 0 719.68 846.62   Q 719.42 844.68 720.55 843.58   Q 720.88 843.26 720.82 842.81   Q 720.66 841.69 721.31 840.87   Q 721.59 840.51 721.64 840.06   L 721.80 838.54   Q 721.86 837.99 722.33 837.73   Q 722.95 837.38 722.85 836.65   Q 722.77 836.12 723.13 835.72   Q 723.68 835.10 723.74 834.24   Q 723.78 833.58 724.11 833.02   Q 726.23 829.46 728.18 825.64   C 733.43 815.40 743.03 807.44 752.78 801.52   Q 758.07 798.32 763.69 795.19   Q 764.50 794.74 765.34 794.38   C 766.29 793.98 766.83 793.20 767.77 792.76   Q 770.35 791.53 773.22 789.88   Q 777.60 787.37 778.64 786.80   Q 793.05 778.93 806.54 769.05   Q 808.79 767.40 815.20 761.48   Q 816.55 760.23 817.59 758.84   Q 818.66 757.41 820.13 756.13   Q 820.49 755.82 820.95 755.97   Q 821.32 756.10 821.20 756.53   Q 821.06 757.07 821.48 757.44   Q 822.92 758.68 821.88 760.86   Q 821.42 761.83 821.34 762.84   Q 821.27 763.55 820.81 764.08   Q 819.80 765.21 819.16 766.63   Q 818.29 768.55 816.85 770.04   Q 812.34 774.71 809.77 776.82   Q 807.86 778.39 805.88 780.06   Q 803.91 781.74 801.88 783.13   Q 799.97 784.45 798.07 785.99   Q 796.21 787.49 794.29 788.83   Q 782.21 797.31 770.18 804.16   Q 765.81 806.65 761.36 809.17   Q 745.97 817.86 732.85 829.18   Q 731.38 830.45 729.76 832.50   Q 729.35 833.01 729.33 833.67   Q 729.30 834.57 728.73 835.20   Q 728.26 835.72 728.26 836.43   Q 728.26 837.48 727.65 838.36   Q 727.26 838.91 727.33 839.59   Q 727.49 841.20 726.61 842.31   Q 726.25 842.77 726.28 843.36   Q 726.35 844.83 725.76 846.06   C 725.05 847.53 725.28 849.80 725.08 851.45   A 1.08 1.06 76.0 0 1 724.62 852.23   Q 724.06 852.62 724.16 853.32   Q 724.40 855.08 723.86 856.62   Q 723.38 858.02 723.31 859.59   Q 723.18 862.85 723.07 866.27   Q 723.06 866.71 722.74 867.01   L 722.50 867.24   Q 722.15 867.57 722.16 868.05   Q 722.21 872.55 721.96 876.23   Q 721.92 876.73 721.62 877.25   Q 721.37 877.69 721.37 878.20   Q 721.34 882.98 721.35 887.77   Q 721.35 890.17 722.19 891.87   Q 723.25 893.99 724.42 896.14   Q 724.70 896.66 725.29 896.71   Q 725.83 896.76 726.11 897.25   Q 726.39 897.76 726.97 897.85   Q 729.24 898.19 731.40 897.78   A 2.70 2.69 -81.1 0 0 733.26 896.42   Z"></path>
  <path fill="#35363a" d="   M 749.61 778.63   Q 750.80 780.08 749.52 781.29   A 1.00 0.99 67.0 0 0 749.22 782.05   Q 749.25 782.78 748.76 783.26   A 1.53 1.53 0.0 0 0 748.29 784.41   C 748.34 785.87 747.11 786.70 746.52 788.00   Q 745.07 791.20 741.85 794.80   Q 740.35 796.47 738.69 794.97   Q 734.94 791.58 730.57 788.89   C 729.19 788.04 727.98 788.44 727.04 786.70   Q 726.76 786.18 726.96 785.63   Q 727.61 783.85 728.63 782.55   C 729.55 781.37 729.95 780.12 730.86 778.90   Q 732.63 776.52 733.81 773.94   C 734.42 772.60 735.58 771.98 735.82 770.52   Q 735.91 769.95 736.48 769.83   Q 738.48 769.43 739.24 769.83   Q 744.73 772.72 748.90 776.99   Q 749.18 777.27 749.26 777.64   Q 749.29 777.82 749.32 778.00   A 1.33 1.26 -71.3 0 0 749.61 778.63   Z"></path>
  <path fill="#35363a" d="   M 394.94 881.13   Q 395.23 880.68 395.85 880.94   A 0.73 0.72 -4.9 0 1 396.22 881.25   Q 396.42 881.58 396.80 881.62   Q 399.30 881.88 401.38 883.54   Q 401.78 883.86 402.29 883.79   Q 403.45 883.65 404.26 884.37   Q 404.70 884.77 405.30 884.72   Q 406.44 884.62 407.19 885.36   Q 407.54 885.70 408.03 885.73   L 413.40 885.98   A 1.01 1.00 -19.5 0 1 414.10 886.31   L 414.31 886.56   Q 414.45 886.71 414.65 886.72   Q 424.90 887.12 435.36 886.74   C 436.50 886.70 437.19 885.96 438.17 885.96   Q 441.66 885.97 444.99 885.60   Q 445.48 885.55 445.88 885.24   A 1.94 1.90 28.1 0 1 447.17 884.86   C 449.08 884.97 450.46 883.97 452.41 883.86   Q 454.60 883.73 456.70 883.01   C 459.70 881.98 462.73 881.76 465.70 880.53   C 467.42 879.82 469.15 879.69 470.94 879.03   C 482.47 874.84 493.44 870.37 504.01 864.10   Q 511.35 859.74 518.33 853.60   C 530.35 843.02 542.16 832.22 555.27 823.58   Q 557.32 822.23 558.34 823.11   Q 558.82 823.53 559.41 823.73   Q 560.06 823.94 560.16 824.61   Q 560.79 828.47 560.15 831.05   Q 559.50 833.67 557.05 836.18   C 553.72 839.58 549.50 841.71 545.67 844.43   Q 542.57 846.63 540.13 848.90   Q 532.37 856.12 524.16 863.15   Q 523.39 863.81 522.72 864.45   Q 514.13 872.54 504.83 880.07   Q 491.79 890.63 475.91 897.13   Q 464.73 901.71 449.38 905.86   Q 448.07 906.22 446.64 906.33   Q 446.18 906.37 445.76 906.55   Q 444.07 907.28 442.14 907.25   Q 441.59 907.24 441.20 907.63   Q 440.86 907.97 440.40 908.01   Q 436.28 908.42 431.97 908.36   Q 431.47 908.36 431.18 908.76   Q 431.08 908.90 430.92 908.98   Q 430.75 909.05 430.57 909.06   Q 423.74 909.22 416.92 909.08   Q 416.51 909.07 416.13 908.89   Q 415.98 908.81 415.84 908.70   Q 415.50 908.43 415.07 908.41   L 409.07 908.18   Q 408.53 908.16 408.10 907.83   Q 406.97 906.95 405.40 907.17   Q 404.72 907.26 404.16 906.86   Q 403.06 906.06 401.58 906.25   Q 400.39 906.40 399.79 905.53   Q 399.51 905.13 399.02 905.16   Q 398.16 905.21 397.70 904.59   Q 397.31 904.09 396.70 904.25   Q 396.52 904.30 396.33 904.27   Q 395.96 904.21 395.80 903.88   Q 395.41 903.07 394.46 903.24   A 0.67 0.66 -16.8 0 1 393.75 902.86   Q 393.41 902.12 392.56 902.27   Q 391.90 902.39 391.75 901.74   Q 391.65 901.31 391.16 901.29   Q 390.77 901.28 390.45 901.05   Q 388.20 899.37 385.79 900.24   A 2.75 2.14 86.1 0 0 384.31 902.43   Q 384.27 902.90 383.85 903.12   A 0.81 0.80 -9.8 0 0 383.43 903.71   L 383.17 905.38   A 1.22 1.21 78.5 0 1 382.63 906.20   Q 381.38 907.02 381.22 908.40   A 1.18 1.16 75.9 0 1 380.74 909.22   Q 379.80 909.89 379.46 910.93   C 378.87 912.68 376.87 913.69 376.24 915.47   Q 376.02 916.07 375.40 916.32   C 374.31 916.77 373.12 917.93 372.27 918.76   Q 371.90 919.13 371.39 919.26   Q 370.03 919.63 369.10 920.69   Q 368.78 921.06 368.29 921.07   Q 365.63 921.15 363.42 919.54   Q 358.11 915.66 355.64 907.82   C 355.48 907.33 355.18 907.09 354.94 906.65   Q 354.79 906.38 354.80 906.08   Q 354.94 903.64 354.49 901.31   Q 353.97 898.58 353.95 896.41   Q 353.89 889.83 353.96 882.88   Q 353.96 882.49 354.14 882.15   Q 354.22 881.98 354.35 881.83   A 1.13 1.11 65.4 0 0 354.61 881.11   Q 354.72 873.00 354.96 864.89   Q 354.97 864.51 355.15 864.17   Q 355.24 863.99 355.40 863.86   Q 355.81 863.53 355.81 863.01   Q 355.81 861.24 355.92 859.52   Q 355.94 859.25 356.07 859.01   Q 356.14 858.88 356.28 858.79   Q 356.57 858.60 356.58 858.26   L 356.91 849.74   Q 356.93 849.19 357.37 848.86   Q 357.51 848.76 357.61 848.63   Q 357.85 848.29 357.79 847.88   Q 357.55 846.08 358.37 844.66   Q 358.59 844.29 358.61 843.87   L 358.92 838.29   A 0.50 0.50 0.0 0 1 359.31 837.83   Q 359.53 837.78 359.64 837.60   Q 359.85 837.29 359.79 836.93   Q 359.47 835.10 360.34 833.84   Q 360.76 833.23 360.73 832.49   Q 360.64 830.25 361.06 828.43   A 1.84 1.75 71.9 0 1 361.37 827.78   Q 362.40 826.46 363.39 826.78   Q 365.45 827.43 365.38 829.59   L 365.00 842.23   Q 364.98 842.73 364.65 843.09   Q 364.49 843.27 364.37 843.50   Q 364.24 843.74 364.24 844.02   Q 364.17 846.88 364.04 849.59   A 0.64 0.62 75.9 0 1 363.76 850.08   L 363.50 850.25   Q 363.30 850.38 363.29 850.61   Q 363.05 855.07 363.09 859.87   Q 363.11 861.14 362.57 862.21   Q 362.35 862.66 362.33 863.15   Q 361.93 873.89 362.27 884.98   Q 362.29 885.48 362.62 885.84   Q 363.02 886.26 363.04 886.84   Q 363.11 889.08 363.32 891.04   Q 363.38 891.59 363.88 891.81   Q 364.47 892.08 364.35 892.77   A 1.06 1.06 0.0 0 0 364.62 893.71   Q 366.31 895.55 368.12 897.43   Q 369.51 898.87 371.63 898.91   Q 374.02 898.95 376.17 898.74   Q 376.64 898.69 376.87 898.28   Q 377.17 897.77 377.82 897.73   A 1.07 1.03 23.7 0 0 378.39 897.52   Q 379.90 896.38 380.63 894.93   Q 381.08 894.04 381.85 893.34   Q 383.86 891.53 384.92 889.24   Q 385.17 888.71 385.65 888.38   Q 386.52 887.77 386.75 886.80   Q 386.85 886.37 387.17 886.05   L 390.05 883.17   Q 390.41 882.80 390.93 882.77   Q 391.38 882.75 391.59 882.36   Q 391.87 881.84 392.46 881.79   L 394.06 881.65   Q 394.63 881.60 394.94 881.13   Z"></path>
  <path fill="#35363a" d="   M 564.32 909.22   Q 564.03 908.91 563.98 908.50   Q 563.67 905.72 563.78 903.12   Q 563.80 902.68 563.56 902.35   Q 563.43 902.17 563.26 902.04   A 0.80 0.78 19.0 0 1 562.94 901.41   Q 562.79 894.38 562.99 887.94   Q 563.00 887.48 563.27 887.09   Q 563.38 886.93 563.50 886.78   Q 563.73 886.49 563.73 886.12   Q 563.81 882.48 563.96 878.92   Q 563.97 878.47 564.20 878.11   Q 564.36 877.85 564.50 877.57   Q 564.63 877.28 564.64 876.97   Q 564.74 873.21 564.92 869.71   A 1.16 1.12 -18.6 0 1 565.36 868.86   C 566.19 868.23 565.59 866.02 566.29 864.80   Q 566.54 864.36 566.57 863.86   L 566.89 858.55   Q 566.92 858.07 567.33 857.82   Q 567.95 857.44 567.83 856.73   Q 567.55 855.01 568.46 853.61   A 0.96 0.91 65.1 0 0 568.60 853.19   L 568.87 849.54   A 1.02 1.01 -13.4 0 1 569.36 848.75   Q 569.98 848.37 569.81 847.60   Q 569.57 846.52 570.30 845.81   A 1.03 1.02 67.3 0 0 570.62 845.02   Q 570.50 841.71 572.34 838.91   Q 572.64 838.47 572.69 837.94   L 572.81 836.57   Q 572.86 836.06 573.31 835.81   Q 574.30 835.25 574.71 834.18   Q 574.87 833.77 575.30 833.79   L 576.73 833.83   Q 577.36 833.85 577.34 834.49   L 577.05 844.43   Q 577.04 844.85 576.69 845.10   Q 576.55 845.20 576.45 845.34   Q 576.37 845.45 576.36 845.59   Q 576.18 847.83 576.11 850.20   Q 576.09 850.66 575.77 850.98   L 575.56 851.19   Q 575.25 851.50 575.23 851.95   L 575.05 856.26   A 1.22 1.21 -24.4 0 1 574.76 857.02   L 574.54 857.29   Q 574.38 857.49 574.36 857.75   L 574.08 862.80   A 0.45 0.44 -4.3 0 1 573.72 863.21   Q 573.53 863.25 573.43 863.40   A 0.75 0.32 -45.4 0 0 573.29 863.75   L 573.00 871.29   A 1.26 1.22 -21.1 0 1 572.61 872.14   Q 572.36 872.38 572.35 872.60   Q 572.00 880.40 572.29 888.03   C 572.36 889.80 573.39 890.95 573.21 892.81   Q 573.16 893.35 573.64 893.63   Q 574.04 893.85 574.17 894.29   Q 575.06 897.17 577.56 897.76   Q 579.65 898.26 582.17 897.71   A 1.67 1.66 -1.4 0 0 583.46 896.37   Q 583.65 895.28 584.38 894.67   A 1.08 1.06 66.8 0 0 584.75 893.72   Q 584.52 891.91 585.52 890.67   A 1.82 1.75 -22.1 0 0 585.91 889.79   Q 586.05 888.88 586.71 888.40   A 1.61 1.61 0.0 0 1 589.27 889.75   L 589.07 896.48   Q 589.05 897.03 588.54 897.25   Q 588.37 897.32 588.27 897.48   A 0.90 0.85 -36.6 0 0 588.16 898.11   Q 588.43 899.46 587.59 900.30   Q 587.16 900.73 587.23 901.32   Q 587.46 903.33 586.36 904.62   A 0.91 0.86 -31.7 0 0 586.16 905.38   Q 586.27 905.88 585.84 906.11   Q 585.29 906.39 585.29 907.00   C 585.28 907.68 585.24 908.39 584.87 908.98   Q 584.00 910.34 583.25 912.14   Q 582.79 913.21 581.93 913.94   C 580.14 915.44 580.34 917.49 577.84 918.42   Q 576.78 918.81 576.15 919.76   Q 575.89 920.18 575.40 920.18   L 572.78 920.18   Q 572.26 920.18 571.94 919.77   Q 571.03 918.59 569.59 918.28   Q 569.11 918.17 568.84 917.76   Q 568.20 916.80 567.23 916.08   Q 566.74 915.71 566.75 915.10   Q 566.75 914.52 566.21 914.30   Q 565.61 914.06 565.74 913.42   Q 565.89 912.68 565.27 912.33   Q 564.81 912.06 564.76 911.53   L 564.59 909.79   A 1.00 1.00 0.0 0 0 564.32 909.22   Z"></path>
  <path fill="#35363a" d="   M 760.74 838.62   Q 760.45 837.95 761.12 837.71   Q 761.78 837.48 761.70 836.79   Q 761.55 835.35 762.70 834.37   A 2.10 2.10 0.0 0 1 766.17 836.02   L 766.06 840.27   Q 766.05 840.80 765.67 841.15   Q 765.57 841.25 765.46 841.33   A 0.63 0.62 72.7 0 0 765.23 841.77   L 765.09 845.45   Q 765.07 845.91 764.74 846.22   L 764.55 846.41   Q 764.39 846.56 764.38 846.77   L 764.08 853.22   A 1.29 1.28 -20.8 0 1 763.68 854.10   C 762.84 854.89 763.36 856.77 762.86 857.93   C 762.05 859.81 762.21 862.61 762.15 864.66   Q 762.08 866.73 761.50 868.59   Q 760.86 870.63 761.14 873.10   Q 761.21 873.69 760.81 874.12   L 760.57 874.39   A 0.94 0.91 -24.3 0 0 760.32 875.02   L 760.31 886.76   Q 760.31 887.26 760.57 887.70   Q 761.38 889.04 761.16 890.66   Q 761.07 891.29 761.52 891.74   Q 762.32 892.55 762.26 893.80   Q 762.23 894.43 762.68 894.87   C 763.73 895.92 764.79 897.50 766.30 897.86   Q 770.45 898.86 772.45 895.64   Q 772.72 895.19 772.69 894.66   Q 772.61 893.44 773.41 892.79   Q 773.77 892.49 773.79 892.02   L 773.87 890.55   A 1.00 0.98 75.1 0 1 774.30 889.79   Q 774.94 889.35 774.80 888.58   Q 774.67 887.93 775.33 887.91   Q 777.45 887.83 778.02 889.51   Q 778.69 891.47 777.36 893.58   A 1.22 1.18 58.1 0 0 777.18 894.42   Q 777.41 896.04 776.66 897.33   Q 776.40 897.77 776.38 898.28   Q 776.32 899.76 776.14 901.38   Q 776.09 901.80 775.82 902.08   Q 775.72 902.19 775.57 902.25   Q 775.10 902.46 775.18 902.96   Q 775.30 903.68 774.86 904.19   Q 774.52 904.58 774.46 905.09   L 774.16 907.30   Q 774.09 907.78 773.72 908.08   Q 772.22 909.26 772.24 911.22   Q 772.24 911.80 771.76 912.13   Q 770.64 912.89 770.28 914.18   Q 770.14 914.69 769.77 915.07   L 766.17 918.80   Q 765.82 919.16 765.32 919.27   Q 764.92 919.35 764.60 919.60   A 3.29 2.93 -38.1 0 1 760.19 919.33   Q 760.16 919.29 760.10 919.30   Q 759.16 919.49 758.58 918.72   Q 758.31 918.37 757.88 918.28   Q 757.38 918.17 757.08 917.76   L 754.11 913.78   Q 753.65 913.16 753.75 912.39   Q 753.87 911.55 753.11 911.23   A 0.51 0.51 0.0 0 1 752.82 910.58   Q 753.14 909.69 752.38 909.13   Q 751.97 908.83 751.96 908.32   Q 751.52 894.44 752.00 879.80   Q 752.02 879.23 752.42 878.83   Q 752.78 878.47 752.77 877.97   Q 752.75 875.73 752.94 873.70   Q 752.99 873.22 753.34 872.84   Q 753.67 872.48 753.69 872.00   L 753.96 866.05   Q 753.98 865.55 754.23 865.12   C 754.99 863.80 754.43 861.60 755.31 860.80   A 1.18 1.17 -19.6 0 0 755.69 860.01   L 755.94 855.75   Q 755.97 855.22 756.35 854.84   L 756.56 854.62   Q 756.72 854.46 756.69 854.24   Q 756.44 852.15 757.46 850.65   A 1.67 1.61 64.8 0 0 757.73 849.85   L 757.95 846.80   Q 757.98 846.32 758.33 845.97   Q 758.95 845.36 758.78 844.51   Q 758.71 844.20 758.95 843.99   Q 760.07 843.01 759.82 841.12   Q 759.69 840.18 760.43 839.67   A 0.87 0.87 0.0 0 0 760.74 838.62   Z"></path>
  <path fill="#35363a" d="   M 262.26 929.25   L 262.00 929.02   Q 261.79 928.84 261.85 928.57   Q 262.06 927.60 261.25 927.04   Q 260.78 926.72 260.78 926.15   L 260.82 905.81   Q 260.82 905.21 261.34 904.91   Q 261.68 904.71 261.80 904.33   Q 261.91 904.02 261.83 903.71   Q 261.56 902.61 262.29 901.86   Q 262.63 901.52 262.65 901.03   L 262.92 896.53   Q 262.95 896.01 263.41 895.76   Q 264.15 895.37 263.78 894.55   Q 263.57 894.10 264.02 893.90   L 264.41 893.73   Q 264.74 893.58 264.70 893.22   Q 264.41 890.86 265.61 889.47   Q 266.01 889.00 265.78 888.43   Q 265.57 887.93 266.09 887.83   Q 266.60 887.73 266.65 887.21   L 266.88 884.71   Q 266.93 884.17 267.37 883.84   Q 267.99 883.38 267.88 882.62   Q 267.77 881.89 268.51 881.70   Q 268.62 881.67 268.69 881.57   Q 268.89 881.25 268.82 880.89   C 268.39 878.83 270.54 878.43 270.64 876.46   Q 270.70 875.10 271.63 874.28   Q 272.67 873.37 274.40 873.77   Q 274.89 873.89 275.00 874.38   Q 275.34 875.98 275.13 877.58   Q 274.97 878.85 274.18 880.12   Q 273.08 881.91 273.10 883.90   Q 273.10 884.45 272.80 884.90   Q 271.12 887.42 270.99 890.46   Q 270.97 890.92 270.64 891.23   Q 269.98 891.84 270.14 892.84   Q 270.22 893.34 270.05 893.83   Q 269.98 894.04 269.78 894.13   Q 269.33 894.36 269.30 894.87   Q 268.87 902.53 269.27 910.08   Q 269.29 910.55 269.67 910.83   L 269.89 910.98   Q 270.15 911.18 270.12 911.51   Q 270.03 912.35 270.65 912.86   Q 271.12 913.24 271.16 913.84   L 271.23 914.91   Q 271.27 915.48 271.72 915.85   C 272.74 916.68 273.15 917.78 274.00 918.68   Q 277.05 921.92 281.26 923.26   Q 282.53 923.67 283.82 924.18   Q 284.99 924.66 286.18 924.74   Q 294.81 925.32 301.40 922.51   Q 318.15 915.35 325.57 897.70   Q 325.96 896.79 326.01 895.79   Q 326.03 895.22 326.44 894.83   Q 327.06 894.22 326.75 893.35   A 0.53 0.53 0.0 0 1 327.17 892.65   Q 327.42 892.61 327.55 892.42   Q 327.74 892.15 327.75 891.82   Q 328.12 879.29 327.91 867.50   Q 327.89 866.39 328.50 865.79   Q 329.00 865.32 328.84 864.65   Q 328.57 863.51 329.42 862.75   Q 329.92 862.31 329.84 861.65   Q 329.56 859.27 330.52 857.60   Q 330.85 857.02 330.76 856.37   Q 330.63 855.43 331.30 854.86   Q 331.69 854.53 331.72 854.03   L 331.87 852.00   Q 331.91 851.36 332.30 850.86   Q 332.94 850.05 332.75 848.95   A 1.11 1.09 -19.3 0 1 333.32 847.79   Q 334.13 847.36 333.80 846.43   Q 333.55 845.75 334.28 845.74   L 336.50 845.73   Q 337.17 845.72 337.17 846.39   L 337.09 862.25   Q 337.09 862.81 336.72 863.23   L 336.53 863.44   Q 336.42 863.57 336.42 863.74   L 336.09 880.00   Q 336.08 880.51 335.77 880.91   C 334.76 882.19 335.48 883.74 334.82 885.20   Q 334.34 886.25 334.37 887.35   Q 334.43 889.88 333.76 891.97   Q 332.88 894.75 332.24 897.57   Q 331.91 899.01 331.29 900.28   C 330.41 902.09 330.38 904.05 329.29 905.70   C 328.58 906.78 328.33 907.90 327.79 909.05   C 321.88 921.49 311.17 939.04 297.51 943.35   Q 295.66 943.93 293.99 944.89   Q 293.51 945.16 292.96 945.16   Q 291.67 945.15 290.55 945.61   C 289.04 946.24 287.66 946.21 286.08 946.24   A 1.63 1.59 -64.1 0 0 285.11 946.59   Q 284.02 947.46 282.91 946.57   Q 282.52 946.26 282.02 946.23   C 280.78 946.16 279.97 946.28 278.73 945.75   Q 277.51 945.23 276.17 945.14   Q 275.68 945.10 275.26 944.85   C 272.47 943.14 269.40 941.53 267.30 938.98   Q 264.56 935.65 262.85 931.48   Q 262.60 930.86 262.65 930.19   Q 262.69 929.62 262.26 929.25   Z"></path>
  <path fill="#35363a" d="   M 660.08 869.85   Q 657.34 872.73 654.87 874.89   Q 654.62 875.11 654.29 875.13   L 653.80 875.17   Q 653.68 875.18 653.60 875.27   C 652.52 876.44 650.58 876.44 649.42 875.28   Q 647.68 873.53 646.19 871.89   A 1.42 1.40 -38.3 0 1 646.45 869.77   Q 646.81 869.53 646.78 869.10   Q 646.75 868.52 647.08 868.05   Q 648.38 866.23 650.31 866.73   Q 650.82 866.86 651.13 867.30   Q 653.06 870.04 655.61 868.33   Q 657.91 866.80 658.81 864.24   Q 658.96 863.82 659.40 863.75   Q 660.83 863.55 661.72 862.18   Q 661.96 861.82 662.38 861.75   Q 664.67 861.41 666.39 861.90   A 2.65 2.64 2.9 0 1 668.28 863.98   Q 668.57 865.56 668.29 867.52   Q 668.21 868.03 667.74 868.25   Q 666.86 868.65 666.48 869.55   Q 666.26 870.06 665.72 870.19   Q 664.67 870.43 663.93 869.80   A 2.88 2.70 42.4 0 0 660.08 869.85   Z"></path>
  <path fill="#35363a" d="   M 524.28 919.66   Q 523.89 920.41 523.02 920.21   Q 521.89 919.95 521.10 920.65   Q 520.75 920.96 520.29 920.99   Q 517.98 921.12 515.96 921.02   Q 513.81 920.91 513.63 918.64   Q 513.54 917.50 514.50 916.55   Q 517.17 913.92 519.57 911.62   C 525.06 906.37 530.57 901.91 535.35 895.85   Q 537.24 893.46 537.98 890.57   Q 538.11 890.06 538.50 889.71   Q 538.98 889.27 538.82 888.61   Q 538.71 888.19 539.07 887.95   L 539.37 887.75   Q 539.71 887.52 539.74 887.11   L 539.91 884.78   Q 539.95 884.25 540.35 883.89   Q 541.03 883.28 540.78 882.35   Q 540.69 882.00 541.01 881.85   L 541.44 881.66   A 0.32 0.31 -11.0 0 0 541.63 881.39   L 541.94 877.73   A 1.32 1.32 0.0 0 1 542.36 876.89   Q 543.05 876.28 542.79 875.30   Q 542.71 874.99 543.00 874.86   L 543.47 874.66   Q 543.63 874.58 543.65 874.40   L 543.91 871.52   A 1.03 1.00 75.7 0 1 544.35 870.76   Q 544.97 870.35 544.83 869.57   Q 544.74 869.06 545.13 868.73   Q 545.98 868.01 545.78 866.76   A 0.94 0.94 0.0 0 1 546.30 865.78   Q 547.06 865.41 546.81 864.60   A 0.56 0.55 -8.3 0 1 547.35 863.88   Q 549.61 863.90 550.11 865.50   Q 550.86 867.85 549.43 870.57   Q 549.19 871.03 549.24 871.54   Q 549.39 873.17 548.87 874.62   Q 548.37 876.03 548.29 877.52   Q 548.17 879.74 548.06 881.63   Q 548.04 881.92 547.79 882.07   L 547.53 882.23   Q 547.16 882.45 547.21 882.88   Q 547.35 884.05 546.84 885.04   C 545.95 886.75 546.64 888.45 545.75 890.04   Q 544.26 892.72 544.08 895.79   A 0.50 0.48 -8.3 0 1 543.75 896.22   Q 543.55 896.30 543.43 896.48   Q 543.39 896.55 543.36 896.63   Q 541.52 902.46 538.35 907.70   Q 538.15 908.04 538.15 908.44   Q 538.15 908.64 538.06 908.82   Q 537.98 909.00 537.83 909.11   Q 536.33 910.15 535.54 911.79   C 534.77 913.38 533.26 914.44 532.09 915.81   Q 531.77 916.18 531.29 916.31   Q 529.90 916.66 529.14 917.86   Q 528.91 918.22 528.49 918.19   Q 527.72 918.14 527.22 918.73   Q 526.85 919.18 526.26 919.20   L 524.96 919.24   Q 524.50 919.26 524.28 919.66   Z"></path>
  <path fill="#35363a" d="   M 310.29 883.11   Q 310.33 884.76 309.80 886.10   Q 309.29 887.40 308.53 888.38   Q 308.20 888.81 308.22 889.34   Q 308.23 889.83 307.84 890.13   Q 307.34 890.51 307.23 891.11   Q 307.13 891.60 306.80 891.96   L 303.53 895.45   A 2.96 2.96 0.0 0 1 299.40 895.64   Q 297.31 893.79 294.78 892.27   C 293.82 891.70 293.23 890.69 292.21 890.39   C 290.82 889.99 290.25 888.95 289.08 888.23   A 0.97 0.97 0.0 0 1 288.64 887.17   Q 289.01 885.63 289.99 884.18   Q 290.56 883.33 291.02 882.40   Q 291.37 881.68 291.98 881.02   Q 292.46 880.51 292.77 879.91   Q 293.27 878.94 293.68 877.97   Q 294.01 877.20 294.62 876.63   Q 295.91 875.46 296.61 873.96   Q 297.08 872.97 297.78 872.37   Q 298.36 871.88 298.80 871.30   Q 299.41 870.51 300.11 871.23   Q 300.68 871.83 301.54 871.73   Q 302.57 871.61 303.25 872.37   Q 304.16 873.39 305.47 873.69   A 1.34 1.31 -11.4 0 1 306.24 874.19   Q 307.19 875.47 308.59 875.82   Q 309.14 875.96 309.23 876.52   L 309.31 876.99   A 1.09 1.08 -79.2 0 0 309.82 877.75   Q 310.39 878.09 310.25 878.74   Q 310.14 879.27 310.52 879.65   Q 311.82 880.96 310.62 882.25   Q 310.28 882.61 310.29 883.11   Z"></path>
  <path fill="#35363a" d="   M 573.15 957.39   Q 571.96 957.60 571.50 958.71   Q 571.05 959.81 570.93 961.14   Q 570.84 962.32 571.97 961.98   Q 573.12 961.65 574.09 962.31   Q 575.29 963.13 576.55 963.71   Q 580.30 965.43 583.06 969.25   Q 583.24 969.50 583.25 969.82   Q 583.25 970.21 583.49 970.52   Q 584.98 972.42 583.52 974.24   Q 583.23 974.61 583.22 975.07   Q 583.21 975.91 582.60 976.42   Q 582.19 976.75 582.30 977.26   Q 582.40 977.79 581.96 978.08   Q 581.51 978.38 581.34 978.88   Q 580.70 980.78 579.51 982.27   Q 577.23 985.15 574.42 987.87   A 1.23 1.23 0.0 0 1 573.03 988.08   Q 571.68 987.41 570.82 986.36   Q 569.71 985.03 568.91 984.42   C 567.50 983.36 566.58 982.12 564.96 981.35   Q 563.44 980.63 562.08 979.07   Q 561.77 978.71 561.80 978.37   Q 561.84 977.85 562.27 977.65   A 0.75 0.75 0.0 0 0 562.69 976.85   Q 562.63 976.52 562.69 976.21   A 0.57 0.56 -86.3 0 1 563.18 975.77   Q 563.83 975.69 563.78 975.03   Q 563.74 974.51 564.09 974.11   L 565.31 972.75   Q 565.66 972.35 565.67 971.82   Q 565.69 971.22 566.30 970.94   A 0.73 0.72 -9.0 0 0 566.72 970.37   L 567.06 967.83   Q 567.17 966.98 566.32 967.04   L 563.78 967.22   Q 563.21 967.26 562.86 966.81   Q 560.49 963.77 557.58 962.14   Q 556.64 961.61 555.96 960.80   Q 554.85 959.46 553.29 959.22   A 0.61 0.60 10.4 0 1 552.79 958.50   Q 552.90 957.99 552.81 957.48   A 0.56 0.55 -14.2 0 1 553.19 956.85   Q 553.95 956.62 553.80 955.82   Q 553.70 955.24 554.18 954.91   Q 555.43 954.05 555.84 952.59   Q 555.99 952.06 556.41 951.70   Q 557.14 951.07 557.52 950.20   C 558.15 948.75 559.37 947.74 560.07 946.57   Q 561.66 943.91 563.51 942.36   Q 564.43 941.58 565.45 942.22   Q 569.09 944.47 571.98 947.17   C 573.08 948.20 574.75 948.09 576.13 947.79   Q 576.58 947.69 576.63 947.24   L 576.69 946.66   Q 576.76 946.03 577.29 945.70   Q 578.57 944.90 578.77 943.47   Q 578.82 943.07 579.16 942.85   Q 580.33 942.06 580.68 940.79   Q 580.82 940.27 581.22 939.90   L 582.97 938.29   Q 583.43 937.87 583.94 938.24   Q 585.53 939.41 587.28 940.31   Q 589.31 941.35 590.52 942.55   Q 592.24 944.26 593.86 945.90   Q 594.25 946.29 594.23 946.85   Q 594.21 947.40 594.69 947.65   Q 595.04 947.83 595.11 948.22   Q 595.49 950.36 594.47 951.43   Q 594.13 951.78 594.16 952.28   Q 594.21 952.85 593.73 953.13   Q 593.21 953.43 593.19 954.03   L 593.17 954.45   A 0.49 0.43 67.9 0 1 593.09 954.68   L 586.74 963.35   A 2.87 2.86 38.1 0 1 582.58 963.85   Q 579.22 961.03 576.03 958.08   C 575.22 957.33 574.18 957.22 573.15 957.39   Z"></path>
  <path fill="#35363a" d="   M 366.84 959.92   Q 365.59 961.20 365.16 962.65   Q 365.04 963.08 364.67 963.32   Q 363.58 964.03 363.26 965.17   Q 363.14 965.64 362.80 965.98   L 359.90 968.95   A 0.72 0.72 0.0 0 1 358.72 968.74   Q 358.48 968.18 357.85 968.22   Q 357.21 968.26 356.81 967.75   Q 354.86 965.20 353.09 964.45   Q 351.75 963.88 350.88 962.82   Q 350.58 962.45 350.13 962.35   Q 348.11 961.90 347.84 959.85   A 1.12 1.10 68.7 0 1 348.28 958.82   Q 348.87 958.38 348.83 957.63   Q 348.80 957.16 349.16 956.87   Q 349.85 956.32 350.29 955.56   Q 353.26 950.43 356.42 945.99   Q 357.18 944.92 358.05 944.07   A 1.00 0.99 28.2 0 1 358.96 943.80   Q 360.16 944.04 361.23 944.78   Q 364.51 947.06 367.41 949.49   Q 367.81 949.82 368.32 949.82   L 370.01 949.82   Q 370.60 949.83 370.69 949.24   L 370.80 948.57   Q 370.89 948.01 371.37 947.71   Q 372.48 946.99 372.75 945.69   Q 372.85 945.21 373.16 944.83   Q 374.72 943.00 375.63 940.76   A 1.93 1.93 0.0 0 1 378.15 939.70   Q 383.50 941.89 387.68 945.77   Q 388.09 946.16 388.14 946.71   Q 388.21 947.42 388.80 947.72   A 0.92 0.90 -76.7 0 1 389.29 948.53   L 389.26 952.17   Q 389.26 952.80 388.75 953.16   Q 388.10 953.62 388.10 954.46   Q 388.10 954.95 387.70 955.22   Q 387.10 955.63 387.17 956.38   Q 387.22 956.88 386.80 957.15   Q 385.54 957.94 385.26 959.29   Q 385.13 959.89 384.65 960.27   Q 383.11 961.46 382.37 963.09   Q 380.92 966.28 377.54 965.23   Q 377.02 965.08 376.69 964.66   Q 374.87 962.41 372.69 961.25   C 371.10 960.41 371.23 959.25 368.97 959.12   Q 367.69 959.05 366.84 959.92   Z"></path>
  <path fill="#35363a" d="   M 752.42 963.33   Q 752.26 963.34 752.12 963.29   Q 751.84 963.18 751.72 962.90   Q 751.43 962.25 750.71 962.27   A 1.01 1.01 0.0 0 1 749.87 961.85   Q 749.34 961.13 748.45 961.26   Q 747.84 961.34 747.83 960.72   L 747.80 958.73   Q 747.79 958.15 748.27 957.82   Q 749.40 957.03 749.75 955.66   Q 749.88 955.18 750.26 954.87   Q 751.21 954.12 751.62 953.03   Q 751.80 952.56 752.11 952.15   L 758.79 943.23   Q 759.05 942.88 759.49 942.81   C 762.31 942.33 762.27 944.40 764.32 944.81   Q 764.74 944.89 765.08 945.16   L 770.82 949.76   Q 771.24 950.09 771.21 950.62   Q 771.16 951.55 772.00 951.80   A 0.52 0.51 9.9 0 1 772.36 952.30   L 772.26 956.44   Q 772.24 957.01 771.71 957.20   Q 771.15 957.41 771.21 957.97   Q 771.26 958.54 770.85 958.94   Q 770.21 959.55 770.14 960.48   A 0.95 0.94 76.8 0 1 769.69 961.21   Q 768.60 961.87 768.27 963.09   Q 768.13 963.59 767.78 963.98   L 762.61 969.80   A 1.78 1.78 0.0 0 1 759.94 969.80   Q 757.05 966.53 753.15 963.56   Q 752.83 963.31 752.42 963.33   Z"></path>
</svg>
